<svg version="1.1" xmlns="http://www.w3.org/2000/svg" xmlns:xlink="http://www.w3.org/1999/xlink" width="48" height="48"><defs><linearGradient x1="6.11348" y1="12.12491" x2="80.72236" y2="73.76511" gradientUnits="userSpaceOnUse" id="color-1"><stop offset="0" stop-color="#000000" stop-opacity="0.02"></stop><stop offset="1" stop-color="#000000" stop-opacity="0"></stop></linearGradient><clipPath id="clip-1"><path d="M3.52569,8.22519h40.94861v30.60382h-40.94861z" id="clipPath108 1" fill="none"></path></clipPath><filter id="dropshadow-base"><feColorMatrix type="matrix" values="0 0 0 0 0  0 0 0 0 0  0 0 0 0 0  0 0 0 .8 0"></feColorMatrix> <feOffset dx="0" dy="1"></feOffset> <feGaussianBlur stdDeviation="1"></feGaussianBlur> <feComposite in="SourceGraphic"></feComposite></filter><filter id="dropshadow-banner" x="-10%" y="-10%" width="120%" height="130%"><feColorMatrix type="matrix" values="0 0 0 0 0  0 0 0 0 0  0 0 0 0 0  0 0 0 .4 0"></feColorMatrix> <feOffset dx="0" dy="1"></feOffset> <feGaussianBlur stdDeviation="0.5"></feGaussianBlur> <feComposite in="SourceGraphic"></feComposite></filter></defs><g transform="translate(0,0)"><g fill="none" fill-rule="nonzero" stroke="none" stroke-width="none" stroke-linecap="butt" stroke-linejoin="miter" stroke-miterlimit="10" stroke-dasharray="" stroke-dashoffset="0" font-family="none" font-weight="none" font-size="none" text-anchor="none" style="mix-blend-mode: normal"><path d="M2,24c0,-12.15026 9.84974,-22 22,-22c12.15026,0 22,9.84974 22,22c0,12.15026 -9.84974,22 -22,22c-12.15026,0 -22,-9.84974 -22,-22z" id="base 1 5" fill="#ffffff" stroke-width="1"></path><path d="M41.36186,27.00541l3.62226,3.62226c-2.81191,8.91134 -11.14349,15.37233 -20.98412,15.37233c-1.99541,0 -3.92877,-0.26565 -5.76664,-0.76352l-11.76071,-11.76071l-0.00004,-1.09095l0.00758,-0.03116l0.0113,-0.03843l0.01009,-0.02852l0.012,-0.02922l0.0183,-0.03735l0.01685,-0.02889l0.01843,-0.02719l0.01652,-0.02158l0.01867,-0.02189l0.02025,-0.02146l0.02303,-0.02221l0.02543,-0.02271l0.02473,-0.02095l0.02322,-0.01906l0.02549,-0.02058l0.02543,-0.02076l0.03028,-0.0301l0.05407,-0.06335l0.13248,0.13248l0.03623,0.0298l0.02752,0.02379l0.02606,0.02428l0.53805,0.53805l-0.00001,-0.24302l0.00758,-0.03116l0.0113,-0.03843l0.01009,-0.02852l0.012,-0.02922l0.0183,-0.03735l0.01685,-0.02889l0.01843,-0.02719l0.01652,-0.02158l0.01867,-0.02189l0.02025,-0.02146l0.02303,-0.02221l0.02543,-0.02271l0.02473,-0.02095l0.02322,-0.01906l0.02549,-0.02058l0.02543,-0.02076l0.03028,-0.0301l0.05407,-0.06335l0.13248,0.13248l0.03623,0.0298l0.02752,0.02379l0.02606,0.02428l0.51853,0.51853l0,-0.44871l-2.62364,-2.62364l0.61259,-2.53564h1.48641l2.5357,2.5357h2.11025l0.00097,0.00097l0.61162,-2.53159h1.48641l2.53566,2.53566h4.7345l0.60208,0.60208l0,-0.29792l0.01628,-0.04359l0.02422,-0.05377l0.02152,-0.03995l0.02567,-0.04089l0.03919,-0.05225l0.03616,-0.04044l0.03949,-0.03804l0.03546,-0.03016l0.04001,-0.03061l0.04341,-0.03004l0.04934,-0.0311l0.05446,-0.0318l0.00418,-0.00231l-0.63972,-0.63972v-3.1107h0.00006l-0.00006,-0.00006v-0.76318l0.00815,-0.02176l0.01212,-0.02688l0.01079,-0.02l0.01282,-0.02037l0.01961,-0.02613l0.01804,-0.02025l0.01976,-0.019l0.01773,-0.01515l0.02,-0.01527l0.0217,-0.01501l0.02467,-0.01552l0.02719,-0.01591l0.02656,-0.01464l0.02486,-0.01331l0.02725,-0.01445l0.02731,-0.01452l0.03243,-0.02101l0.03001,-0.02295l-0.33719,-0.33719v-1.7689h0.00002l0.00002,-0.55455l0.00297,-0.01585l0.00442,-0.01949l0.00391,-0.01452l0.00467,-0.01482l0.00706,-0.019l0.00663,-0.0147l0.00713,-0.01382l0.00643,-0.01097l0.00725,-0.0111l0.00788,-0.01091l0.00897,-0.0113l0.00991,-0.01155l0.00966,-0.01067l0.00903,-0.00966l0.00991,-0.01048l0.00997,-0.01061l0.00306,-0.00398l-0.55447,-0.55447v-0.25239h1.5089l-0.69117,-0.69117c-0.15414,-0.15414 -0.24948,-0.36709 -0.24948,-0.60231c0,-0.47044 0.38135,-0.85179 0.85179,-0.85179c0.23522,0 0.44817,0.09534 0.60231,0.24948l10.58329,10.58329h3.8021l-15.0602,-15.0602l0,-1.40237l-0.00373,-0.00373v-0.94984h1.89963l14.8805,14.8805z" fill="url(#color-1)" stroke-width="1"></path><path d="M41.88652,29.54105h-2.62366l0.6126,-2.53564h1.48642zM15.4821,29.54105l-2.62365,0v5.38823h-4.12131v-5.39327h4.12131v0.00498l0.61259,-2.53559h1.48642zM8.73714,29.53596h-2.62366l0.6126,-2.53564h1.48642zM25.06692,21.10594h-2.83932v-0.25238h2.83932zM22.22759,34.92928h-6.74554v-5.38822h6.74554zM32.07096,34.92928h-7.00405v-5.43156h7.00405zM39.26285,34.92928h-4.56828v-5.38822h4.56828zM22.82969,33.3847l0.01628,-0.0436l0.02423,-0.05376l0.02152,-0.03994l0.02568,-0.04089l0.03918,-0.05224l0.03615,-0.04044l0.0395,-0.03805l0.03546,-0.03016l0.04,-0.0306l0.04341,-0.03003l0.04934,-0.03111l0.05445,-0.0318l0.053,-0.02928l0.04978,-0.02656l0.05458,-0.02883l0.05458,-0.02909l0.06486,-0.04209l0.11597,-0.08865l0.11982,0.09162l0.04391,0.02947l0.05534,0.0301l0.06303,0.03325l0.07931,0.04259l0.05893,0.03331l0.0559,0.03401l0.05186,0.03464l0.03956,0.02934l0.04436,0.03691l0.03779,0.0359l0.0359,0.03931l0.03792,0.04909l0.03445,0.05414l0.03249,0.06392l0.02732,0.06953v1.52636h-1.63589zM23.86025,24.86663l0.00814,-0.02177l0.01211,-0.02688l0.01079,-0.02l0.01281,-0.02038l0.01962,-0.02612l0.01805,-0.02025l0.01975,-0.01899l0.01773,-0.01514l0.02,-0.01527l0.02171,-0.01502l0.02467,-0.01552l0.02719,-0.0159l0.02656,-0.01464l0.02486,-0.01331l0.02726,-0.01445l0.02732,-0.01451l0.03243,-0.02101l0.05799,-0.04436l0.05994,0.04581l0.02189,0.0147l0.0277,0.01508l0.03148,0.01659l0.03969,0.02133l0.02947,0.01666l0.02795,0.01697l0.02593,0.01735l0.01975,0.01464l0.02221,0.01849l0.01887,0.01798l0.01798,0.01962l0.01899,0.02454l0.01716,0.02707l0.01628,0.03199l0.01369,0.0347v0.76321h-0.81798zM24.67818,28.74057h-0.81798v-3.1107h0.81798zM22.61936,24.86663l0.00814,-0.02177l0.01211,-0.02688l0.01079,-0.02l0.01281,-0.02038l0.01962,-0.02612l0.01805,-0.02025l0.01975,-0.01899l0.01773,-0.01514l0.02,-0.01527l0.02171,-0.01502l0.02467,-0.01552l0.02719,-0.0159l0.02656,-0.01464l0.02486,-0.01331l0.02726,-0.01445l0.02732,-0.01451l0.03243,-0.02101l0.05799,-0.04436l0.05994,0.04581l0.02189,0.0147l0.0277,0.01508l0.03148,0.01659l0.03969,0.02133l0.02947,0.01666l0.02795,0.01697l0.02593,0.01735l0.01975,0.01464l0.02221,0.01849l0.01887,0.01798l0.01798,0.01962l0.01899,0.02454l0.01723,0.02707l0.01622,0.03199l0.01369,0.0347v0.76321h-0.81798zM23.43733,28.74057h-0.81798v-3.1107h0.81798zM22.66322,21.87385l0.00297,-0.01584l0.00442,-0.0195l0.00391,-0.01451l0.00467,-0.01483l0.00707,-0.01899l0.00663,-0.0147l0.00713,-0.01382l0.00644,-0.01098l0.00726,-0.0111l0.00789,-0.01092l0.00896,-0.01129l0.00991,-0.01155l0.00965,-0.01066l0.00902,-0.00965l0.00991,-0.01047l0.00997,-0.0106l0.01174,-0.01527l0.02107,-0.03218l0.02177,0.03325l0.00801,0.01073l0.01003,0.01092l0.01142,0.01205l0.01445,0.01552l0.01073,0.01211l0.0101,0.0123l0.00946,0.01262l0.00719,0.01066l0.00801,0.01344l0.00688,0.013l0.00656,0.01432l0.00688,0.01779l0.00625,0.01969l0.00587,0.02322l0.00498,0.02524v0.55461l-0.00001,0l0,1.76887h-0.29718v-1.7689l0.00001,0zM23.22279,21.87385l0.00297,-0.01584l0.00442,-0.0195l0.00391,-0.01451l0.00467,-0.01483l0.00707,-0.01899l0.00663,-0.0147l0.00713,-0.01382l0.00644,-0.01098l0.00726,-0.0111l0.00789,-0.01092l0.00896,-0.01129l0.00991,-0.01155l0.00965,-0.01066l0.00902,-0.00965l0.00991,-0.01047l0.00997,-0.0106l0.01174,-0.01527l0.02107,-0.03218l0.02177,0.03325l0.00801,0.01073l0.01003,0.01092l0.01142,0.01205l0.01445,0.01552l0.01073,0.01211l0.0101,0.0123l0.00946,0.01262l0.00719,0.01066l0.00801,0.01344l0.00688,0.013l0.00656,0.01432l0.00688,0.01779l0.00625,0.01969l0.00587,0.02322l0.00498,0.02524v0.55458h0.00001v1.73123h-0.29718l0,-1.7312h-0.00001zM23.78238,21.87385l0.00297,-0.01584l0.00442,-0.0195l0.00391,-0.01451l0.00467,-0.01483l0.00707,-0.01899l0.00663,-0.0147l0.00713,-0.01382l0.00644,-0.01098l0.00726,-0.0111l0.00789,-0.01092l0.00896,-0.01129l0.00991,-0.01155l0.00965,-0.01066l0.00902,-0.00965l0.00991,-0.01047l0.00997,-0.0106l0.01174,-0.01527l0.02107,-0.03218l0.02177,0.03325l0.00801,0.01073l0.01003,0.01092l0.01142,0.01205l0.01445,0.01552l0.01073,0.01211l0.0101,0.0123l0.00946,0.01262l0.00719,0.01066l0.00801,0.01344l0.00688,0.013l0.00656,0.01432l0.00688,0.01779l0.00625,0.01969l0.00587,0.02322l0.00498,0.02524v0.55461h-0.29718zM24.07959,24.16301h-0.29718v-1.73451h0.29718zM24.36037,21.87385l0.00297,-0.01584l0.00442,-0.0195l0.00391,-0.01451l0.00467,-0.01483l0.00707,-0.01899l0.00663,-0.0147l0.00713,-0.01382l0.00644,-0.01098l0.00726,-0.0111l0.00789,-0.01092l0.00896,-0.01129l0.00991,-0.01155l0.00965,-0.01066l0.00902,-0.00965l0.00991,-0.01047l0.00997,-0.0106l0.01174,-0.01527l0.02107,-0.03218l0.02177,0.03325l0.00801,0.01073l0.01003,0.01092l0.01142,0.01205l0.01445,0.01552l0.01073,0.01211l0.01016,0.0123l0.0094,0.01262l0.00719,0.01066l0.00801,0.01344l0.00688,0.013l0.00656,0.01432l0.00688,0.01779l0.00625,0.01969l0.00587,0.02322l0.00498,0.02524v0.55461h-0.29718zM24.65755,24.20528h-0.29718v-1.77679h0.29718zM22.82969,29.84523l0.01628,-0.0436l0.02423,-0.05376l0.02152,-0.03994l0.02568,-0.04089l0.03918,-0.05224l0.03615,-0.04044l0.0395,-0.03805l0.03546,-0.03016l0.04,-0.0306l0.04341,-0.03003l0.04934,-0.03111l0.05445,-0.0318l0.053,-0.02928l0.04978,-0.02656l0.05458,-0.02883l0.05458,-0.02909l0.06486,-0.04209l0.11597,-0.08865l0.11982,0.09162l0.04391,0.02947l0.05534,0.0301l0.06303,0.03325l0.07931,0.04259l0.05893,0.03331l0.0559,0.03401l0.05186,0.03464l0.03956,0.02934l0.04436,0.03691l0.03779,0.0359l0.0359,0.03931l0.03792,0.04909l0.03445,0.05414l0.03249,0.06392l0.02732,0.06953v1.52636h-1.63589zM24.49943,19.56007c0,0.47044 -0.38135,0.8518 -0.8518,0.8518c-0.47044,0 -0.8518,-0.38135 -0.8518,-0.8518c0,-0.47044 0.38135,-0.8518 0.8518,-0.8518c0.47044,0 0.8518,0.38135 0.8518,0.8518zM32.43007,32.38481l0.00757,-0.03117l0.01129,-0.03843l0.0101,-0.02852l0.01199,-0.02921l0.0183,-0.03735l0.01685,-0.0289l0.01842,-0.02719l0.01653,-0.02158l0.01868,-0.02189l0.02025,-0.02145l0.02303,-0.02221l0.02543,-0.02271l0.02473,-0.02095l0.02322,-0.01906l0.02549,-0.02057l0.02543,-0.02076l0.03029,-0.0301l0.05407,-0.06335l0.05597,0.06549l0.02051,0.02101l0.02581,0.02152l0.0294,0.02379l0.03704,0.03048l0.02751,0.02379l0.02606,0.02429l0.02423,0.0248l0.01842,0.02095l0.0207,0.02637l0.01767,0.02568l0.01672,0.02808l0.01773,0.03508l0.01609,0.03874l0.01514,0.04568l0.01275,0.04966v1.09099h-0.7634zM33.57208,32.38481l0.00757,-0.03117l0.01129,-0.03843l0.0101,-0.02852l0.01199,-0.02921l0.0183,-0.03735l0.01685,-0.0289l0.01842,-0.02719l0.01653,-0.02158l0.01868,-0.02189l0.02025,-0.02145l0.02303,-0.02221l0.02543,-0.02271l0.02473,-0.02095l0.02322,-0.01906l0.02549,-0.02057l0.02543,-0.02076l0.03029,-0.0301l0.05407,-0.06335l0.05597,0.06549l0.02051,0.02101l0.02581,0.02152l0.0294,0.02379l0.03704,0.03048l0.02751,0.02379l0.02606,0.02429l0.02423,0.0248l0.01842,0.02095l0.0207,0.02637l0.01767,0.02568l0.01672,0.02808l0.01773,0.03508l0.01609,0.03874l0.01514,0.04568l0.01275,0.04966v1.09099h-0.7634zM39.62199,32.38481l0.00757,-0.03117l0.01129,-0.03843l0.0101,-0.02852l0.01199,-0.02921l0.0183,-0.03735l0.01685,-0.0289l0.01842,-0.02719l0.01653,-0.02158l0.01868,-0.02189l0.02025,-0.02145l0.02303,-0.02221l0.02543,-0.02271l0.02473,-0.02095l0.02322,-0.01906l0.02549,-0.02057l0.02543,-0.02076l0.03029,-0.0301l0.05407,-0.06335l0.05597,0.06549l0.02044,0.02101l0.02587,0.02152l0.0294,0.02379l0.03704,0.03048l0.02751,0.02379l0.02606,0.02429l0.02423,0.0248l0.01842,0.02095l0.0207,0.02637l0.01767,0.02568l0.01672,0.02808l0.01773,0.03508l0.01603,0.03874l0.01521,0.04568l0.01275,0.04966v1.09099h-0.7634zM40.76399,32.38481l0.00757,-0.03117l0.01129,-0.03843l0.0101,-0.02852l0.01199,-0.02921l0.0183,-0.03735l0.01685,-0.0289l0.01842,-0.02719l0.01653,-0.02158l0.01868,-0.02189l0.02025,-0.02145l0.02303,-0.02221l0.02543,-0.02271l0.02473,-0.02095l0.02322,-0.01906l0.02549,-0.02057l0.02543,-0.02076l0.03029,-0.0301l0.05407,-0.06335l0.05597,0.06549l0.02044,0.02101l0.02587,0.02152l0.0294,0.02379l0.03704,0.03048l0.02751,0.02379l0.02606,0.02429l0.02423,0.0248l0.01842,0.02095l0.0207,0.02637l0.01767,0.02568l0.01672,0.02808l0.01773,0.03508l0.01609,0.03874l0.01514,0.04568l0.01275,0.04966v1.09099h-0.7634zM6.47261,32.38481l0.00757,-0.03117l0.01129,-0.03843l0.0101,-0.02852l0.01199,-0.02921l0.0183,-0.03735l0.01685,-0.0289l0.01842,-0.02719l0.01653,-0.02158l0.01868,-0.02189l0.02025,-0.02145l0.02303,-0.02221l0.02543,-0.02271l0.02473,-0.02095l0.02322,-0.01906l0.02549,-0.02057l0.02543,-0.02076l0.03029,-0.0301l0.05407,-0.06335l0.05597,0.06549l0.02051,0.02101l0.02581,0.02152l0.0294,0.02379l0.03704,0.03048l0.02751,0.02379l0.02606,0.02429l0.02423,0.0248l0.01842,0.02095l0.0207,0.02637l0.01767,0.02568l0.01672,0.02808l0.01773,0.03508l0.01609,0.03874l0.01514,0.04568l0.01275,0.04966v1.09099h-0.7634zM7.61461,32.38481l0.00757,-0.03117l0.01129,-0.03843l0.0101,-0.02852l0.01199,-0.02921l0.0183,-0.03735l0.01685,-0.0289l0.01842,-0.02719l0.01653,-0.02158l0.01868,-0.02189l0.02025,-0.02145l0.02303,-0.02221l0.02543,-0.02271l0.02473,-0.02095l0.02322,-0.01906l0.02549,-0.02057l0.02543,-0.02076l0.03029,-0.0301l0.05407,-0.06335l0.05597,0.06549l0.02051,0.02101l0.02581,0.02152l0.0294,0.02379l0.03704,0.03048l0.02751,0.02379l0.02606,0.02429l0.02423,0.0248l0.01842,0.02095l0.0207,0.02637l0.01767,0.02568l0.01672,0.02808l0.01773,0.03508l0.01609,0.03874l0.01514,0.04568l0.01275,0.04966v1.09099h-0.7634zM13.21757,32.38481l0.00757,-0.03117l0.01129,-0.03843l0.0101,-0.02852l0.01199,-0.02921l0.0183,-0.03735l0.01685,-0.0289l0.01842,-0.02719l0.01653,-0.02158l0.01868,-0.02189l0.02025,-0.02145l0.02303,-0.02221l0.02543,-0.02271l0.02473,-0.02095l0.02322,-0.01906l0.02549,-0.02057l0.02543,-0.02076l0.03029,-0.0301l0.05407,-0.06335l0.05597,0.06549l0.02051,0.02101l0.02581,0.02152l0.0294,0.02379l0.03704,0.03048l0.02751,0.02379l0.02606,0.02429l0.02423,0.0248l0.01842,0.02095l0.0207,0.02637l0.01767,0.02568l0.01672,0.02808l0.01773,0.03508l0.01609,0.03874l0.01514,0.04568l0.01275,0.04966v1.09099h-0.7634zM14.35958,32.38481l0.00757,-0.03117l0.01129,-0.03843l0.0101,-0.02852l0.01199,-0.02921l0.0183,-0.03735l0.01685,-0.0289l0.01842,-0.02719l0.01653,-0.02158l0.01868,-0.02189l0.02025,-0.02145l0.02303,-0.02221l0.02543,-0.02271l0.02473,-0.02095l0.02322,-0.01906l0.02549,-0.02057l0.02543,-0.02076l0.03029,-0.0301l0.05407,-0.06335l0.05597,0.06549l0.02051,0.02101l0.02581,0.02152l0.0294,0.02379l0.03704,0.03048l0.02751,0.02379l0.02606,0.02429l0.02423,0.0248l0.01842,0.02095l0.0207,0.02637l0.01767,0.02568l0.01672,0.02808l0.01773,0.03508l0.01609,0.03874l0.01514,0.04568l0.01275,0.04966v1.09099h-0.7634zM23.57141,12.1249h1.89963v0.94985h-1.81477v1.4061h-0.08114l0,-1.4061h-0.00372z" id="path12 1 1" fill="none" stroke-width="0"></path><g id="svg2 2" stroke-width="1"><g id="g10 1"><path d="M42.23995,31.70223h-35.77372v-5.43156h35.77372z" id="path12 1" fill="#c92f2f"></path><path d="M22.58034,27.21711h2.83932v-9.59061h-2.83932z" id="path14 1" fill="#c92f2f"></path><path d="M22.86427,17.6896h2.27146v-3.02861h-2.27146z" id="path16 1" fill="#c92f2f"></path><g id="g18 1" fill="#870707"><path d="M34.52271,23.77836h-1.48642l-0.6126,2.53564h2.62366" id="path20 1"></path></g><g id="g22 1" fill="#870707"><path d="M24.2999,11.25379h-0.64655l-0.50477,3.47029h1.70359" id="path24 1"></path></g><g id="g26 1" fill="#870707"><path d="M41.71462,23.77836h-1.48642l-0.6126,2.53564h2.62366" id="path28 1"></path></g><g id="g30 1" fill="#870707"><path d="M15.3102,23.77836h-1.48642l-0.6126,2.53564h2.62366" id="path32 1"></path></g><g id="g34 1" fill="#870707"><path d="M8.56524,23.77326h-1.48642l-0.6126,2.53564h2.62366" id="path36 1"></path></g><path d="M25.13573,14.8923h-2.27146v-0.25238h2.27146z" id="path38 1" fill="#870707"></path><path d="M25.41966,17.87889h-2.83932v-0.25238h2.83932z" id="path40 1" fill="#870707"></path><path d="M13.2112,31.70223h-4.12131v-5.39327h4.12131z" id="path42 1" fill="#a01515"></path><path d="M22.58034,31.70223h-6.74554v-5.38822h6.74554z" id="path44 1" fill="#a01515"></path><path d="M32.42371,31.70223h-7.00405v-5.43156h7.00405z" id="path46 1" fill="#a01515"></path><path d="M39.61559,31.70223h-4.56828v-5.38822h4.56828z" id="path48 1" fill="#a01515"></path><path d="M13.2112,27.78498h-4.12131v-1.47601h4.12131z" id="path50 1" fill="#870707"></path><path d="M22.58034,27.78498h-6.74554v-1.47096h6.74554z" id="path52 1" fill="#870707"></path><path d="M32.42371,27.78498h-7.00405v-1.51431h7.00405z" id="path54 1" fill="#870707"></path><path d="M39.61559,27.78498h-4.56828v-1.47096h4.56828z" id="path56 1" fill="#870707"></path><g id="g58 1" fill="#870707"><path d="M23.18243,31.68401h1.63589v-0.87129v-0.41025v-0.24481l-0.02732,-0.06953l-0.03249,-0.06392l-0.03445,-0.05414l-0.03792,-0.04909l-0.0359,-0.03931l-0.03779,-0.0359l-0.04436,-0.03691l-0.03956,-0.02934l-0.05186,-0.03464l-0.0559,-0.03401l-0.05893,-0.03331l-0.07931,-0.04259l-0.06303,-0.03325l-0.05534,-0.0301l-0.04391,-0.02947l-0.11982,-0.09162l-0.11597,0.08865l-0.06486,0.04209l-0.05458,0.02909l-0.05458,0.02883l-0.04978,0.02656l-0.053,0.02928l-0.05445,0.0318l-0.04934,0.03111l-0.04341,0.03003l-0.04,0.0306l-0.03546,0.03016l-0.0395,0.03805l-0.03615,0.04044l-0.03918,0.05224l-0.02568,0.04089l-0.02152,0.03994l-0.02423,0.05376l-0.01628,0.0436z" id="path60 1"></path></g><g id="g62 1" fill="#870707"><path d="M24.213,22.40279h0.81798v-0.43568v-0.20506v-0.12247l-0.01369,-0.0347l-0.01628,-0.03199l-0.01716,-0.02707l-0.01899,-0.02454l-0.01798,-0.01962l-0.01887,-0.01798l-0.02221,-0.01849l-0.01975,-0.01464l-0.02593,-0.01735l-0.02795,-0.01697l-0.02947,-0.01666l-0.03969,-0.02133l-0.03148,-0.01659l-0.0277,-0.01508l-0.02189,-0.0147l-0.05994,-0.04581l-0.05799,0.04436l-0.03243,0.02101l-0.02732,0.01451l-0.02726,0.01445l-0.02486,0.01331l-0.02656,0.01464l-0.02719,0.0159l-0.02467,0.01552l-0.02171,0.01502l-0.02,0.01527l-0.01773,0.01514l-0.01975,0.01899l-0.01805,0.02025l-0.01962,0.02612l-0.01281,0.02038l-0.01079,0.02l-0.01211,0.02688l-0.00814,0.02177z" id="path64 1"></path></g><path d="M25.03093,25.51352h-0.81798v-3.1107h0.81798z" id="path66 1" fill="#870707"></path><g id="g68 1" fill="#870707"><path d="M22.97211,22.40279h0.81798v-0.43568v-0.20506v-0.12247l-0.01369,-0.0347l-0.01622,-0.03199l-0.01723,-0.02707l-0.01899,-0.02454l-0.01798,-0.01962l-0.01887,-0.01798l-0.02221,-0.01849l-0.01975,-0.01464l-0.02593,-0.01735l-0.02795,-0.01697l-0.02947,-0.01666l-0.03969,-0.02133l-0.03148,-0.01659l-0.0277,-0.01508l-0.02189,-0.0147l-0.05994,-0.04581l-0.05799,0.04436l-0.03243,0.02101l-0.02732,0.01451l-0.02726,0.01445l-0.02486,0.01331l-0.02656,0.01464l-0.02719,0.0159l-0.02467,0.01552l-0.02171,0.01502l-0.02,0.01527l-0.01773,0.01514l-0.01975,0.01899l-0.01805,0.02025l-0.01962,0.02612l-0.01281,0.02038l-0.01079,0.02l-0.01211,0.02688l-0.00814,0.02177z" id="path70 1"></path></g><path d="M23.79008,25.51352h-0.81798v-3.1107h0.81798z" id="path72 1" fill="#870707"></path><g id="g74 1" fill="#870707"><path d="M23.01597,19.20141h0.29718v-0.31655v-0.1491v-0.08897l-0.00498,-0.02524l-0.00587,-0.02322l-0.00625,-0.01969l-0.00688,-0.01779l-0.00656,-0.01432l-0.00688,-0.013l-0.00801,-0.01344l-0.00719,-0.01066l-0.00946,-0.01262l-0.0101,-0.0123l-0.01073,-0.01211l-0.01445,-0.01552l-0.01142,-0.01205l-0.01003,-0.01092l-0.00801,-0.01073l-0.02177,-0.03325l-0.02107,0.03218l-0.01174,0.01527l-0.00997,0.0106l-0.00991,0.01047l-0.00902,0.00965l-0.00965,0.01066l-0.00991,0.01155l-0.00896,0.01129l-0.00789,0.01092l-0.00726,0.0111l-0.00644,0.01098l-0.00713,0.01382l-0.00663,0.0147l-0.00707,0.01899l-0.00467,0.01483l-0.00391,0.01451l-0.00442,0.0195l-0.00297,0.01584z" id="path76 1"></path></g><path d="M23.31314,20.97028h-0.29718v-1.7689h0.29718z" id="path78 1" fill="#870707"></path><g id="g80 1" fill="#870707"><path d="M23.57554,19.20141h0.29718v-0.31655v-0.1491v-0.08897l-0.00498,-0.02524l-0.00587,-0.02322l-0.00625,-0.01969l-0.00688,-0.01779l-0.00656,-0.01432l-0.00688,-0.013l-0.00801,-0.01344l-0.00719,-0.01066l-0.00946,-0.01262l-0.0101,-0.0123l-0.01073,-0.01211l-0.01445,-0.01552l-0.01142,-0.01205l-0.01003,-0.01092l-0.00801,-0.01073l-0.02177,-0.03325l-0.02107,0.03218l-0.01174,0.01527l-0.00997,0.0106l-0.00991,0.01047l-0.00902,0.00965l-0.00965,0.01066l-0.00991,0.01155l-0.00896,0.01129l-0.00789,0.01092l-0.00726,0.0111l-0.00644,0.01098l-0.00713,0.01382l-0.00663,0.0147l-0.00707,0.01899l-0.00467,0.01483l-0.00391,0.01451l-0.00442,0.0195l-0.00297,0.01584z" id="path82 1"></path></g><path d="M23.87274,20.93261h-0.29718v-1.73123h0.29718z" id="path84 1" fill="#870707"></path><g id="g86 1" fill="#870707"><path d="M24.13512,19.20141h0.29718v-0.31655v-0.1491v-0.08897l-0.00498,-0.02524l-0.00587,-0.02322l-0.00625,-0.01969l-0.00688,-0.01779l-0.00656,-0.01432l-0.00688,-0.013l-0.00801,-0.01344l-0.00719,-0.01066l-0.00946,-0.01262l-0.0101,-0.0123l-0.01073,-0.01211l-0.01445,-0.01552l-0.01142,-0.01205l-0.01003,-0.01092l-0.00801,-0.01073l-0.02177,-0.03325l-0.02107,0.03218l-0.01174,0.01527l-0.00997,0.0106l-0.00991,0.01047l-0.00902,0.00965l-0.00965,0.01066l-0.00991,0.01155l-0.00896,0.01129l-0.00789,0.01092l-0.00726,0.0111l-0.00644,0.01098l-0.00713,0.01382l-0.00663,0.0147l-0.00707,0.01899l-0.00467,0.01483l-0.00391,0.01451l-0.00442,0.0195l-0.00297,0.01584z" id="path88 1"></path></g><path d="M24.43233,20.93596h-0.29718v-1.73451h0.29718z" id="path90 1" fill="#870707"></path><g id="g92 1" fill="#870707"><path d="M24.71311,19.20141h0.29718v-0.31655v-0.1491v-0.08897l-0.00498,-0.02524l-0.00587,-0.02322l-0.00625,-0.01969l-0.00688,-0.01779l-0.00656,-0.01432l-0.00688,-0.013l-0.00801,-0.01344l-0.00719,-0.01066l-0.0094,-0.01262l-0.01016,-0.0123l-0.01073,-0.01211l-0.01445,-0.01552l-0.01142,-0.01205l-0.01003,-0.01092l-0.00801,-0.01073l-0.02177,-0.03325l-0.02107,0.03218l-0.01174,0.01527l-0.00997,0.0106l-0.00991,0.01047l-0.00902,0.00965l-0.00965,0.01066l-0.00991,0.01155l-0.00896,0.01129l-0.00789,0.01092l-0.00726,0.0111l-0.00644,0.01098l-0.00713,0.01382l-0.00663,0.0147l-0.00707,0.01899l-0.00467,0.01483l-0.00391,0.01451l-0.00442,0.0195l-0.00297,0.01584z" id="path94 1"></path></g><path d="M25.01029,20.97823h-0.29718v-1.77679h0.29718z" id="path96 1" fill="#870707"></path><g id="g98 1" fill="#a01515"><path d="M23.18243,28.14454h1.63589v-0.87129v-0.41025v-0.24481l-0.02732,-0.06953l-0.03249,-0.06392l-0.03445,-0.05414l-0.03792,-0.04909l-0.0359,-0.03931l-0.03779,-0.0359l-0.04436,-0.03691l-0.03956,-0.02934l-0.05186,-0.03464l-0.0559,-0.03401l-0.05893,-0.03331l-0.07931,-0.04259l-0.06303,-0.03325l-0.05534,-0.0301l-0.04391,-0.02947l-0.11982,-0.09162l-0.11597,0.08865l-0.06486,0.04209l-0.05458,0.02909l-0.05458,0.02883l-0.04978,0.02656l-0.053,0.02928l-0.05445,0.0318l-0.04934,0.03111l-0.04341,0.03003l-0.04,0.0306l-0.03546,0.03016l-0.0395,0.03805l-0.03615,0.04044l-0.03918,0.05224l-0.02568,0.04089l-0.02152,0.03994l-0.02423,0.05376l-0.01628,0.0436z" id="path100 1"></path></g><g id="g102 1"><g clip-path="url(#clip-1)" id="g104 1"><g id="g110 1" fill="#ffffff"><path d="M24.85218,16.33302c0,0.47044 -0.38135,0.8518 -0.8518,0.8518c-0.47044,0 -0.8518,-0.38135 -0.8518,-0.8518c0,-0.47044 0.38135,-0.8518 0.8518,-0.8518c0.47044,0 0.8518,0.38135 0.8518,0.8518" id="path112 1"></path></g><path d="M23.96845,16.33303h0.0631v-0.53632h-0.0631z" id="path114 1" fill="#000000"></path><g id="g116 1" fill="#000000"><path d="M23.94896,16.35921l0.05332,-0.03376l-0.37113,-0.58648l-0.05332,0.03376z" id="path118 1"></path></g><g id="g120 1" fill="#000000"><path d="M24.05033,16.34354c0,0.02757 -0.02234,0.04997 -0.04997,0.04997c-0.02757,0 -0.04991,-0.0224 -0.04991,-0.04997c0,-0.02757 0.02234,-0.04997 0.04991,-0.04997c0.02764,0 0.04997,0.0224 0.04997,0.04997" id="path122 1"></path></g><g id="g124 1" fill="#a01515"><path d="M32.78282,30.24875h0.7634v-0.62282v-0.29321v-0.17497l-0.01275,-0.04966l-0.01514,-0.04568l-0.01609,-0.03874l-0.01773,-0.03508l-0.01672,-0.02808l-0.01767,-0.02568l-0.0207,-0.02637l-0.01842,-0.02095l-0.02423,-0.0248l-0.02606,-0.02429l-0.02751,-0.02379l-0.03704,-0.03048l-0.0294,-0.02379l-0.02581,-0.02152l-0.02051,-0.02101l-0.05597,-0.06549l-0.05407,0.06335l-0.03029,0.0301l-0.02543,0.02076l-0.02549,0.02057l-0.02322,0.01906l-0.02473,0.02095l-0.02543,0.02271l-0.02303,0.02221l-0.02025,0.02145l-0.01868,0.02189l-0.01653,0.02158l-0.01842,0.02719l-0.01685,0.0289l-0.0183,0.03735l-0.01199,0.02921l-0.0101,0.02852l-0.01129,0.03843l-0.00757,0.03117z" id="path126 1"></path></g><g id="g128 1" fill="#a01515"><path d="M33.92482,30.24875h0.7634v-0.62282v-0.29321v-0.17497l-0.01275,-0.04966l-0.01514,-0.04568l-0.01609,-0.03874l-0.01773,-0.03508l-0.01672,-0.02808l-0.01767,-0.02568l-0.0207,-0.02637l-0.01842,-0.02095l-0.02423,-0.0248l-0.02606,-0.02429l-0.02751,-0.02379l-0.03704,-0.03048l-0.0294,-0.02379l-0.02581,-0.02152l-0.02051,-0.02101l-0.05597,-0.06549l-0.05407,0.06335l-0.03029,0.0301l-0.02543,0.02076l-0.02549,0.02057l-0.02322,0.01906l-0.02473,0.02095l-0.02543,0.02271l-0.02303,0.02221l-0.02025,0.02145l-0.01868,0.02189l-0.01653,0.02158l-0.01842,0.02719l-0.01685,0.0289l-0.0183,0.03735l-0.01199,0.02921l-0.0101,0.02852l-0.01129,0.03843l-0.00757,0.03117z" id="path130 1"></path></g><g id="g132 1" fill="#a01515"><path d="M39.97473,30.24875h0.7634v-0.62282v-0.29321v-0.17497l-0.01275,-0.04966l-0.01521,-0.04568l-0.01603,-0.03874l-0.01773,-0.03508l-0.01672,-0.02808l-0.01767,-0.02568l-0.0207,-0.02637l-0.01842,-0.02095l-0.02423,-0.0248l-0.02606,-0.02429l-0.02751,-0.02379l-0.03704,-0.03048l-0.0294,-0.02379l-0.02587,-0.02152l-0.02044,-0.02101l-0.05597,-0.06549l-0.05407,0.06335l-0.03029,0.0301l-0.02543,0.02076l-0.02549,0.02057l-0.02322,0.01906l-0.02473,0.02095l-0.02543,0.02271l-0.02303,0.02221l-0.02025,0.02145l-0.01868,0.02189l-0.01653,0.02158l-0.01842,0.02719l-0.01685,0.0289l-0.0183,0.03735l-0.01199,0.02921l-0.0101,0.02852l-0.01129,0.03843l-0.00757,0.03117z" id="path134 1"></path></g><g id="g136 1" fill="#a01515"><path d="M41.11673,30.24875h0.7634v-0.62282v-0.29321v-0.17497l-0.01275,-0.04966l-0.01514,-0.04568l-0.01609,-0.03874l-0.01773,-0.03508l-0.01672,-0.02808l-0.01767,-0.02568l-0.0207,-0.02637l-0.01842,-0.02095l-0.02423,-0.0248l-0.02606,-0.02429l-0.02751,-0.02379l-0.03704,-0.03048l-0.0294,-0.02379l-0.02587,-0.02152l-0.02044,-0.02101l-0.05597,-0.06549l-0.05407,0.06335l-0.03029,0.0301l-0.02543,0.02076l-0.02549,0.02057l-0.02322,0.01906l-0.02473,0.02095l-0.02543,0.02271l-0.02303,0.02221l-0.02025,0.02145l-0.01868,0.02189l-0.01653,0.02158l-0.01842,0.02719l-0.01685,0.0289l-0.0183,0.03735l-0.01199,0.02921l-0.0101,0.02852l-0.01129,0.03843l-0.00757,0.03117z" id="path138 1"></path></g><g id="g140 1" fill="#870707"><path d="M26.10782,30.24875h0.7634v-0.62282v-0.29321v-0.17497l-0.01275,-0.04966l-0.01514,-0.04568l-0.01609,-0.03874l-0.01773,-0.03508l-0.01672,-0.02808l-0.01767,-0.02568l-0.0207,-0.02637l-0.01842,-0.02095l-0.02423,-0.0248l-0.02606,-0.02429l-0.02751,-0.02379l-0.03704,-0.03048l-0.0294,-0.02379l-0.02587,-0.02152l-0.02044,-0.02101l-0.05597,-0.06549l-0.05407,0.06335l-0.03029,0.0301l-0.02543,0.02076l-0.02549,0.02057l-0.02322,0.01906l-0.02473,0.02095l-0.02543,0.02271l-0.02303,0.02221l-0.02025,0.02145l-0.01868,0.02189l-0.01653,0.02158l-0.01842,0.02719l-0.01685,0.0289l-0.0183,0.03735l-0.01199,0.02921l-0.0101,0.02852l-0.01129,0.03843l-0.00757,0.03117z" id="path142 1"></path></g><g id="g144 1" fill="#870707"><path d="M27.24983,30.24875h0.7634v-0.62282v-0.29321v-0.17497l-0.01275,-0.04966l-0.01514,-0.04568l-0.01609,-0.03874l-0.01773,-0.03508l-0.01672,-0.02808l-0.01767,-0.02568l-0.0207,-0.02637l-0.01842,-0.02095l-0.02423,-0.0248l-0.02606,-0.02429l-0.02751,-0.02379l-0.03704,-0.03048l-0.0294,-0.02379l-0.02587,-0.02152l-0.02044,-0.02101l-0.05597,-0.06549l-0.05407,0.06335l-0.03029,0.0301l-0.02543,0.02076l-0.02549,0.02057l-0.02322,0.01906l-0.02473,0.02095l-0.02543,0.02271l-0.02303,0.02221l-0.02025,0.02145l-0.01868,0.02189l-0.01653,0.02158l-0.01842,0.02719l-0.01685,0.0289l-0.0183,0.03735l-0.01199,0.02921l-0.0101,0.02852l-0.01129,0.03843l-0.00757,0.03117z" id="path146 1"></path></g><g id="g148 1" fill="#870707"><path d="M29.65982,30.24875h0.7634v-0.62282v-0.29321v-0.17497l-0.01275,-0.04966l-0.01514,-0.04568l-0.01609,-0.03874l-0.01773,-0.03508l-0.01672,-0.02808l-0.01767,-0.02568l-0.0207,-0.02637l-0.01842,-0.02095l-0.02423,-0.0248l-0.02606,-0.02429l-0.02751,-0.02379l-0.03704,-0.03048l-0.0294,-0.02379l-0.02587,-0.02152l-0.02044,-0.02101l-0.05597,-0.06549l-0.05407,0.06335l-0.03029,0.0301l-0.02543,0.02076l-0.02549,0.02057l-0.02322,0.01906l-0.02473,0.02095l-0.02543,0.02271l-0.02303,0.02221l-0.02025,0.02145l-0.01868,0.02189l-0.01653,0.02158l-0.01842,0.02719l-0.01685,0.0289l-0.0183,0.03735l-0.01199,0.02921l-0.0101,0.02852l-0.01129,0.03843l-0.00757,0.03117z" id="path150 1"></path></g><g id="g152 1" fill="#870707"><path d="M30.86492,30.24875h0.7634v-0.62282v-0.29321v-0.17497l-0.01275,-0.04966l-0.01514,-0.04568l-0.01609,-0.03874l-0.01773,-0.03508l-0.01672,-0.02808l-0.01767,-0.02568l-0.0207,-0.02637l-0.01842,-0.02095l-0.02423,-0.0248l-0.02606,-0.02429l-0.02751,-0.02379l-0.03704,-0.03048l-0.0294,-0.02379l-0.02581,-0.02152l-0.02051,-0.02101l-0.05597,-0.06549l-0.05407,0.06335l-0.03029,0.0301l-0.02543,0.02076l-0.02549,0.02057l-0.02322,0.01906l-0.02473,0.02095l-0.02543,0.02271l-0.02303,0.02221l-0.02025,0.02145l-0.01868,0.02189l-0.01653,0.02158l-0.01842,0.02719l-0.01685,0.0289l-0.0183,0.03735l-0.01199,0.02921l-0.0101,0.02852l-0.01129,0.03843l-0.00757,0.03117z" id="path154 1"></path></g><g id="g156 1" fill="#870707"><path d="M28.47377,30.24875h0.7634v-0.62282v-0.29321v-0.17497l-0.01275,-0.04966l-0.01514,-0.04568l-0.01609,-0.03874l-0.01773,-0.03508l-0.01672,-0.02808l-0.01767,-0.02568l-0.0207,-0.02637l-0.01842,-0.02095l-0.02423,-0.0248l-0.02606,-0.02429l-0.02751,-0.02379l-0.03704,-0.03048l-0.0294,-0.02379l-0.02587,-0.02152l-0.02044,-0.02101l-0.05597,-0.06549l-0.05407,0.06335l-0.03029,0.0301l-0.02543,0.02076l-0.02549,0.02057l-0.02322,0.01906l-0.02473,0.02095l-0.02543,0.02271l-0.02303,0.02221l-0.02025,0.02145l-0.01868,0.02189l-0.01653,0.02158l-0.01842,0.02719l-0.01685,0.0289l-0.0183,0.03735l-0.01199,0.02921l-0.0101,0.02852l-0.01129,0.03843l-0.00757,0.03117z" id="path158 1"></path></g><g id="g160 1" fill="#870707"><path d="M35.82479,30.24875h0.7634v-0.62282v-0.29321v-0.17497l-0.01275,-0.04966l-0.01514,-0.04568l-0.01609,-0.03874l-0.01773,-0.03508l-0.01672,-0.02808l-0.01767,-0.02568l-0.0207,-0.02637l-0.01842,-0.02095l-0.02423,-0.0248l-0.02606,-0.02429l-0.02751,-0.02379l-0.03704,-0.03048l-0.0294,-0.02379l-0.02581,-0.02152l-0.02051,-0.02101l-0.05597,-0.06549l-0.05407,0.06335l-0.03029,0.0301l-0.02543,0.02076l-0.02549,0.02057l-0.02322,0.01906l-0.02473,0.02095l-0.02543,0.02271l-0.02303,0.02221l-0.02025,0.02145l-0.01868,0.02189l-0.01653,0.02158l-0.01842,0.02719l-0.01685,0.0289l-0.0183,0.03735l-0.01199,0.02921l-0.0101,0.02852l-0.01129,0.03843l-0.00757,0.03117z" id="path162 1"></path></g><g id="g164 1" fill="#870707"><path d="M36.9668,30.24875h0.7634v-0.62282v-0.29321v-0.17497l-0.01275,-0.04966l-0.01521,-0.04568l-0.01603,-0.03874l-0.01773,-0.03508l-0.01672,-0.02808l-0.01767,-0.02568l-0.0207,-0.02637l-0.01842,-0.02095l-0.02423,-0.0248l-0.02606,-0.02429l-0.02751,-0.02379l-0.03704,-0.03048l-0.0294,-0.02379l-0.02587,-0.02152l-0.02044,-0.02101l-0.05597,-0.06549l-0.05407,0.06335l-0.03029,0.0301l-0.02543,0.02076l-0.02549,0.02057l-0.02322,0.01906l-0.02473,0.02095l-0.02543,0.02271l-0.02303,0.02221l-0.02025,0.02145l-0.01868,0.02189l-0.01653,0.02158l-0.01842,0.02719l-0.01685,0.0289l-0.0183,0.03735l-0.01199,0.02921l-0.0101,0.02852l-0.01129,0.03843l-0.00757,0.03117z" id="path166 1"></path></g><g id="g168 1" fill="#870707"><path d="M38.07476,30.24875h0.7634v-0.62282v-0.29321v-0.17497l-0.01275,-0.04966l-0.01514,-0.04568l-0.01609,-0.03874l-0.01773,-0.03508l-0.01672,-0.02808l-0.01767,-0.02568l-0.0207,-0.02637l-0.01842,-0.02095l-0.02423,-0.0248l-0.02606,-0.02429l-0.02751,-0.02379l-0.03704,-0.03048l-0.0294,-0.02379l-0.02587,-0.02152l-0.02044,-0.02101l-0.05597,-0.06549l-0.05407,0.06335l-0.03029,0.0301l-0.02543,0.02076l-0.02549,0.02057l-0.02322,0.01906l-0.02473,0.02095l-0.02543,0.02271l-0.02303,0.02221l-0.02025,0.02145l-0.01868,0.02189l-0.01653,0.02158l-0.01842,0.02719l-0.01685,0.0289l-0.0183,0.03735l-0.01199,0.02921l-0.0101,0.02852l-0.01129,0.03843l-0.00757,0.03117z" id="path170 1"></path></g><g id="g172 1" fill="#a01515"><path d="M6.82536,30.24875h0.7634v-0.62282v-0.29321v-0.17497l-0.01275,-0.04966l-0.01514,-0.04568l-0.01609,-0.03874l-0.01773,-0.03508l-0.01672,-0.02808l-0.01767,-0.02568l-0.0207,-0.02637l-0.01842,-0.02095l-0.02423,-0.0248l-0.02606,-0.02429l-0.02751,-0.02379l-0.03704,-0.03048l-0.0294,-0.02379l-0.02581,-0.02152l-0.02051,-0.02101l-0.05597,-0.06549l-0.05407,0.06335l-0.03029,0.0301l-0.02543,0.02076l-0.02549,0.02057l-0.02322,0.01906l-0.02473,0.02095l-0.02543,0.02271l-0.02303,0.02221l-0.02025,0.02145l-0.01868,0.02189l-0.01653,0.02158l-0.01842,0.02719l-0.01685,0.0289l-0.0183,0.03735l-0.01199,0.02921l-0.0101,0.02852l-0.01129,0.03843l-0.00757,0.03117z" id="path174 1"></path></g><g id="g176 1" fill="#a01515"><path d="M7.96736,30.24875h0.7634v-0.62282v-0.29321v-0.17497l-0.01275,-0.04966l-0.01514,-0.04568l-0.01609,-0.03874l-0.01773,-0.03508l-0.01672,-0.02808l-0.01767,-0.02568l-0.0207,-0.02637l-0.01842,-0.02095l-0.02423,-0.0248l-0.02606,-0.02429l-0.02751,-0.02379l-0.03704,-0.03048l-0.0294,-0.02379l-0.02581,-0.02152l-0.02051,-0.02101l-0.05597,-0.06549l-0.05407,0.06335l-0.03029,0.0301l-0.02543,0.02076l-0.02549,0.02057l-0.02322,0.01906l-0.02473,0.02095l-0.02543,0.02271l-0.02303,0.02221l-0.02025,0.02145l-0.01868,0.02189l-0.01653,0.02158l-0.01842,0.02719l-0.01685,0.0289l-0.0183,0.03735l-0.01199,0.02921l-0.0101,0.02852l-0.01129,0.03843l-0.00757,0.03117z" id="path178 1"></path></g><g id="g180 1" fill="#a01515"><path d="M13.57032,30.24875h0.7634v-0.62282v-0.29321v-0.17497l-0.01275,-0.04966l-0.01514,-0.04568l-0.01609,-0.03874l-0.01773,-0.03508l-0.01672,-0.02808l-0.01767,-0.02568l-0.0207,-0.02637l-0.01842,-0.02095l-0.02423,-0.0248l-0.02606,-0.02429l-0.02751,-0.02379l-0.03704,-0.03048l-0.0294,-0.02379l-0.02581,-0.02152l-0.02051,-0.02101l-0.05597,-0.06549l-0.05407,0.06335l-0.03029,0.0301l-0.02543,0.02076l-0.02549,0.02057l-0.02322,0.01906l-0.02473,0.02095l-0.02543,0.02271l-0.02303,0.02221l-0.02025,0.02145l-0.01868,0.02189l-0.01653,0.02158l-0.01842,0.02719l-0.01685,0.0289l-0.0183,0.03735l-0.01199,0.02921l-0.0101,0.02852l-0.01129,0.03843l-0.00757,0.03117z" id="path182 1"></path></g><g id="g184 1" fill="#a01515"><path d="M14.71232,30.24875h0.7634v-0.62282v-0.29321v-0.17497l-0.01275,-0.04966l-0.01514,-0.04568l-0.01609,-0.03874l-0.01773,-0.03508l-0.01672,-0.02808l-0.01767,-0.02568l-0.0207,-0.02637l-0.01842,-0.02095l-0.02423,-0.0248l-0.02606,-0.02429l-0.02751,-0.02379l-0.03704,-0.03048l-0.0294,-0.02379l-0.02581,-0.02152l-0.02051,-0.02101l-0.05597,-0.06549l-0.05407,0.06335l-0.03029,0.0301l-0.02543,0.02076l-0.02549,0.02057l-0.02322,0.01906l-0.02473,0.02095l-0.02543,0.02271l-0.02303,0.02221l-0.02025,0.02145l-0.01868,0.02189l-0.01653,0.02158l-0.01842,0.02719l-0.01685,0.0289l-0.0183,0.03735l-0.01199,0.02921l-0.0101,0.02852l-0.01129,0.03843l-0.00757,0.03117z" id="path186 1"></path></g><g id="g188 1" fill="#870707"><path d="M9.62997,30.24875h0.7634v-0.62282v-0.29321v-0.17497l-0.01275,-0.04966l-0.01514,-0.04568l-0.01609,-0.03874l-0.01773,-0.03508l-0.01672,-0.02808l-0.01767,-0.02568l-0.0207,-0.02637l-0.01842,-0.02095l-0.02423,-0.0248l-0.02606,-0.02429l-0.02751,-0.02379l-0.03704,-0.03048l-0.0294,-0.02379l-0.02587,-0.02152l-0.02044,-0.02101l-0.05597,-0.06549l-0.05407,0.06335l-0.03029,0.0301l-0.02543,0.02076l-0.02549,0.02057l-0.02322,0.01906l-0.02473,0.02095l-0.02543,0.02271l-0.02303,0.02221l-0.02025,0.02145l-0.01868,0.02189l-0.01653,0.02158l-0.01842,0.02719l-0.01685,0.0289l-0.0183,0.03735l-0.01199,0.02921l-0.0101,0.02852l-0.01129,0.03843l-0.00757,0.03117z" id="path190 1"></path></g><g id="g192 1" fill="#870707"><path d="M10.77198,30.24875h0.7634v-0.62282v-0.29321v-0.17497l-0.01275,-0.04966l-0.01514,-0.04568l-0.01609,-0.03874l-0.01773,-0.03508l-0.01672,-0.02808l-0.01767,-0.02568l-0.0207,-0.02637l-0.01842,-0.02095l-0.02423,-0.0248l-0.02606,-0.02429l-0.02751,-0.02379l-0.03704,-0.03048l-0.0294,-0.02379l-0.02581,-0.02152l-0.02051,-0.02101l-0.05597,-0.06549l-0.05407,0.06335l-0.03029,0.0301l-0.02543,0.02076l-0.02549,0.02057l-0.02322,0.01906l-0.02473,0.02095l-0.02543,0.02271l-0.02303,0.02221l-0.02025,0.02145l-0.01868,0.02189l-0.01653,0.02158l-0.01842,0.02719l-0.01685,0.0289l-0.0183,0.03735l-0.01199,0.02921l-0.0101,0.02852l-0.01129,0.03843l-0.00757,0.03117z" id="path194 1"></path></g><g id="g196 1" fill="#870707"><path d="M11.87995,30.24875h0.7634v-0.62282v-0.29321v-0.17497l-0.01275,-0.04966l-0.01514,-0.04568l-0.01609,-0.03874l-0.01773,-0.03508l-0.01672,-0.02808l-0.01767,-0.02568l-0.0207,-0.02637l-0.01842,-0.02095l-0.02423,-0.0248l-0.02606,-0.02429l-0.02751,-0.02379l-0.03704,-0.03048l-0.0294,-0.02379l-0.02581,-0.02152l-0.02051,-0.02101l-0.05597,-0.06549l-0.05407,0.06335l-0.03029,0.0301l-0.02543,0.02076l-0.02549,0.02057l-0.02322,0.01906l-0.02473,0.02095l-0.02543,0.02271l-0.02303,0.02221l-0.02025,0.02145l-0.01868,0.02189l-0.01653,0.02158l-0.01842,0.02719l-0.01685,0.0289l-0.0183,0.03735l-0.01199,0.02921l-0.0101,0.02852l-0.01129,0.03843l-0.00757,0.03117z" id="path198 1"></path></g><g id="g200 1" fill="#870707"><path d="M16.44734,30.24875h0.7634v-0.62282v-0.29321v-0.17497l-0.01275,-0.04966l-0.01514,-0.04568l-0.01609,-0.03874l-0.01773,-0.03508l-0.01672,-0.02808l-0.01767,-0.02568l-0.0207,-0.02637l-0.01842,-0.02095l-0.02423,-0.0248l-0.02606,-0.02429l-0.02751,-0.02379l-0.03704,-0.03048l-0.0294,-0.02379l-0.02581,-0.02152l-0.02051,-0.02101l-0.05597,-0.06549l-0.05407,0.06335l-0.03029,0.0301l-0.02543,0.02076l-0.02549,0.02057l-0.02322,0.01906l-0.02473,0.02095l-0.02543,0.02271l-0.02303,0.02221l-0.02025,0.02145l-0.01868,0.02189l-0.01653,0.02158l-0.01842,0.02719l-0.01685,0.0289l-0.0183,0.03735l-0.01199,0.02921l-0.0101,0.02852l-0.01129,0.03843l-0.00757,0.03117z" id="path202 1"></path></g><g id="g204 1" fill="#870707"><path d="M17.58934,30.24875h0.7634v-0.62282v-0.29321v-0.17497l-0.01275,-0.04966l-0.01514,-0.04568l-0.01609,-0.03874l-0.01773,-0.03508l-0.01672,-0.02808l-0.01767,-0.02568l-0.0207,-0.02637l-0.01842,-0.02095l-0.02423,-0.0248l-0.02606,-0.02429l-0.02751,-0.02379l-0.03704,-0.03048l-0.0294,-0.02379l-0.02581,-0.02152l-0.02051,-0.02101l-0.05597,-0.06549l-0.05407,0.06335l-0.03029,0.0301l-0.02543,0.02076l-0.02549,0.02057l-0.02322,0.01906l-0.02473,0.02095l-0.02543,0.02271l-0.02303,0.02221l-0.02025,0.02145l-0.01868,0.02189l-0.01653,0.02158l-0.01842,0.02719l-0.01685,0.0289l-0.0183,0.03735l-0.01199,0.02921l-0.0101,0.02852l-0.01129,0.03843l-0.00757,0.03117z" id="path206 1"></path></g><g id="g208 1" fill="#870707"><path d="M19.99934,30.24875h0.7634v-0.62282v-0.29321v-0.17497l-0.01275,-0.04966l-0.01514,-0.04568l-0.01609,-0.03874l-0.01773,-0.03508l-0.01672,-0.02808l-0.01767,-0.02568l-0.0207,-0.02637l-0.01842,-0.02095l-0.02423,-0.0248l-0.02606,-0.02429l-0.02751,-0.02379l-0.03704,-0.03048l-0.0294,-0.02379l-0.02587,-0.02152l-0.02044,-0.02101l-0.05597,-0.06549l-0.05407,0.06335l-0.03029,0.0301l-0.02543,0.02076l-0.02549,0.02057l-0.02322,0.01906l-0.02473,0.02095l-0.02543,0.02271l-0.02303,0.02221l-0.02025,0.02145l-0.01868,0.02189l-0.01653,0.02158l-0.01842,0.02719l-0.01685,0.0289l-0.0183,0.03735l-0.01199,0.02921l-0.0101,0.02852l-0.01129,0.03843l-0.00757,0.03117z" id="path210 1"></path></g><g id="g212 1" fill="#870707"><path d="M21.20444,30.24875h0.7634v-0.62282v-0.29321v-0.17497l-0.01275,-0.04966l-0.01514,-0.04568l-0.01609,-0.03874l-0.01773,-0.03508l-0.01672,-0.02808l-0.01767,-0.02568l-0.0207,-0.02637l-0.01842,-0.02095l-0.02423,-0.0248l-0.02606,-0.02429l-0.02751,-0.02379l-0.03704,-0.03048l-0.0294,-0.02379l-0.02581,-0.02152l-0.02051,-0.02101l-0.05597,-0.06549l-0.05407,0.06335l-0.03029,0.0301l-0.02543,0.02076l-0.02549,0.02057l-0.02322,0.01906l-0.02473,0.02095l-0.02543,0.02271l-0.02303,0.02221l-0.02025,0.02145l-0.01868,0.02189l-0.01653,0.02158l-0.01842,0.02719l-0.01685,0.0289l-0.0183,0.03735l-0.01199,0.02921l-0.0101,0.02852l-0.01129,0.03843l-0.00757,0.03117z" id="path214 1"></path></g><g id="g216 1" fill="#870707"><path d="M18.81329,30.24875h0.7634v-0.62282v-0.29321v-0.17497l-0.01275,-0.04966l-0.01514,-0.04568l-0.01609,-0.03874l-0.01773,-0.03508l-0.01672,-0.02808l-0.01767,-0.02568l-0.0207,-0.02637l-0.01842,-0.02095l-0.02423,-0.0248l-0.02606,-0.02429l-0.02751,-0.02379l-0.03704,-0.03048l-0.0294,-0.02379l-0.02581,-0.02152l-0.02051,-0.02101l-0.05597,-0.06549l-0.05407,0.06335l-0.03029,0.0301l-0.02543,0.02076l-0.02549,0.02057l-0.02322,0.01906l-0.02473,0.02095l-0.02543,0.02271l-0.02303,0.02221l-0.02025,0.02145l-0.01868,0.02189l-0.01653,0.02158l-0.01842,0.02719l-0.01685,0.0289l-0.0183,0.03735l-0.01199,0.02921l-0.0101,0.02852l-0.01129,0.03843l-0.00757,0.03117z" id="path218 1"></path></g><path d="M23.92416,8.89785h1.89963v0.94985h-1.89963z" id="path220 1" fill="#c92f2f"></path><path d="M24.39902,8.89785h0.94985v0.94985h-0.94985z" id="path222 1" fill="#ffffff"></path><g id="g224 1" fill="#c92f2f"><path d="M24.87394,8.98691l-0.0648,0.12089c-0.00738,0.01312 -0.02051,0.01186 -0.03369,0.00454l-0.04694,-0.02429l0.03496,0.18563c0.00738,0.03395 -0.01622,0.03395 -0.02783,0.01931l-0.0819,-0.09168l-0.01331,0.04656c-0.00151,0.00606 -0.00827,0.01249 -0.01836,0.01098l-0.10354,-0.02177l0.02719,0.09887c0.0058,0.02202 0.01035,0.03111 -0.00587,0.03691l-0.03691,0.01735l0.17825,0.14474c0.007,0.00549 0.0106,0.01533 0.00808,0.02423l-0.01558,0.05123c0.06133,-0.00707 0.11635,-0.01773 0.17774,-0.02429c0.00543,-0.00057 0.01451,0.00839 0.01445,0.01464l-0.00814,0.18752h0.02984l-0.00467,-0.18708c-0.00006,-0.00631 0.0082,-0.01565 0.01357,-0.01508c0.06146,0.00656 0.11641,0.01723 0.1778,0.02429l-0.01565,-0.05123c-0.00246,-0.0089 0.00107,-0.01874 0.00814,-0.02423l0.17825,-0.14474l-0.03691,-0.01735c-0.01628,-0.0058 -0.01174,-0.01489 -0.00587,-0.03691l0.02719,-0.09887l-0.10354,0.02177c-0.01016,0.00151 -0.01685,-0.00492 -0.01842,-0.01098l-0.01325,-0.04656l-0.0819,0.09168c-0.01167,0.01464 -0.03527,0.01464 -0.02789,-0.01931l0.03496,-0.18563l-0.04688,0.02429c-0.01319,0.00732 -0.02637,0.00858 -0.03369,-0.00454" id="path226 1"></path></g><path d="M24.00902,8.93502h-0.08114v2.31878h0.08114z" id="path228 1" fill="#a01515"></path></g></g></g></g><path d="M2,24c0,-12.15026 9.84974,-22 22,-22c12.15026,0 22,9.84974 22,22c0,12.15026 -9.84974,22 -22,22c-12.15026,0 -22,-9.84974 -22,-22z" id="base 1 1 1" fill="none" stroke-width="1"></path><g id="svg2 1 1" fill="#000000" stroke-width="1" font-family="Roboto, sans-serif" font-weight="400" font-size="14" text-anchor="start"><g id="g10 1 1"><g id="g18 1 1"></g><g id="g22 1 1"></g><g id="g26 1 1"></g><g id="g30 1 1"></g><g id="g34 1 1"></g><g id="g58 1 1"></g><g id="g62 1 1"></g><g id="g68 1 1"></g><g id="g74 1 1"></g><g id="g80 1 1"></g><g id="g86 1 1"></g><g id="g92 1 1"></g><g id="g98 1 1"></g><g id="g102 1 1"><g id="g104 1 1"><g id="g110 1 1"></g><g id="g116 1 1"></g><g id="g120 1 1"></g><g id="g124 1 1"></g><g id="g128 1 1"></g><g id="g132 1 1"></g><g id="g136 1 1"></g><g id="g140 1 1"></g><g id="g144 1 1"></g><g id="g148 1 1"></g><g id="g152 1 1"></g><g id="g156 1 1"></g><g id="g160 1 1"></g><g id="g164 1 1"></g><g id="g168 1 1"></g><g id="g172 1 1"></g><g id="g176 1 1"></g><g id="g180 1 1"></g><g id="g184 1 1"></g><g id="g188 1 1"></g><g id="g192 1 1"></g><g id="g196 1 1"></g><g id="g200 1 1"></g><g id="g204 1 1"></g><g id="g208 1 1"></g><g id="g212 1 1"></g><g id="g216 1 1"></g><g id="g224 1 1"></g></g></g></g></g><rect x="2" y="2" width="44" height="22" fill="none" stroke-width="1"></rect><path d="M2,24v-22h44v22z" fill="none" stroke-width="1"></path><path d="M2,24v-22h44v22z" fill="none" stroke-width="1"></path><path d="M2,24v-22h44v22z" fill="none" stroke-width="1"></path><path d="M2,24v-22h44v22z" fill="none" stroke-width="1"></path></g></g></svg>