<svg width="320.31732" height="466.71332" xmlns="http://www.w3.org/2000/svg">
 <metadata id="metadata8">image/svg+xml</metadata>
 <defs>
  <clipPath clipPathUnits="userSpaceOnUse" id="clipPath108">
   <path d="m-171.655396,326.323865l648.988,0l0,-485.035l-648.988,0l0,485.035z" id="path106"/>
  </clipPath>
 </defs>
 <g>
  <title>background</title>
  <rect fill="none" id="canvas_background" height="468.71332" width="322.31732" y="-1" x="-1"/>
 </g>
 <g>
  <title>Layer 1</title>
  <g id="g10" transform="matrix(1.5479437123186588,0,0,-1.5479437123186588,-81.46096149261575,628.7828437549929) ">
   <path fill="#c92f2f" fill-rule="nonzero" d="m441.920604,-45.760135l-566.972,0l0,86.084l566.972,0l0,-86.084z" id="path12"/>
   <path fill="#c92f2f" fill-rule="nonzero" d="m130.338604,25.323865l45,0l0,152l-45,0l0,-152z" id="path14"/>
   <path fill="#c92f2f" fill-rule="nonzero" d="m134.838604,176.323865l36,0l0,48l-36,0l0,-48z" id="path16"/>
   <g id="g18">
    <path fill="#870707" fill-rule="nonzero" d="m319.611297,79.824067l-23.558,0l-9.709,-40.187l41.582,0" id="path20"/>
   </g>
   <g id="g22">
    <path fill="#870707" fill-rule="nonzero" d="m157.591613,278.324052l-10.247,0l-8,-55l27,0" id="path24"/>
   </g>
   <g id="g26">
    <path fill="#870707" fill-rule="nonzero" d="m433.594787,79.824067l-23.558,0l-9.709,-40.187l41.582,0" id="path28"/>
   </g>
   <g id="g30">
    <path fill="#870707" fill-rule="nonzero" d="m15.115402,79.824067l-23.558,0l-9.709,-40.187l41.582,0" id="path32"/>
   </g>
   <g id="g34">
    <path fill="#870707" fill-rule="nonzero" d="m-91.784394,79.904862l-23.558,0l-9.709,-40.187l41.582,0" id="path36"/>
   </g>
   <path fill="#870707" fill-rule="nonzero" d="m170.838604,220.657865l-36,0l0,4l36,0l0,-4z" id="path38"/>
   <path fill="#870707" fill-rule="nonzero" d="m175.338604,173.323865l-45,0l0,4l45,0l0,-4z" id="path40"/>
   <path fill="#a01515" fill-rule="nonzero" d="m-18.151396,-45.760135l-65.318,0l0,85.477l65.318,0l0,-85.477z" id="path42"/>
   <path fill="#a01515" fill-rule="nonzero" d="m130.338604,-45.760135l-106.909,0l0,85.397l106.909,0l0,-85.397z" id="path44"/>
   <path fill="#a01515" fill-rule="nonzero" d="m286.344604,-45.760135l-111.006,0l0,86.084l111.006,0l0,-86.084z" id="path46"/>
   <path fill="#a01515" fill-rule="nonzero" d="m400.327604,-45.760135l-72.402,0l0,85.397l72.402,0l0,-85.397z" id="path48"/>
   <path fill="#870707" fill-rule="nonzero" d="m-18.151396,16.323865l-65.318,0l0,23.393l65.318,0l0,-23.393z" id="path50"/>
   <path fill="#870707" fill-rule="nonzero" d="m130.338604,16.323865l-106.909,0l0,23.313l106.909,0l0,-23.313z" id="path52"/>
   <path fill="#870707" fill-rule="nonzero" d="m286.344604,16.323865l-111.006,0l0,24l111.006,0l0,-24z" id="path54"/>
   <path fill="#870707" fill-rule="nonzero" d="m400.327604,16.323865l-72.402,0l0,23.313l72.402,0l0,-23.313z" id="path56"/>
   <g id="g58">
    <path fill="#870707" fill-rule="nonzero" d="m139.881103,-45.471236l25.927,0l0,13.809l0,6.502l0,3.88l-0.433,1.102l-0.515,1.013l-0.546,0.858l-0.601,0.778l-0.569,0.623l-0.599,0.569l-0.703,0.585l-0.627,0.465l-0.822,0.549l-0.886,0.539l-0.934,0.528l-1.257,0.675l-0.999,0.527l-0.877,0.477l-0.696,0.467l-1.899,1.452l-1.838,-1.405l-1.028,-0.667l-0.865,-0.461l-0.865,-0.457l-0.789,-0.421l-0.84,-0.464l-0.863,-0.504l-0.782,-0.493l-0.688,-0.476l-0.634,-0.485l-0.562,-0.478l-0.626,-0.603l-0.573,-0.641l-0.621,-0.828l-0.407,-0.648l-0.341,-0.633l-0.384,-0.852l-0.258,-0.691l0,-24.191z" id="path60"/>
   </g>
   <g id="g62">
    <path fill="#870707" fill-rule="nonzero" d="m156.214416,101.62526l12.964,0l0,6.905l0,3.25l0,1.941l-0.217,0.55l-0.258,0.507l-0.272,0.429l-0.301,0.389l-0.285,0.311l-0.299,0.285l-0.352,0.293l-0.313,0.232l-0.411,0.275l-0.443,0.269l-0.467,0.264l-0.629,0.338l-0.499,0.263l-0.439,0.239l-0.347,0.233l-0.95,0.726l-0.919,-0.703l-0.514,-0.333l-0.433,-0.23l-0.432,-0.229l-0.394,-0.211l-0.421,-0.232l-0.431,-0.252l-0.391,-0.246l-0.344,-0.238l-0.317,-0.242l-0.281,-0.24l-0.313,-0.301l-0.286,-0.321l-0.311,-0.414l-0.203,-0.323l-0.171,-0.317l-0.192,-0.426l-0.129,-0.345l0,-12.096z" id="path64"/>
   </g>
   <path fill="#870707" fill-rule="nonzero" d="m169.177604,52.323865l-12.964,0l0,49.301l12.964,0l0,-49.301z" id="path66"/>
   <g id="g68">
    <path fill="#870707" fill-rule="nonzero" d="m136.547698,101.62526l12.964,0l0,6.905l0,3.25l0,1.941l-0.217,0.55l-0.257,0.507l-0.273,0.429l-0.301,0.389l-0.285,0.311l-0.299,0.285l-0.352,0.293l-0.313,0.232l-0.411,0.275l-0.443,0.269l-0.467,0.264l-0.629,0.338l-0.499,0.263l-0.439,0.239l-0.347,0.233l-0.95,0.726l-0.919,-0.703l-0.514,-0.333l-0.433,-0.23l-0.432,-0.229l-0.394,-0.211l-0.421,-0.232l-0.431,-0.252l-0.391,-0.246l-0.344,-0.238l-0.317,-0.242l-0.281,-0.24l-0.313,-0.301l-0.286,-0.321l-0.311,-0.414l-0.203,-0.323l-0.171,-0.317l-0.192,-0.426l-0.129,-0.345l0,-12.096z" id="path70"/>
   </g>
   <path fill="#870707" fill-rule="nonzero" d="m149.511604,52.323865l-12.964,0l0,49.301l12.964,0l0,-49.301z" id="path72"/>
   <g id="g74">
    <path fill="#870707" fill-rule="nonzero" d="m137.242797,152.363358l4.71,0l0,5.017l0,2.363l0,1.41l-0.079,0.4l-0.093,0.368l-0.099,0.312l-0.109,0.282l-0.104,0.227l-0.109,0.206l-0.127,0.213l-0.114,0.169l-0.15,0.2l-0.16,0.195l-0.17,0.192l-0.229,0.246l-0.181,0.191l-0.159,0.173l-0.127,0.17l-0.345,0.527l-0.334,-0.51l-0.186,-0.242l-0.158,-0.168l-0.157,-0.166l-0.143,-0.153l-0.153,-0.169l-0.157,-0.183l-0.142,-0.179l-0.125,-0.173l-0.115,-0.176l-0.102,-0.174l-0.113,-0.219l-0.105,-0.233l-0.112,-0.301l-0.074,-0.235l-0.062,-0.23l-0.07,-0.309l-0.047,-0.251l0,-8.79z" id="path76"/>
   </g>
   <path fill="#870707" fill-rule="nonzero" d="m141.952604,124.328865l-4.71,0l0,28.035l4.71,0l0,-28.035z" id="path78"/>
   <g id="g80">
    <path fill="#870707" fill-rule="nonzero" d="m146.111419,152.363358l4.71,0l0,5.017l0,2.363l0,1.41l-0.079,0.4l-0.093,0.368l-0.099,0.312l-0.109,0.282l-0.104,0.227l-0.109,0.206l-0.127,0.213l-0.114,0.169l-0.15,0.2l-0.16,0.195l-0.17,0.192l-0.229,0.246l-0.181,0.191l-0.159,0.173l-0.127,0.17l-0.345,0.527l-0.334,-0.51l-0.186,-0.242l-0.158,-0.168l-0.157,-0.166l-0.143,-0.153l-0.153,-0.169l-0.157,-0.183l-0.142,-0.179l-0.125,-0.173l-0.115,-0.176l-0.102,-0.174l-0.113,-0.219l-0.105,-0.233l-0.112,-0.301l-0.074,-0.235l-0.062,-0.23l-0.07,-0.309l-0.047,-0.251l0,-8.79z" id="path82"/>
   </g>
   <path fill="#870707" fill-rule="nonzero" d="m150.821604,124.925865l-4.71,0l0,27.438l4.71,0l0,-27.438z" id="path84"/>
   <g id="g86">
    <path fill="#870707" fill-rule="nonzero" d="m154.980102,152.363358l4.71,0l0,5.017l0,2.363l0,1.41l-0.079,0.4l-0.093,0.368l-0.099,0.312l-0.109,0.282l-0.104,0.227l-0.109,0.206l-0.127,0.213l-0.114,0.169l-0.15,0.2l-0.16,0.195l-0.17,0.192l-0.229,0.246l-0.181,0.191l-0.159,0.173l-0.127,0.17l-0.345,0.527l-0.334,-0.51l-0.186,-0.242l-0.158,-0.168l-0.157,-0.166l-0.143,-0.153l-0.153,-0.169l-0.157,-0.183l-0.142,-0.179l-0.125,-0.173l-0.115,-0.176l-0.102,-0.174l-0.113,-0.219l-0.105,-0.233l-0.112,-0.301l-0.074,-0.235l-0.062,-0.23l-0.07,-0.309l-0.047,-0.251l0,-8.79z" id="path88"/>
   </g>
   <path fill="#870707" fill-rule="nonzero" d="m159.690604,124.872865l-4.71,0l0,27.49l4.71,0l0,-27.49z" id="path90"/>
   <g id="g92">
    <path fill="#870707" fill-rule="nonzero" d="m164.140594,152.363358l4.71,0l0,5.017l0,2.363l0,1.41l-0.079,0.4l-0.093,0.368l-0.099,0.312l-0.109,0.282l-0.104,0.227l-0.109,0.206l-0.127,0.213l-0.114,0.169l-0.149,0.2l-0.161,0.195l-0.17,0.192l-0.229,0.246l-0.181,0.191l-0.159,0.173l-0.127,0.17l-0.345,0.527l-0.334,-0.51l-0.186,-0.242l-0.158,-0.168l-0.157,-0.166l-0.143,-0.153l-0.153,-0.169l-0.157,-0.183l-0.142,-0.179l-0.125,-0.173l-0.115,-0.176l-0.102,-0.174l-0.113,-0.219l-0.105,-0.233l-0.112,-0.301l-0.074,-0.235l-0.062,-0.23l-0.07,-0.309l-0.047,-0.251l0,-8.79z" id="path94"/>
   </g>
   <path fill="#870707" fill-rule="nonzero" d="m168.850604,124.202865l-4.71,0l0,28.16l4.71,0l0,-28.16z" id="path96"/>
   <g id="g98">
    <path fill="#a01515" fill-rule="nonzero" d="m139.881103,10.62526l25.927,0l0,13.809l0,6.502l0,3.88l-0.433,1.102l-0.515,1.013l-0.546,0.858l-0.601,0.778l-0.569,0.623l-0.599,0.569l-0.703,0.585l-0.627,0.465l-0.822,0.549l-0.886,0.539l-0.934,0.528l-1.257,0.675l-0.999,0.527l-0.877,0.477l-0.696,0.467l-1.899,1.452l-1.838,-1.405l-1.028,-0.667l-0.865,-0.461l-0.865,-0.457l-0.789,-0.421l-0.84,-0.464l-0.863,-0.504l-0.782,-0.493l-0.688,-0.476l-0.634,-0.485l-0.562,-0.478l-0.626,-0.603l-0.573,-0.641l-0.621,-0.828l-0.407,-0.648l-0.341,-0.633l-0.384,-0.852l-0.258,-0.691l0,-24.191z" id="path100"/>
   </g>
   <g id="g102">
    <g id="g104" clip-path="url(#clipPath108)">
     <g id="g110">
      <path fill="#ffffff" fill-rule="nonzero" d="m166.344604,197.824052c0,-7.456 -6.044,-13.5 -13.5,-13.5c-7.456,0 -13.5,6.044 -13.5,13.5c0,7.456 6.044,13.5 13.5,13.5c7.456,0 13.5,-6.044 13.5,-13.5" id="path112"/>
     </g>
     <path fill="#000000" fill-rule="nonzero" d="m152.338604,197.823865l1,0l0,8.5l-1,0l0,-8.5z" id="path114"/>
     <g id="g116">
      <path fill="#000000" fill-rule="nonzero" d="m152.029602,197.408952l0.845,0.535l-5.882,9.295l-0.845,-0.535l5.882,-9.295z" id="path118"/>
     </g>
     <g id="g120">
      <path fill="#000000" fill-rule="nonzero" d="m153.636291,197.657365c0,-0.437 -0.354,-0.792 -0.792,-0.792c-0.437,0 -0.791,0.355 -0.791,0.792c0,0.437 0.354,0.792 0.791,0.792c0.438,0 0.792,-0.355 0.792,-0.792" id="path122"/>
     </g>
     <g id="g124">
      <path fill="#a01515" fill-rule="nonzero" d="m292.036102,-22.724136l12.099,0l0,9.871l0,4.647l0,2.773l-0.202,0.787l-0.24,0.724l-0.255,0.614l-0.281,0.556l-0.265,0.445l-0.28,0.407l-0.328,0.418l-0.292,0.332l-0.384,0.393l-0.413,0.385l-0.436,0.377l-0.587,0.483l-0.466,0.377l-0.409,0.341l-0.325,0.333l-0.887,1.038l-0.857,-1.004l-0.48,-0.477l-0.403,-0.329l-0.404,-0.326l-0.368,-0.302l-0.392,-0.332l-0.403,-0.36l-0.365,-0.352l-0.321,-0.34l-0.296,-0.347l-0.262,-0.342l-0.292,-0.431l-0.267,-0.458l-0.29,-0.592l-0.19,-0.463l-0.16,-0.452l-0.179,-0.609l-0.12,-0.494l0,-17.291z" id="path126"/>
     </g>
     <g id="g128">
      <path fill="#a01515" fill-rule="nonzero" d="m310.135498,-22.724136l12.099,0l0,9.871l0,4.647l0,2.773l-0.202,0.787l-0.24,0.724l-0.255,0.614l-0.281,0.556l-0.265,0.445l-0.28,0.407l-0.328,0.418l-0.292,0.332l-0.384,0.393l-0.413,0.385l-0.436,0.377l-0.587,0.483l-0.466,0.377l-0.409,0.341l-0.325,0.333l-0.887,1.038l-0.857,-1.004l-0.48,-0.477l-0.403,-0.329l-0.404,-0.326l-0.368,-0.302l-0.392,-0.332l-0.403,-0.36l-0.365,-0.352l-0.321,-0.34l-0.296,-0.347l-0.262,-0.342l-0.292,-0.431l-0.267,-0.458l-0.29,-0.592l-0.19,-0.463l-0.16,-0.452l-0.179,-0.609l-0.12,-0.494l0,-17.291z" id="path130"/>
     </g>
     <g id="g132">
      <path fill="#a01515" fill-rule="nonzero" d="m406.019592,-22.724136l12.099,0l0,9.871l0,4.647l0,2.773l-0.202,0.787l-0.241,0.724l-0.254,0.614l-0.281,0.556l-0.265,0.445l-0.28,0.407l-0.328,0.418l-0.292,0.332l-0.384,0.393l-0.413,0.385l-0.436,0.377l-0.587,0.483l-0.466,0.377l-0.41,0.341l-0.324,0.333l-0.887,1.038l-0.857,-1.004l-0.48,-0.477l-0.403,-0.329l-0.404,-0.326l-0.368,-0.302l-0.392,-0.332l-0.403,-0.36l-0.365,-0.352l-0.321,-0.34l-0.296,-0.347l-0.262,-0.342l-0.292,-0.431l-0.267,-0.458l-0.29,-0.592l-0.19,-0.463l-0.16,-0.452l-0.179,-0.609l-0.12,-0.494l0,-17.291z" id="path134"/>
     </g>
     <g id="g136">
      <path fill="#a01515" fill-rule="nonzero" d="m424.119018,-22.724136l12.099,0l0,9.871l0,4.647l0,2.773l-0.202,0.787l-0.24,0.724l-0.255,0.614l-0.281,0.556l-0.265,0.445l-0.28,0.407l-0.328,0.418l-0.292,0.332l-0.384,0.393l-0.413,0.385l-0.436,0.377l-0.587,0.483l-0.466,0.377l-0.41,0.341l-0.324,0.333l-0.887,1.038l-0.857,-1.004l-0.48,-0.477l-0.403,-0.329l-0.404,-0.326l-0.368,-0.302l-0.392,-0.332l-0.403,-0.36l-0.365,-0.352l-0.321,-0.34l-0.296,-0.347l-0.262,-0.342l-0.292,-0.431l-0.267,-0.458l-0.29,-0.592l-0.19,-0.463l-0.16,-0.452l-0.179,-0.609l-0.12,-0.494l0,-17.291z" id="path138"/>
     </g>
     <g id="g140">
      <path fill="#870707" fill-rule="nonzero" d="m186.245117,-22.724136l12.099,0l0,9.871l0,4.647l0,2.773l-0.202,0.787l-0.24,0.724l-0.255,0.614l-0.281,0.556l-0.265,0.445l-0.28,0.407l-0.328,0.418l-0.292,0.332l-0.384,0.393l-0.413,0.385l-0.436,0.377l-0.587,0.483l-0.466,0.377l-0.41,0.341l-0.324,0.333l-0.887,1.038l-0.857,-1.004l-0.48,-0.477l-0.403,-0.329l-0.404,-0.326l-0.368,-0.302l-0.392,-0.332l-0.403,-0.36l-0.365,-0.352l-0.321,-0.34l-0.296,-0.347l-0.262,-0.342l-0.292,-0.431l-0.267,-0.458l-0.29,-0.592l-0.19,-0.463l-0.16,-0.452l-0.179,-0.609l-0.12,-0.494l0,-17.291z" id="path142"/>
     </g>
     <g id="g144">
      <path fill="#870707" fill-rule="nonzero" d="m204.344604,-22.724136l12.099,0l0,9.871l0,4.647l0,2.773l-0.202,0.787l-0.24,0.724l-0.255,0.614l-0.281,0.556l-0.265,0.445l-0.28,0.407l-0.328,0.418l-0.292,0.332l-0.384,0.393l-0.413,0.385l-0.436,0.377l-0.587,0.483l-0.466,0.377l-0.41,0.341l-0.324,0.333l-0.887,1.038l-0.857,-1.004l-0.48,-0.477l-0.403,-0.329l-0.404,-0.326l-0.368,-0.302l-0.392,-0.332l-0.403,-0.36l-0.365,-0.352l-0.321,-0.34l-0.296,-0.347l-0.262,-0.342l-0.292,-0.431l-0.267,-0.458l-0.29,-0.592l-0.19,-0.463l-0.16,-0.452l-0.179,-0.609l-0.12,-0.494l0,-17.291z" id="path146"/>
     </g>
     <g id="g148">
      <path fill="#870707" fill-rule="nonzero" d="m242.540191,-22.724136l12.099,0l0,9.871l0,4.647l0,2.773l-0.202,0.787l-0.24,0.724l-0.255,0.614l-0.281,0.556l-0.265,0.445l-0.28,0.407l-0.328,0.418l-0.292,0.332l-0.384,0.393l-0.413,0.385l-0.436,0.377l-0.587,0.483l-0.466,0.377l-0.41,0.341l-0.324,0.333l-0.887,1.038l-0.857,-1.004l-0.48,-0.477l-0.403,-0.329l-0.404,-0.326l-0.368,-0.302l-0.392,-0.332l-0.403,-0.36l-0.365,-0.352l-0.321,-0.34l-0.296,-0.347l-0.262,-0.342l-0.292,-0.431l-0.267,-0.458l-0.29,-0.592l-0.19,-0.463l-0.16,-0.452l-0.179,-0.609l-0.12,-0.494l0,-17.291z" id="path150"/>
     </g>
     <g id="g152">
      <path fill="#870707" fill-rule="nonzero" d="m261.639617,-22.724136l12.099,0l0,9.871l0,4.647l0,2.773l-0.202,0.787l-0.24,0.724l-0.255,0.614l-0.281,0.556l-0.265,0.445l-0.28,0.407l-0.328,0.418l-0.292,0.332l-0.384,0.393l-0.413,0.385l-0.436,0.377l-0.587,0.483l-0.466,0.377l-0.409,0.341l-0.325,0.333l-0.887,1.038l-0.857,-1.004l-0.48,-0.477l-0.403,-0.329l-0.404,-0.326l-0.368,-0.302l-0.392,-0.332l-0.403,-0.36l-0.365,-0.352l-0.321,-0.34l-0.296,-0.347l-0.262,-0.342l-0.292,-0.431l-0.267,-0.458l-0.29,-0.592l-0.19,-0.463l-0.16,-0.452l-0.179,-0.609l-0.12,-0.494l0,-17.291z" id="path154"/>
     </g>
     <g id="g156">
      <path fill="#870707" fill-rule="nonzero" d="m223.742706,-22.724136l12.099,0l0,9.871l0,4.647l0,2.773l-0.202,0.787l-0.24,0.724l-0.255,0.614l-0.281,0.556l-0.265,0.445l-0.28,0.407l-0.328,0.418l-0.292,0.332l-0.384,0.393l-0.413,0.385l-0.436,0.377l-0.587,0.483l-0.466,0.377l-0.41,0.341l-0.324,0.333l-0.887,1.038l-0.857,-1.004l-0.48,-0.477l-0.403,-0.329l-0.404,-0.326l-0.368,-0.302l-0.392,-0.332l-0.403,-0.36l-0.365,-0.352l-0.321,-0.34l-0.296,-0.347l-0.262,-0.342l-0.292,-0.431l-0.267,-0.458l-0.29,-0.592l-0.19,-0.463l-0.16,-0.452l-0.179,-0.609l-0.12,-0.494l0,-17.291z" id="path158"/>
     </g>
     <g id="g160">
      <path fill="#870707" fill-rule="nonzero" d="m340.247802,-22.724136l12.099,0l0,9.871l0,4.647l0,2.773l-0.202,0.787l-0.24,0.724l-0.255,0.614l-0.281,0.556l-0.265,0.445l-0.28,0.407l-0.328,0.418l-0.292,0.332l-0.384,0.393l-0.413,0.385l-0.436,0.377l-0.587,0.483l-0.466,0.377l-0.409,0.341l-0.325,0.333l-0.887,1.038l-0.857,-1.004l-0.48,-0.477l-0.403,-0.329l-0.404,-0.326l-0.368,-0.302l-0.392,-0.332l-0.403,-0.36l-0.365,-0.352l-0.321,-0.34l-0.296,-0.347l-0.262,-0.342l-0.292,-0.431l-0.267,-0.458l-0.29,-0.592l-0.19,-0.463l-0.16,-0.452l-0.179,-0.609l-0.12,-0.494l0,-17.291z" id="path162"/>
     </g>
     <g id="g164">
      <path fill="#870707" fill-rule="nonzero" d="m358.34729,-22.724136l12.099,0l0,9.871l0,4.647l0,2.773l-0.202,0.787l-0.241,0.724l-0.254,0.614l-0.281,0.556l-0.265,0.445l-0.28,0.407l-0.328,0.418l-0.292,0.332l-0.384,0.393l-0.413,0.385l-0.436,0.377l-0.587,0.483l-0.466,0.377l-0.41,0.341l-0.324,0.333l-0.887,1.038l-0.857,-1.004l-0.48,-0.477l-0.403,-0.329l-0.404,-0.326l-0.368,-0.302l-0.392,-0.332l-0.403,-0.36l-0.365,-0.352l-0.321,-0.34l-0.296,-0.347l-0.262,-0.342l-0.292,-0.431l-0.267,-0.458l-0.29,-0.592l-0.19,-0.463l-0.16,-0.452l-0.179,-0.609l-0.12,-0.494l0,-17.291z" id="path166"/>
     </g>
     <g id="g168">
      <path fill="#870707" fill-rule="nonzero" d="m375.907287,-22.724136l12.099,0l0,9.871l0,4.647l0,2.773l-0.202,0.787l-0.24,0.724l-0.255,0.614l-0.281,0.556l-0.265,0.445l-0.28,0.407l-0.328,0.418l-0.292,0.332l-0.384,0.393l-0.413,0.385l-0.436,0.377l-0.587,0.483l-0.466,0.377l-0.41,0.341l-0.324,0.333l-0.887,1.038l-0.857,-1.004l-0.48,-0.477l-0.403,-0.329l-0.404,-0.326l-0.368,-0.302l-0.392,-0.332l-0.403,-0.36l-0.365,-0.352l-0.321,-0.34l-0.296,-0.347l-0.262,-0.342l-0.292,-0.431l-0.267,-0.458l-0.29,-0.592l-0.19,-0.463l-0.16,-0.452l-0.179,-0.609l-0.12,-0.494l0,-17.291z" id="path170"/>
     </g>
     <g id="g172">
      <path fill="#a01515" fill-rule="nonzero" d="m-119.359597,-22.724136l12.099,0l0,9.871l0,4.647l0,2.773l-0.202,0.787l-0.24,0.724l-0.255,0.614l-0.281,0.556l-0.265,0.445l-0.28,0.407l-0.328,0.418l-0.292,0.332l-0.384,0.393l-0.413,0.385l-0.436,0.377l-0.587,0.483l-0.466,0.377l-0.409,0.341l-0.325,0.333l-0.887,1.038l-0.857,-1.004l-0.48,-0.477l-0.403,-0.329l-0.404,-0.326l-0.368,-0.302l-0.392,-0.332l-0.403,-0.36l-0.365,-0.352l-0.321,-0.34l-0.296,-0.347l-0.262,-0.342l-0.292,-0.431l-0.267,-0.458l-0.29,-0.592l-0.19,-0.463l-0.16,-0.452l-0.179,-0.609l-0.12,-0.494l0,-17.291z" id="path174"/>
     </g>
     <g id="g176">
      <path fill="#a01515" fill-rule="nonzero" d="m-101.260193,-22.724136l12.099,0l0,9.871l0,4.647l0,2.773l-0.202,0.787l-0.24,0.724l-0.255,0.614l-0.281,0.556l-0.265,0.445l-0.28,0.407l-0.328,0.418l-0.292,0.332l-0.384,0.393l-0.413,0.385l-0.436,0.377l-0.587,0.483l-0.466,0.377l-0.409,0.341l-0.325,0.333l-0.887,1.038l-0.857,-1.004l-0.48,-0.477l-0.403,-0.329l-0.404,-0.326l-0.368,-0.302l-0.392,-0.332l-0.403,-0.36l-0.365,-0.352l-0.321,-0.34l-0.296,-0.347l-0.262,-0.342l-0.292,-0.431l-0.267,-0.458l-0.29,-0.592l-0.19,-0.463l-0.16,-0.452l-0.179,-0.609l-0.12,-0.494l0,-17.291z" id="path178"/>
     </g>
     <g id="g180">
      <path fill="#a01515" fill-rule="nonzero" d="m-12.459794,-22.724136l12.099,0l0,9.871l0,4.647l0,2.773l-0.202,0.787l-0.24,0.724l-0.255,0.614l-0.281,0.556l-0.265,0.445l-0.28,0.407l-0.328,0.418l-0.292,0.332l-0.384,0.393l-0.413,0.385l-0.436,0.377l-0.587,0.483l-0.466,0.377l-0.409,0.341l-0.325,0.333l-0.887,1.038l-0.857,-1.004l-0.48,-0.477l-0.403,-0.329l-0.404,-0.326l-0.368,-0.302l-0.392,-0.332l-0.403,-0.36l-0.365,-0.352l-0.321,-0.34l-0.296,-0.347l-0.262,-0.342l-0.292,-0.431l-0.267,-0.458l-0.29,-0.592l-0.19,-0.463l-0.16,-0.452l-0.179,-0.609l-0.12,-0.494l0,-17.291z" id="path182"/>
     </g>
     <g id="g184">
      <path fill="#a01515" fill-rule="nonzero" d="m5.639709,-22.724136l12.099,0l0,9.871l0,4.647l0,2.773l-0.202,0.787l-0.24,0.724l-0.255,0.614l-0.281,0.556l-0.265,0.445l-0.28,0.407l-0.328,0.418l-0.292,0.332l-0.384,0.393l-0.413,0.385l-0.436,0.377l-0.587,0.483l-0.466,0.377l-0.409,0.341l-0.325,0.333l-0.887,1.038l-0.857,-1.004l-0.48,-0.477l-0.403,-0.329l-0.404,-0.326l-0.368,-0.302l-0.392,-0.332l-0.403,-0.36l-0.365,-0.352l-0.321,-0.34l-0.296,-0.347l-0.262,-0.342l-0.292,-0.431l-0.267,-0.458l-0.29,-0.592l-0.19,-0.463l-0.16,-0.452l-0.179,-0.609l-0.12,-0.494l0,-17.291z" id="path186"/>
     </g>
     <g id="g188">
      <path fill="#870707" fill-rule="nonzero" d="m-74.909699,-22.724136l12.099,0l0,9.871l0,4.647l0,2.773l-0.202,0.787l-0.24,0.724l-0.255,0.614l-0.281,0.556l-0.265,0.445l-0.28,0.407l-0.328,0.418l-0.292,0.332l-0.384,0.393l-0.413,0.385l-0.436,0.377l-0.587,0.483l-0.466,0.377l-0.41,0.341l-0.324,0.333l-0.887,1.038l-0.857,-1.004l-0.48,-0.477l-0.403,-0.329l-0.404,-0.326l-0.368,-0.302l-0.392,-0.332l-0.403,-0.36l-0.365,-0.352l-0.321,-0.34l-0.296,-0.347l-0.262,-0.342l-0.292,-0.431l-0.267,-0.458l-0.29,-0.592l-0.19,-0.463l-0.16,-0.452l-0.179,-0.609l-0.12,-0.494l0,-17.291z" id="path190"/>
     </g>
     <g id="g192">
      <path fill="#870707" fill-rule="nonzero" d="m-56.810196,-22.724136l12.099,0l0,9.871l0,4.647l0,2.773l-0.202,0.787l-0.24,0.724l-0.255,0.614l-0.281,0.556l-0.265,0.445l-0.28,0.407l-0.328,0.418l-0.292,0.332l-0.384,0.393l-0.413,0.385l-0.436,0.377l-0.587,0.483l-0.466,0.377l-0.409,0.341l-0.325,0.333l-0.887,1.038l-0.857,-1.004l-0.48,-0.477l-0.403,-0.329l-0.404,-0.326l-0.368,-0.302l-0.392,-0.332l-0.403,-0.36l-0.365,-0.352l-0.321,-0.34l-0.296,-0.347l-0.262,-0.342l-0.292,-0.431l-0.267,-0.458l-0.29,-0.592l-0.19,-0.463l-0.16,-0.452l-0.179,-0.609l-0.12,-0.494l0,-17.291z" id="path194"/>
     </g>
     <g id="g196">
      <path fill="#870707" fill-rule="nonzero" d="m-39.250199,-22.724136l12.099,0l0,9.871l0,4.647l0,2.773l-0.202,0.787l-0.24,0.724l-0.255,0.614l-0.281,0.556l-0.265,0.445l-0.28,0.407l-0.328,0.418l-0.292,0.332l-0.384,0.393l-0.413,0.385l-0.436,0.377l-0.587,0.483l-0.466,0.377l-0.409,0.341l-0.325,0.333l-0.887,1.038l-0.857,-1.004l-0.48,-0.477l-0.403,-0.329l-0.404,-0.326l-0.368,-0.302l-0.392,-0.332l-0.403,-0.36l-0.365,-0.352l-0.321,-0.34l-0.296,-0.347l-0.262,-0.342l-0.292,-0.431l-0.267,-0.458l-0.29,-0.592l-0.19,-0.463l-0.16,-0.452l-0.179,-0.609l-0.12,-0.494l0,-17.291z" id="path198"/>
     </g>
     <g id="g200">
      <path fill="#870707" fill-rule="nonzero" d="m33.13771,-22.724136l12.099,0l0,9.871l0,4.647l0,2.773l-0.202,0.787l-0.24,0.724l-0.255,0.614l-0.281,0.556l-0.265,0.445l-0.28,0.407l-0.328,0.418l-0.292,0.332l-0.384,0.393l-0.413,0.385l-0.436,0.377l-0.587,0.483l-0.466,0.377l-0.409,0.341l-0.325,0.333l-0.887,1.038l-0.857,-1.004l-0.48,-0.477l-0.403,-0.329l-0.404,-0.326l-0.368,-0.302l-0.392,-0.332l-0.403,-0.36l-0.365,-0.352l-0.321,-0.34l-0.296,-0.347l-0.262,-0.342l-0.292,-0.431l-0.267,-0.458l-0.29,-0.592l-0.19,-0.463l-0.16,-0.452l-0.179,-0.609l-0.12,-0.494l0,-17.291z" id="path202"/>
     </g>
     <g id="g204">
      <path fill="#870707" fill-rule="nonzero" d="m51.237106,-22.724136l12.099,0l0,9.871l0,4.647l0,2.773l-0.202,0.787l-0.24,0.724l-0.255,0.614l-0.281,0.556l-0.265,0.445l-0.28,0.407l-0.328,0.418l-0.292,0.332l-0.384,0.393l-0.413,0.385l-0.436,0.377l-0.587,0.483l-0.466,0.377l-0.409,0.341l-0.325,0.333l-0.887,1.038l-0.857,-1.004l-0.48,-0.477l-0.403,-0.329l-0.404,-0.326l-0.368,-0.302l-0.392,-0.332l-0.403,-0.36l-0.365,-0.352l-0.321,-0.34l-0.296,-0.347l-0.262,-0.342l-0.292,-0.431l-0.267,-0.458l-0.29,-0.592l-0.19,-0.463l-0.16,-0.452l-0.179,-0.609l-0.12,-0.494l0,-17.291z" id="path206"/>
     </g>
     <g id="g208">
      <path fill="#870707" fill-rule="nonzero" d="m89.432708,-22.724136l12.099,0l0,9.871l0,4.647l0,2.773l-0.202,0.787l-0.24,0.724l-0.255,0.614l-0.281,0.556l-0.265,0.445l-0.28,0.407l-0.328,0.418l-0.292,0.332l-0.384,0.393l-0.413,0.385l-0.436,0.377l-0.587,0.483l-0.466,0.377l-0.41,0.341l-0.324,0.333l-0.887,1.038l-0.857,-1.004l-0.48,-0.477l-0.403,-0.329l-0.404,-0.326l-0.368,-0.302l-0.392,-0.332l-0.403,-0.36l-0.365,-0.352l-0.321,-0.34l-0.296,-0.347l-0.262,-0.342l-0.292,-0.431l-0.267,-0.458l-0.29,-0.592l-0.19,-0.463l-0.16,-0.452l-0.179,-0.609l-0.12,-0.494l0,-17.291z" id="path210"/>
     </g>
     <g id="g212">
      <path fill="#870707" fill-rule="nonzero" d="m108.532196,-22.724136l12.099,0l0,9.871l0,4.647l0,2.773l-0.202,0.787l-0.24,0.724l-0.255,0.614l-0.281,0.556l-0.265,0.445l-0.28,0.407l-0.328,0.418l-0.292,0.332l-0.384,0.393l-0.413,0.385l-0.436,0.377l-0.587,0.483l-0.466,0.377l-0.409,0.341l-0.325,0.333l-0.887,1.038l-0.857,-1.004l-0.48,-0.477l-0.403,-0.329l-0.404,-0.326l-0.368,-0.302l-0.392,-0.332l-0.403,-0.36l-0.365,-0.352l-0.321,-0.34l-0.296,-0.347l-0.262,-0.342l-0.292,-0.431l-0.267,-0.458l-0.29,-0.592l-0.19,-0.463l-0.16,-0.452l-0.179,-0.609l-0.12,-0.494l0,-17.291z" id="path214"/>
     </g>
     <g id="g216">
      <path fill="#870707" fill-rule="nonzero" d="m70.635208,-22.724136l12.099,0l0,9.871l0,4.647l0,2.773l-0.202,0.787l-0.24,0.724l-0.255,0.614l-0.281,0.556l-0.265,0.445l-0.28,0.407l-0.328,0.418l-0.292,0.332l-0.384,0.393l-0.413,0.385l-0.436,0.377l-0.587,0.483l-0.466,0.377l-0.409,0.341l-0.325,0.333l-0.887,1.038l-0.857,-1.004l-0.48,-0.477l-0.403,-0.329l-0.404,-0.326l-0.368,-0.302l-0.392,-0.332l-0.403,-0.36l-0.365,-0.352l-0.321,-0.34l-0.296,-0.347l-0.262,-0.342l-0.292,-0.431l-0.267,-0.458l-0.29,-0.592l-0.19,-0.463l-0.16,-0.452l-0.179,-0.609l-0.12,-0.494l0,-17.291z" id="path218"/>
     </g>
     <path fill="#c92f2f" fill-rule="nonzero" d="m151.636604,315.662865l30.107,0l0,-15.054l-30.107,0l0,15.054z" id="path220"/>
     <path fill="#ffffff" fill-rule="nonzero" d="m159.162604,315.662865l15.054,0l0,-15.054l-15.054,0l0,15.054z" id="path222"/>
     <g id="g224">
      <path fill="#c92f2f" fill-rule="nonzero" d="m166.689605,314.25145l-1.027,-1.916c-0.117,-0.208 -0.325,-0.188 -0.534,-0.072l-0.744,0.385l0.554,-2.942c0.117,-0.538 -0.257,-0.538 -0.441,-0.306l-1.298,1.453l-0.211,-0.738c-0.024,-0.096 -0.131,-0.198 -0.291,-0.174l-1.641,0.345l0.431,-1.567c0.092,-0.349 0.164,-0.493 -0.093,-0.585l-0.585,-0.275l2.825,-2.294c0.111,-0.087 0.168,-0.243 0.128,-0.384l-0.247,-0.812c0.972,0.112 1.844,0.281 2.817,0.385c0.086,0.009 0.23,-0.133 0.229,-0.232l-0.129,-2.972l0.473,0l-0.074,2.965c-0.001,0.1 0.13,0.248 0.215,0.239c0.974,-0.104 1.845,-0.273 2.818,-0.385l-0.248,0.812c-0.039,0.141 0.017,0.297 0.129,0.384l2.825,2.294l-0.585,0.275c-0.258,0.092 -0.186,0.236 -0.093,0.585l0.431,1.567l-1.641,-0.345c-0.161,-0.024 -0.267,0.078 -0.292,0.174l-0.21,0.738l-1.298,-1.453c-0.185,-0.232 -0.559,-0.232 -0.442,0.306l0.554,2.942l-0.743,-0.385c-0.209,-0.116 -0.418,-0.136 -0.534,0.072" id="path226"/>
     </g>
     <path fill="#a01515" fill-rule="nonzero" d="m152.981604,315.073865l-1.286,0l0,-36.75l1.286,0l0,36.75z" id="path228"/>
    </g>
   </g>
  </g>
 </g>
</svg>