<svg xmlns:dc="http://purl.org/dc/elements/1.1/" xmlns:cc="http://creativecommons.org/ns#" xmlns:rdf="http://www.w3.org/1999/02/22-rdf-syntax-ns#" xmlns:svg="http://www.w3.org/2000/svg" xmlns="http://www.w3.org/2000/svg" height="10780" width="2650" xml:space="preserve" version="1.1" style=""><rect id="backgroundrect" width="100%" height="100%" x="0" y="0" fill="none" stroke="none" class="" style=""/><metadata id="metadata8"><rdf:RDF><cc:Work rdf:about=""><dc:format>image/svg+xml</dc:format><dc:type rdf:resource="http://purl.org/dc/dcmitype/StillImage"/></cc:Work></rdf:RDF></metadata><defs id="defs6"><clipPath id="clipPath108" clipPathUnits="userSpaceOnUse"><path id="path106" d="M 0,485.035 H 648.988 V 0 H 0 Z"/></clipPath></defs><g class="currentLayer" style=""><title>Layer 1</title><path id="path14" style="fill:#c92f2f;fill-opacity:1;fill-rule:nonzero;stroke:none" d="m52.29417771490397,1060.289503740735 h162.13242828655078 v-547.6473133234605 h-162.13242828655078 z" stroke-width="0" class=""/><path id="path16" style="fill:#c92f2f;fill-opacity:1;fill-rule:nonzero;stroke:none" d="m68.50742067573384,518.2451320186551 h123.7059468252143 v-174.9412554403296 h-123.7059468252143 z" stroke-width="0" class=""/><g id="g22" stroke-width="0" class=""><path id="path24" style="fill:#870707;fill-opacity:1;fill-rule:nonzero;stroke:none" d="m150.48521265382968,148.744289572328 h-36.91935539227302 l-28.823542806497922,198.16185679467318 h97.27945697193047 " stroke-width="0"/></g><path id="path38" style="fill:#870707;fill-opacity:1;fill-rule:nonzero;stroke:none" d="m198.2133631728,356.5122649201769 h-129.70594262924055 v-14.411771403248963 h129.70594262924055 z" stroke-width="0" class=""/><path id="path40" style="fill:#870707;fill-opacity:1;fill-rule:nonzero;stroke:none" d="m214.42660600145467,527.0539618205233 h-162.13242828655078 v-14.411771403248963 h162.13242828655078 z" stroke-width="0" class=""/><g id="g62" stroke-width="0" class=""><path id="path64" style="fill:#870707;fill-opacity:1;fill-rule:nonzero;stroke:none" d="m145.52324961148787,785.3799371684897 h46.708551117929865 v-24.878320384858515 v-11.709564265139777 v-6.993312073426559 l-0.7818385986262579,-1.9816185679467326 l-0.9295592555095602,-1.8266920253618069 l-0.9800004554209316,-1.5456624829984533 l-1.084485798094486,-1.401544768965962 l-1.0268387124814897,-1.1205152266026077 l-1.0772799123928618,-1.0268387124814897 l-1.2682358834859107,-1.0556622552879877 l-1.1277211123042319,-0.8358827413884422 l-1.480809511683833,-0.9908092839733683 L180.87892780650776,729.0443227531896 L179.1963534951788,728.093145840575 L176.93010244201804,726.8753511570002 L175.13223395946244,725.9277771872368 L173.55054204795584,725.0666738458928 L172.30032087872453,724.2271881616534 L168.87752517045266,721.6114516519638 L165.56642069055633,724.1443204760848 L163.7145080652383,725.344100445405 L162.15443381083716,726.1727773010919 L160.5979624992865,726.9978512139281 L159.1784030160658,727.7580721554492 L157.66156407587414,728.5939548968379 L156.10869570717387,729.5018964952422 L154.69994505250614,730.3882204365424 L153.46053271182706,731.2457208350355 L152.31839982811888,732.1176330049321 L151.3059728870413,732.9823392891271 L150.17825177473702,734.0668250872218 L149.1478101194049,735.2233697423324 L148.0272948928022,736.7149880825684 L147.29589749408734,737.878738623381 L146.6797942665985,739.0208715070886 L145.9880292392422,740.5557251615346 L145.52324961148787,741.7987404450649 z" stroke-width="0"/></g><path id="path66" style="fill:#870707;fill-opacity:1;fill-rule:nonzero;stroke:none" d="m192.22887509760096,963.0100467688047 h-46.708551117929865 v-177.62868548789424 h46.708551117929865 z" stroke-width="0" class=""/><g id="g68" stroke-width="0" class=""><path id="path70" style="fill:#870707;fill-opacity:1;fill-rule:nonzero;stroke:none" d="m74.66519029036363,785.3799371684897 h46.708551117929865 v-24.878320384858515 v-11.709564265139777 v-6.993312073426559 l-0.7818385986262579,-1.9816185679467326 l-0.9259563126587477,-1.8266920253618069 l-0.9836033982717418,-1.5456624829984533 l-1.084485798094486,-1.401544768965962 l-1.0268387124814897,-1.1205152266026077 l-1.0772799123928618,-1.0268387124814897 l-1.2682358834859107,-1.0556622552879877 l-1.1277211123042319,-0.8358827413884422 l-1.480809511683833,-0.9908092839733683 L110.02086848538445,729.0443227531896 L108.33829417405506,728.093145840575 L106.07204312089404,726.8753511570002 L104.27417463833869,725.9277771872368 L102.69248272683188,725.0666738458928 L101.4422615576003,724.2271881616534 L98.01946584932865,721.6114516519638 L94.70836136943208,724.1443204760848 L92.85644874411479,725.344100445405 L91.29637448971319,726.1727773010919 L89.73990317816225,726.9978512139281 L88.32034369494181,727.7580721554492 L86.80350475474992,728.5939548968379 L85.25063638604989,729.5018964952422 L83.84188573138262,730.3882204365424 L82.60247339070283,731.2457208350355 L81.4603405069961,732.1176330049321 L80.44791356591732,732.9823392891271 L79.32019245361279,734.0668250872218 L78.28975079828113,735.2233697423324 L77.16923557167891,736.7149880825684 L76.43783817296311,737.878738623381 L75.82173494547446,739.0208715070886 L75.12996991811866,740.5557251615346 L74.66519029036363,741.7987404450649 z" stroke-width="0"/></g><path id="path72" style="fill:#870707;fill-opacity:1;fill-rule:nonzero;stroke:none" d="m121.37340099352656,963.0100467688047 h-46.708551117929865 v-177.62868548789424 h46.708551117929865 z" stroke-width="0" class=""/><g id="g74" stroke-width="0" class=""><path id="path76" style="fill:#870707;fill-opacity:1;fill-rule:nonzero;stroke:none" d="M77.16959181968963,602.5734691948411 H94.13945264701502 V584.497504912316 V575.9837509558466 V570.9036015362014 L93.85482016180113,569.4624243958765 L93.51974647667524,568.1365414267776 L93.16305513444483,567.0124232573241 L92.77033436370657,565.9963933733951 L92.3956283072221,565.1785253462607 L92.00290753648336,564.4363191189934 L91.54533379443014,563.6688922917704 l-0.4107354849925963,-0.6088973417872703 l-0.5404414276218372,-0.7205885701624506 l-0.5764708561299597,-0.7025738559083898 l-0.6125002846380816,-0.6917650273559525 L88.58011182821171,560.0587435552566 L87.92797917221495,559.3705814707514 L87.35511125893602,558.7472723575611 L86.89753751688257,558.1347720729226 L85.65452223335257,556.2360211905445 L84.4511393211816,558.0735220444589 L83.78099195092956,558.9454342143557 L83.2117269805018,559.550728613292 L82.64606495292418,560.1488171265271 L82.13084412525788,560.7000673827011 L81.57959386908344,561.3089647244886 L81.01393184150632,561.968303266187 L80.50231395669094,562.6132300364825 L80.05194610033931,563.2365391496729 L79.63760767249582,563.870657091416 L79.27010750171293,564.4975691474572 L78.86297495957126,565.2866136317851 L78.48466596023637,566.1260993160241 L78.08113636094488,567.2105851141189 L77.81451858998507,568.0572766840596 L77.5911361332347,568.8859535397465 L77.33893013367732,569.9992628806476 L77.16959181968963,570.9036015362014 z" stroke-width="0"/></g><path id="path78" style="fill:#870707;fill-opacity:1;fill-rule:nonzero;stroke:none" d="m94.13875598423718,703.5801467960691 h-16.969860827325654 v-101.00850282252114 h16.969860827325654 z" stroke-width="0" class=""/><g id="g80" stroke-width="0" class=""><path id="path82" style="fill:#870707;fill-opacity:1;fill-rule:nonzero;stroke:none" d="M109.12272942485255,602.5734691948411 H126.09259025217818 V584.497504912316 V575.9837509558466 V570.9036015362014 L125.80795776696405,569.4624243958765 L125.47288408183888,568.1365414267776 L125.1161927396085,567.0124232573241 L124.72347196886972,565.9963933733951 L124.34876591238503,565.1785253462607 L123.95604514164697,564.4363191189934 L123.498471399594,563.6688922917704 l-0.4107354849925963,-0.6088973417872703 l-0.5404414276218372,-0.7205885701624506 l-0.5764708561299597,-0.7025738559083898 l-0.6125002846380816,-0.6917650273559525 L120.53324943337489,560.0587435552566 L119.88111677737788,559.3705814707514 L119.30824886409891,558.7472723575611 L118.85067512204571,558.1347720729226 L117.60765983851573,556.2360211905445 L116.40427692634427,558.0735220444589 L115.73412955609345,558.9454342143557 L115.16486458566519,559.550728613292 L114.5992025580876,560.1488171265271 L114.08398173042104,560.7000673827011 L113.53273147424682,561.3089647244886 L112.9670694466695,561.968303266187 L112.4554515618541,562.6132300364825 L112.00508370550224,563.2365391496729 L111.59074527765921,563.870657091416 L111.22324510687658,564.4975691474572 L110.8161125647349,565.2866136317851 L110.43780356539907,566.1260993160241 L110.03427396610829,567.2105851141189 L109.76765619514846,568.0572766840596 L109.5442737383976,568.8859535397465 L109.29206773884096,569.9992628806476 L109.12272942485255,570.9036015362014 z" stroke-width="0"/></g><path id="path84" style="fill:#870707;fill-opacity:1;fill-rule:nonzero;stroke:none" d="m126.09325612809087,701.4291899141344 h-16.969860827325654 v-98.85754594058623 h16.969860827325654 z" stroke-width="0" class=""/><g id="g86" stroke-width="0" class=""><path id="path88" style="fill:#870707;fill-opacity:1;fill-rule:nonzero;stroke:none" d="M141.07608693619622,602.5734691948411 H158.04594776352113 V584.497504912316 V575.9837509558466 V570.9036015362014 L157.76131527830722,569.4624243958765 L157.42624159318203,568.1365414267776 L157.0695502509512,567.0124232573241 L156.6768294802136,565.9963933733951 L156.30212342372914,565.1785253462607 L155.90940265299017,564.4363191189934 L155.4518289109367,563.6688922917704 l-0.4107354849925963,-0.6088973417872703 l-0.5404414276218372,-0.7205885701624506 l-0.5764708561299597,-0.7025738559083898 l-0.6125002846380816,-0.6917650273559525 L152.48660694471852,560.0587435552566 L151.8344742887215,559.3705814707514 L151.2616063754419,558.7472723575611 L150.8040326333887,558.1347720729226 L149.56101734985893,556.2360211905445 L148.35763443768747,558.0735220444589 L147.68748706743688,558.9454342143557 L147.11822209700787,559.550728613292 L146.55256006943054,560.1488171265271 L146.03733924176447,560.7000673827011 L145.48608898559027,561.3089647244886 L144.92042695801268,561.968303266187 L144.40880907319774,562.6132300364825 L143.95844121684564,563.2365391496729 L143.54410278900264,563.870657091416 L143.1766026182193,564.4975691474572 L142.7694700760776,565.2866136317851 L142.3911610767425,566.1260993160241 L141.98763147745146,567.2105851141189 L141.72101370649165,568.0572766840596 L141.49763124974103,568.8859535397465 L141.24542525018387,569.9992628806476 L141.07608693619622,570.9036015362014 z" stroke-width="0"/></g><path id="path90" style="fill:#870707;fill-opacity:1;fill-rule:nonzero;stroke:none" d="m158.0477562719448,701.6201458852274 h-16.969860827325654 v-99.04489896882846 h16.969860827325654 z" stroke-width="0" class=""/><g id="g92" stroke-width="0" class=""><path id="path94" style="fill:#870707;fill-opacity:1;fill-rule:nonzero;stroke:none" d="M174.08081589344596,602.5734691948411 H191.05067672077135 V584.497504912316 V575.9837509558466 V570.9036015362014 L190.76604423555722,569.4624243958765 L190.4309705504318,568.1365414267776 L190.0742792082014,567.0124232573241 L189.68155843746263,565.9963933733951 L189.3068523809784,565.1785253462607 L188.9141316102399,564.4363191189934 L188.4565578681867,563.6688922917704 L188.04582238319438,563.0599949499832 L187.50898389842308,562.3394063798206 L186.9289100994423,561.6368325239124 L186.31640981480413,560.9450674965562 L185.4913359019685,560.0587435552566 L184.83920324597128,559.3705814707514 L184.26633533269185,558.7472723575611 L183.80876159063914,558.1347720729226 L182.5657463071089,556.2360211905445 L181.36236339493698,558.0735220444589 L180.69221602468662,558.9454342143557 L180.12295105425787,559.550728613292 L179.5572890266805,560.1488171265271 L179.0420681990142,560.7000673827011 L178.49081794284,561.3089647244886 L177.92515591526245,561.968303266187 L177.4135380304475,562.6132300364825 L176.96317017409564,563.2365391496729 L176.5488317462519,563.870657091416 L176.1813315754695,564.4975691474572 L175.77419903332756,565.2866136317851 L175.39589003399269,566.1260993160241 L174.99236043470145,567.2105851141189 L174.72574266374116,568.0572766840596 L174.50236020699103,568.8859535397465 L174.25015420743412,569.9992628806476 L174.08081589344596,570.9036015362014 z" stroke-width="0"/></g><path id="path96" style="fill:#870707;fill-opacity:1;fill-rule:nonzero;stroke:none" d="m191.05071278538495,704.0341175952716 h-16.969860827325654 v-101.45887067887267 h16.969860827325654 z" stroke-width="0" class=""/><g id="g102" stroke-width="0" class=""><g clip-path="url(#clipPath108)" id="g104" stroke-width="0"><g id="g110" stroke-width="0"><path id="path112" style="fill:#ffffff;fill-opacity:1;fill-rule:nonzero;stroke:none" d="m176.87928088684893,436.66018058227075 c0,26.72933960008791 -21.66739921444895,48.396738814536874 -48.396738814536874,48.396738814536874 c-26.72933960008791,0 -48.396738814536874,-21.66739921444895 -48.396738814536874,-48.396738814536874 c0,-26.72933960008791 21.66739921444895,-48.396738814536874 48.396738814536874,-48.396738814536874 C155.21188167240004,388.263441767734 176.87928088684893,409.93084098218293 176.87928088684893,436.66018058227075 " stroke-width="0"/></g><path id="path114" style="fill:#000000;fill-opacity:1;fill-rule:nonzero;stroke:none" d="m126.66856060267091,436.6608501335075 h3.5849436158916212 v-30.472020735078765 h-3.5849436158916212 z" stroke-width="0"/><g id="g116" stroke-width="0"><path id="path118" style="fill:#000000;fill-opacity:1;fill-rule:nonzero;stroke:none" d="M125.56080427305622,438.1482910273194 L128.59008162848522,436.2303461928175 L107.5034432798104,402.90829528310485 L104.47416592438184,404.8262401176069 z" stroke-width="0"/></g><g id="g120" stroke-width="0"><path id="path122" style="fill:#000000;fill-opacity:1;fill-rule:nonzero;stroke:none" d="m131.32069537075756,437.257744120784 c0,1.5666203601446398 -1.2690700400256356,2.8392753437861633 -2.8392753437861633,2.8392753437861633 c-1.5666203601446398,0 -2.8356904001702716,-1.2726549836415266 -2.8356904001702716,-2.8392753437861633 c0,-1.5666203601446398 1.2690700400256356,-2.8392753437861633 2.8356904001702716,-2.8392753437861633 C130.05162533073155,434.41846877699766 131.32069537075756,435.69112376063936 131.32069537075756,437.257744120784 " stroke-width="0"/></g><g id="g124" stroke-width="0"><path id="path126" style="fill:#a01515;fill-opacity:1;fill-rule:nonzero;stroke:none" d="m627.4762135066173,1227.312996481633 h43.37423280867272 v-35.38697843246619 v-16.659232983048355 v-9.941048646867465 l-0.7241586104101095,-2.821350625706707 l-0.8603864678139905,-2.5954991779055336 l-0.9141606220523654,-2.2011553801574566 l-1.0073691560655467,-1.9932286504357415 l-0.9500100582112821,-1.595299909071773 l-1.0037842124496559,-1.4590720516678928 l-1.1758615060124535,-1.498506431442701 L663.1679121464339,1149.9714229123874 L661.7912937979315,1148.5625400713425 L660.3107120845685,1147.1823367792235 L658.7476766680395,1145.830813036033 L656.6433147655108,1144.099285269557 L654.9727310405059,1142.7477615263658 L653.5064891016059,1141.5252957533469 L652.3413824264413,1140.3315095292546 L649.1615374391453,1136.6103380559593 L646.0892407603268,1140.2096214463147 L644.3684678246975,1141.9196395510949 L642.9237355474936,1143.0990860007234 L641.4754183266732,1144.2677776195037 L640.1561590760259,1145.3504305915035 L638.750861178596,1146.5406318719797 L637.306128901392,1147.8312115737006 L635.9976244815914,1149.093111726494 L634.8468575808902,1150.3119925558976 L633.7857142705863,1151.5559679906116 L632.8464590432226,1152.7820187072464 L631.7996555073828,1154.3271294056958 L630.8424755619395,1155.969033581774 L629.802841913331,1158.091320202382 L629.1217026263113,1159.7511490965396 L628.5481116477687,1161.3715436109223 L627.9064067405249,1163.5547742730012 L627.4762135066173,1165.3257364192514 z" stroke-width="0"/></g><g id="g128" stroke-width="0"><path id="path130" style="fill:#a01515;fill-opacity:1;fill-rule:nonzero;stroke:none" d="m692.3615267590776,1227.312996481633 h43.37423280867272 v-35.38697843246619 v-16.659232983048355 v-9.941048646867465 l-0.7241586104101095,-2.821350625706707 l-0.8603864678139905,-2.5954991779055336 l-0.9141606220523654,-2.2011553801574566 l-1.0073691560655467,-1.9932286504357415 l-0.9500100582112821,-1.595299909071773 l-1.0037842124496559,-1.4590720516678928 l-1.1758615060124535,-1.498506431442701 L728.0532253988948,1149.9714229123874 L726.6766070503912,1148.5625400713425 L725.1960253370288,1147.1823367792235 L723.6329899205001,1145.830813036033 L721.5286280179712,1144.099285269557 L719.8580442929662,1142.7477615263658 L718.3918023540666,1141.5252957533469 L717.2266956789013,1140.3315095292546 L714.0468506916054,1136.6103380559593 L710.9745540127863,1140.2096214463147 L709.2537810771586,1141.9196395510949 L707.8090487999543,1143.0990860007234 L706.3607315791344,1144.2677776195037 L705.0414723284858,1145.3504305915035 L703.6361744310567,1146.5406318719797 L702.1914421538522,1147.8312115737006 L700.8829377340521,1149.093111726494 L699.7321708333506,1150.3119925558976 L698.6710275230472,1151.5559679906116 L697.7317722956834,1152.7820187072464 L696.6849687598431,1154.3271294056958 L695.7277888143998,1155.969033581774 L694.6881551657914,1158.091320202382 L694.0070158787723,1159.7511490965396 L693.4334249002292,1161.3715436109223 L692.7917199929843,1163.5547742730012 L692.3615267590776,1165.3257364192514 z" stroke-width="0"/></g><g id="g132" stroke-width="0"><path id="path134" style="fill:#a01515;fill-opacity:1;fill-rule:nonzero;stroke:none" d="m1036.100598264155,1227.312996481633 h43.37423280867272 v-35.38697843246619 v-16.659232983048355 v-9.941048646867465 l-0.7241586104101095,-2.821350625706707 l-0.8639714114298827,-2.5954991779055336 l-0.9105756784364725,-2.2011553801574566 l-1.0073691560655467,-1.9932286504357415 l-0.9500100582112821,-1.595299909071773 l-1.0037842124496559,-1.4590720516678928 l-1.1758615060124535,-1.498506431442701 L1071.7922969039703,1149.9714229123874 L1070.4156785554678,1148.5625400713425 L1068.9350968421054,1147.1823367792235 L1067.3720614255767,1145.830813036033 L1065.2676995230488,1144.099285269557 L1063.5971157980425,1142.7477615263658 L1062.127288915528,1141.5252957533469 L1060.9657671839784,1140.3315095292546 L1057.785922196683,1136.6103380559593 L1054.7136255178627,1140.2096214463147 L1052.9928525822352,1141.9196395510949 L1051.548120305031,1143.0990860007234 L1050.0998030842118,1144.2677776195037 L1048.780543833563,1145.3504305915035 L1047.3752459361333,1146.5406318719797 L1045.9305136589287,1147.8312115737006 L1044.6220092391288,1149.093111726494 L1043.4712423384274,1150.3119925558976 L1042.4100990281233,1151.5559679906116 L1041.4708438007601,1152.7820187072464 L1040.4240402649193,1154.3271294056958 L1039.4668603194757,1155.969033581774 L1038.427226670869,1158.091320202382 L1037.7460873838484,1159.7511490965396 L1037.1724964053055,1161.3715436109223 L1036.5307914980613,1163.5547742730012 L1036.100598264155,1165.3257364192514 z" stroke-width="0"/></g><g id="g136" stroke-width="0"><path id="path138" style="fill:#a01515;fill-opacity:1;fill-rule:nonzero;stroke:none" d="m1100.986020920411,1227.312996481633 h43.37423280867272 v-35.38697843246619 v-16.659232983048355 v-9.941048646867465 l-0.7241586104101095,-2.821350625706707 l-0.8603864678139905,-2.5954991779055336 l-0.9141606220523654,-2.2011553801574566 l-1.0073691560655467,-1.9932286504357415 l-0.9500100582112821,-1.595299909071773 l-1.0037842124496559,-1.4590720516678928 l-1.1758615060124535,-1.498506431442701 L1136.6777195602283,1149.9714229123874 L1135.3011012117258,1148.5625400713425 L1133.820519498363,1147.1823367792235 L1132.2574840818347,1145.830813036033 L1130.1531221793055,1144.099285269557 L1128.4825384543,1142.7477615263658 L1127.0127115717844,1141.5252957533469 L1125.8511898402353,1140.3315095292546 L1122.6713448529395,1136.6103380559593 L1119.5990481741208,1140.2096214463147 L1117.8782752384927,1141.9196395510949 L1116.4335429612877,1143.0990860007234 L1114.9852257404684,1144.2677776195037 L1113.66596648982,1145.3504305915035 L1112.260668592391,1146.5406318719797 L1110.8159363151865,1147.8312115737006 L1109.5074318953855,1149.093111726494 L1108.3566649946847,1150.3119925558976 L1107.2955216843802,1151.5559679906116 L1106.3562664570177,1152.7820187072464 L1105.3094629211764,1154.3271294056958 L1104.3522829757333,1155.969033581774 L1103.3126493271252,1158.091320202382 L1102.6315100401048,1159.7511490965396 L1102.057919061563,1161.3715436109223 L1101.416214154318,1163.5547742730012 L1100.986020920411,1165.3257364192514 z" stroke-width="0"/></g><g id="g140" stroke-width="0"><path id="path142" style="fill:#870707;fill-opacity:1;fill-rule:nonzero;stroke:none" d="m248.22149682687885,1227.312996481633 h43.37423280867272 v-35.38697843246619 v-16.659232983048355 v-9.941048646867465 l-0.7241586104101095,-2.821350625706707 l-0.8603864678139905,-2.5954991779055336 l-0.9141606220523654,-2.2011553801574566 l-1.0073691560655467,-1.9932286504357415 l-0.9500100582112821,-1.595299909071773 l-1.0037842124496559,-1.4590720516678928 l-1.1758615060124535,-1.498506431442701 L283.9131954666965,1149.9714229123874 L282.5365771181939,1148.5625400713425 L281.05599540483075,1147.1823367792235 L279.49295998830235,1145.830813036033 L277.3885980857736,1144.099285269557 L275.7180143607685,1142.7477615263658 L274.2481874782525,1141.5252957533469 L273.0866657467036,1140.3315095292546 L269.90682075940816,1136.6103380559593 L266.83452408058866,1140.2096214463147 L265.1137511449608,1141.9196395510949 L263.66901886775656,1143.0990860007234 L262.2207016469364,1144.2677776195037 L260.9014423962882,1145.3504305915035 L259.4961444988586,1146.5406318719797 L258.0514122216545,1147.8312115737006 L256.742907801854,1149.093111726494 L255.59214090115267,1150.3119925558976 L254.53099759084847,1151.5559679906116 L253.59174236348446,1152.7820187072464 L252.54493882764467,1154.3271294056958 L251.5877588822014,1155.969033581774 L250.54812523359337,1158.091320202382 L249.86698594657355,1159.7511490965396 L249.29339496803124,1161.3715436109223 L248.65169006078656,1163.5547742730012 L248.22149682687885,1165.3257364192514 z" stroke-width="0"/></g><g id="g144" stroke-width="0"><path id="path146" style="fill:#870707;fill-opacity:1;fill-rule:nonzero;stroke:none" d="m313.10713829073035,1227.312996481633 h43.37423280867272 v-35.38697843246619 v-16.659232983048355 v-9.941048646867465 l-0.7241586104101095,-2.821350625706707 l-0.8603864678139905,-2.5954991779055336 l-0.9141606220523654,-2.2011553801574566 l-1.0073691560655467,-1.9932286504357415 l-0.9500100582112821,-1.595299909071773 l-1.0037842124496559,-1.4590720516678928 l-1.1758615060124535,-1.498506431442701 L348.7988369305475,1149.9714229123874 L347.422218582045,1148.5625400713425 L345.9416368686818,1147.1823367792235 L344.37860145215245,1145.830813036033 L342.27423954962507,1144.099285269557 L340.60365582461895,1142.7477615263658 L339.13382894210355,1141.5252957533469 L337.97230721055496,1140.3315095292546 L334.7924622232587,1136.6103380559593 L331.72016554443974,1140.2096214463147 L329.9993926088121,1141.9196395510949 L328.5546603316074,1143.0990860007234 L327.1063431107868,1144.2677776195037 L325.7870838601388,1145.3504305915035 L324.3817859627097,1146.5406318719797 L322.93705368550485,1147.8312115737006 L321.62854926570503,1149.093111726494 L320.4777823650035,1150.3119925558976 L319.4166390547,1151.5559679906116 L318.4773838273362,1152.7820187072464 L317.4305802914957,1154.3271294056958 L316.4734003460525,1155.969033581774 L315.4337666974442,1158.091320202382 L314.7526274104247,1159.7511490965396 L314.1790364318817,1161.3715436109223 L313.53733152463747,1163.5547742730012 L313.10713829073035,1165.3257364192514 z" stroke-width="0"/></g><g id="g148" stroke-width="0"><path id="path150" style="fill:#870707;fill-opacity:1;fill-rule:nonzero;stroke:none" d="m450.03616462876266,1227.312996481633 h43.37423280867272 v-35.38697843246619 v-16.659232983048355 v-9.941048646867465 l-0.7241586104101095,-2.821350625706707 l-0.8603864678139905,-2.5954991779055336 l-0.9141606220523654,-2.2011553801574566 l-1.0073691560655467,-1.9932286504357415 l-0.9500100582112821,-1.595299909071773 l-1.0037842124496559,-1.4590720516678928 l-1.1758615060124535,-1.498506431442701 L485.7278632685795,1149.9714229123874 L484.3512449200779,1148.5625400713425 L482.87066320671437,1147.1823367792235 L481.30762779018494,1145.830813036033 L479.20326588765636,1144.099285269557 L477.53268216265144,1142.7477615263658 L476.06285528013603,1141.5252957533469 L474.9013335485872,1140.3315095292546 L471.72148856129127,1136.6103380559593 L468.6491918824715,1140.2096214463147 L466.9284189468437,1141.9196395510949 L465.48368666963967,1143.0990860007234 L464.03536944881944,1144.2677776195037 L462.71611019817124,1145.3504305915035 L461.3108123007413,1146.5406318719797 L459.86608002353756,1147.8312115737006 L458.55757560373706,1149.093111726494 L457.406808703036,1150.3119925558976 L456.3456653927325,1151.5559679906116 L455.4064101653687,1152.7820187072464 L454.35960662952795,1154.3271294056958 L453.40242668408473,1155.969033581774 L452.3627930354762,1158.091320202382 L451.6816537484571,1159.7511490965396 L451.10806276991434,1161.3715436109223 L450.4663578626697,1163.5547742730012 L450.03616462876266,1165.3257364192514 z" stroke-width="0"/></g><g id="g152" stroke-width="0"><path id="path154" style="fill:#870707;fill-opacity:1;fill-rule:nonzero;stroke:none" d="m518.5065309009115,1227.312996481633 h43.37423280867272 v-35.38697843246619 v-16.659232983048355 v-9.941048646867465 l-0.7241586104101095,-2.821350625706707 l-0.8603864678139905,-2.5954991779055336 l-0.9141606220523654,-2.2011553801574566 l-1.0073691560655467,-1.9932286504357415 l-0.9500100582112821,-1.595299909071773 l-1.0037842124496559,-1.4590720516678928 l-1.1758615060124535,-1.498506431442701 L554.1982295407282,1149.9714229123874 L552.8216111922262,1148.5625400713425 L551.3410294788625,1147.1823367792235 L549.7779940623338,1145.830813036033 L547.673632159806,1144.099285269557 L546.0030484348002,1142.7477615263658 L544.5368064959007,1141.5252957533469 L543.3716998207362,1140.3315095292546 L540.1918548334398,1136.6103380559593 L537.1195581546203,1140.2096214463147 L535.3987852189928,1141.9196395510949 L533.9540529417883,1143.0990860007234 L532.5057357209686,1144.2677776195037 L531.18647647032,1145.3504305915035 L529.7811785728903,1146.5406318719797 L528.3364462956869,1147.8312115737006 L527.027941875886,1149.093111726494 L525.8771749751846,1150.3119925558976 L524.8160316648804,1151.5559679906116 L523.8767764375173,1152.7820187072464 L522.8299729016773,1154.3271294056958 L521.8727929562332,1155.969033581774 L520.8331593076257,1158.091320202382 L520.1520200206054,1159.7511490965396 L519.5784290420628,1161.3715436109223 L518.9367241348182,1163.5547742730012 L518.5065309009115,1165.3257364192514 z" stroke-width="0"/></g><g id="g156" stroke-width="0"><path id="path158" style="fill:#870707;fill-opacity:1;fill-rule:nonzero;stroke:none" d="m382.6482395228626,1227.312996481633 h43.37423280867272 v-35.38697843246619 v-16.659232983048355 v-9.941048646867465 l-0.7241586104101095,-2.821350625706707 l-0.8603864678139905,-2.5954991779055336 l-0.9141606220523654,-2.2011553801574566 l-1.0073691560655467,-1.9932286504357415 l-0.9500100582112821,-1.595299909071773 l-1.0037842124496559,-1.4590720516678928 l-1.1758615060124535,-1.498506431442701 L418.339938162679,1149.9714229123874 L416.96331981417654,1148.5625400713425 L415.4827381008136,1147.1823367792235 L413.9197026842849,1145.830813036033 L411.81534078175633,1144.099285269557 L410.1447570567509,1142.7477615263658 L408.67493017423544,1141.5252957533469 L407.5134084426869,1140.3315095292546 L404.3335634553907,1136.6103380559593 L401.26126677657163,1140.2096214463147 L399.5404938409436,1141.9196395510949 L398.0957615637396,1143.0990860007234 L396.64744434291896,1144.2677776195037 L395.32818509227076,1145.3504305915035 L393.9228871948412,1146.5406318719797 L392.478154917637,1147.8312115737006 L391.1696504978365,1149.093111726494 L390.0188835971357,1150.3119925558976 L388.9577402868317,1151.5559679906116 L388.01848505946845,1152.7820187072464 L386.9716815236274,1154.3271294056958 L386.01450157818493,1155.969033581774 L384.9748679295761,1158.091320202382 L384.29372864255663,1159.7511490965396 L383.7201376640138,1161.3715436109223 L383.07843275676964,1163.5547742730012 L382.6482395228626,1165.3257364192514 z" stroke-width="0"/></g><g id="g160" stroke-width="0"><path id="path162" style="fill:#870707;fill-opacity:1;fill-rule:nonzero;stroke:none" d="m800.3124412083139,1227.312996481633 h43.37423280867272 v-35.38697843246619 v-16.659232983048355 v-9.941048646867465 l-0.7241586104101095,-2.821350625706707 l-0.8603864678139905,-2.5954991779055336 l-0.9141606220523654,-2.2011553801574566 l-1.0073691560655467,-1.9932286504357415 l-0.9500100582112821,-1.595299909071773 l-1.0037842124496559,-1.4590720516678928 l-1.1758615060124535,-1.498506431442701 L836.0041398481304,1149.9714229123874 L834.6275214996282,1148.5625400713425 L833.1469397862643,1147.1823367792235 L831.5839043697363,1145.830813036033 L829.4795424672079,1144.099285269557 L827.8089587422025,1142.7477615263658 L826.3427168033024,1141.5252957533469 L825.1776101281379,1140.3315095292546 L821.9977651408416,1136.6103380559593 L818.9254684620226,1140.2096214463147 L817.2046955263953,1141.9196395510949 L815.7599632491912,1143.0990860007234 L814.3116460283709,1144.2677776195037 L812.9923867777223,1145.3504305915035 L811.5870888802928,1146.5406318719797 L810.1423566030894,1147.8312115737006 L808.8338521832877,1149.093111726494 L807.6830852825867,1150.3119925558976 L806.6219419722829,1151.5559679906116 L805.6826867449195,1152.7820187072464 L804.6358832090795,1154.3271294056958 L803.6787032636356,1155.969033581774 L802.6390696150272,1158.091320202382 L801.9579303280078,1159.7511490965396 L801.3843393494654,1161.3715436109223 L800.742634442221,1163.5547742730012 L800.3124412083139,1165.3257364192514 z" stroke-width="0"/></g><g id="g164" stroke-width="0"><path id="path166" style="fill:#870707;fill-opacity:1;fill-rule:nonzero;stroke:none" d="m865.1980826721647,1227.312996481633 h43.37423280867272 v-35.38697843246619 v-16.659232983048355 v-9.941048646867465 l-0.7241586104101095,-2.821350625706707 l-0.8639714114298827,-2.5954991779055336 l-0.9105756784364725,-2.2011553801574566 l-1.0073691560655467,-1.9932286504357415 l-0.9500100582112821,-1.595299909071773 l-1.0037842124496559,-1.4590720516678928 l-1.1758615060124535,-1.498506431442701 L900.8897813119817,1149.9714229123874 L899.5131629634791,1148.5625400713425 L898.0325812501152,1147.1823367792235 L896.4695458335866,1145.830813036033 L894.3651839310584,1144.099285269557 L892.6946002060537,1142.7477615263658 L891.2247733235373,1141.5252957533469 L890.0632515919884,1140.3315095292546 L886.8834066046921,1136.6103380559593 L883.8111099258734,1140.2096214463147 L882.0903369902453,1141.9196395510949 L880.6456047130423,1143.0990860007234 L879.1972874922218,1144.2677776195037 L877.8780282415735,1145.3504305915035 L876.4727303441433,1146.5406318719797 L875.0279980669392,1147.8312115737006 L873.7194936471385,1149.093111726494 L872.5687267464378,1150.3119925558976 L871.5075834361342,1151.5559679906116 L870.5683282087701,1152.7820187072464 L869.5215246729298,1154.3271294056958 L868.5643447274867,1155.969033581774 L867.5247110788786,1158.091320202382 L866.8435717918595,1159.7511490965396 L866.2699808133165,1161.3715436109223 L865.628275906071,1163.5547742730012 L865.1980826721647,1165.3257364192514 z" stroke-width="0"/></g><g id="g168" stroke-width="0"><path id="path170" style="fill:#870707;fill-opacity:1;fill-rule:nonzero;stroke:none" d="m928.1496838149174,1227.312996481633 h43.37423280867272 v-35.38697843246619 v-16.659232983048355 v-9.941048646867465 l-0.7241586104101095,-2.821350625706707 l-0.8603864678139905,-2.5954991779055336 l-0.9141606220523654,-2.2011553801574566 l-1.0073691560655467,-1.9932286504357415 l-0.9500100582112821,-1.595299909071773 l-1.0037842124496559,-1.4590720516678928 l-1.1758615060124535,-1.498506431442701 L963.8413824547348,1149.9714229123874 L962.4647641062322,1148.5625400713425 L960.9841823928688,1147.1823367792235 L959.4211469763402,1145.830813036033 L957.316785073812,1144.099285269557 L955.6462013488065,1142.7477615263658 L954.1763744662908,1141.5252957533469 L953.0148527347421,1140.3315095292546 L949.835007747446,1136.6103380559593 L946.762711068627,1140.2096214463147 L945.0419381329987,1141.9196395510949 L943.597205855795,1143.0990860007234 L942.1488886349747,1144.2677776195037 L940.8296293843256,1145.3504305915035 L939.4243314868963,1146.5406318719797 L937.9795992096928,1147.8312115737006 L936.6710947898921,1149.093111726494 L935.5203278891911,1150.3119925558976 L934.4591845788873,1151.5559679906116 L933.519929351524,1152.7820187072464 L932.4731258156829,1154.3271294056958 L931.5159458702393,1155.969033581774 L930.4763122216319,1158.091320202382 L929.7951729346117,1159.7511490965396 L929.2215819560699,1161.3715436109223 L928.5798770488249,1163.5547742730012 L928.1496838149174,1165.3257364192514 z" stroke-width="0"/></g><g id="g172" stroke-width="0"><path id="path174" style="fill:#a01515;fill-opacity:1;fill-rule:nonzero;stroke:none" d="m-847.3541696060265,1227.312996481633 h43.37423280867272 v-35.38697843246619 v-16.659232983048355 v-9.941048646867465 l-0.7241586104101095,-2.821350625706707 l-0.8603864678139905,-2.5954991779055336 l-0.9141606220523654,-2.2011553801574566 l-1.0073691560655467,-1.9932286504357415 l-0.9500100582112821,-1.595299909071773 l-1.0037842124496559,-1.4590720516678928 l-1.1758615060124535,-1.498506431442701 L-811.6624709662094,1149.9714229123874 L-813.0390893147119,1148.5625400713425 L-814.5196710280751,1147.1823367792235 L-816.0827064446039,1145.830813036033 L-818.187068347132,1144.099285269557 L-819.8576520721376,1142.7477615263658 L-821.3238940110372,1141.5252957533469 L-822.4890006862021,1140.3315095292546 L-825.668845673498,1136.6103380559593 L-828.741142352317,1140.2096214463147 L-830.4619152879449,1141.9196395510949 L-831.9066475651495,1143.0990860007234 L-833.3549647859696,1144.2677776195037 L-834.6742240366178,1145.3504305915035 L-836.0795219340473,1146.5406318719797 L-837.5242542112516,1147.8312115737006 L-838.832758631052,1149.093111726494 L-839.9835255317529,1150.3119925558976 L-841.044668842057,1151.5559679906116 L-841.9839240694207,1152.7820187072464 L-843.030727605261,1154.3271294056958 L-843.9879075507042,1155.969033581774 L-845.0275411993129,1158.091320202382 L-845.7086804863322,1159.7511490965396 L-846.2822714648747,1161.3715436109223 L-846.9239763721195,1163.5547742730012 L-847.3541696060265,1165.3257364192514 z" stroke-width="0"/></g><g id="g176" stroke-width="0"><path id="path178" style="fill:#a01515;fill-opacity:1;fill-rule:nonzero;stroke:none" d="m-782.468829002617,1227.312996481633 h43.37423280867272 v-35.38697843246619 v-16.659232983048355 v-9.941048646867465 l-0.7241586104101095,-2.821350625706707 l-0.8603864678139905,-2.5954991779055336 l-0.9141606220523654,-2.2011553801574566 l-1.0073691560655467,-1.9932286504357415 l-0.9500100582112821,-1.595299909071773 l-1.0037842124496559,-1.4590720516678928 l-1.1758615060124535,-1.498506431442701 L-746.7771303628,1149.9714229123874 L-748.1537487113022,1148.5625400713425 L-749.6343304246656,1147.1823367792235 L-751.1973658411943,1145.830813036033 L-753.3017277437226,1144.099285269557 L-754.9723114687283,1142.7477615263658 L-756.4385534076279,1141.5252957533469 L-757.6036600827925,1140.3315095292546 L-760.7835050700885,1136.6103380559593 L-763.8558017489075,1140.2096214463147 L-765.5765746845356,1141.9196395510949 L-767.02130696174,1143.0990860007234 L-768.4696241825601,1144.2677776195037 L-769.7888834332082,1145.3504305915035 L-771.1941813306377,1146.5406318719797 L-772.638913607842,1147.8312115737006 L-773.9474180276425,1149.093111726494 L-775.0981849283437,1150.3119925558976 L-776.1593282386477,1151.5559679906116 L-777.0985834660112,1152.7820187072464 L-778.1453870018516,1154.3271294056958 L-779.1025669472946,1155.969033581774 L-780.1422005959032,1158.091320202382 L-780.8233398829227,1159.7511490965396 L-781.3969308614654,1161.3715436109223 L-782.0386357687098,1163.5547742730012 L-782.468829002617,1165.3257364192514 z" stroke-width="0"/></g><g id="g180" stroke-width="0"><path id="path182" style="fill:#a01515;fill-opacity:1;fill-rule:nonzero;stroke:none" d="m-464.124402721702,1227.312996481633 h43.37423280867272 v-35.38697843246619 v-16.659232983048355 v-9.941048646867465 l-0.7241586104101095,-2.821350625706707 l-0.8603864678139905,-2.5954991779055336 l-0.9141606220523654,-2.2011553801574566 l-1.0073691560655467,-1.9932286504357415 l-0.9500100582112821,-1.595299909071773 l-1.0037842124496559,-1.4590720516678928 l-1.1758615060124535,-1.498506431442701 L-428.43270408188505,1149.9714229123874 L-429.8093224303873,1148.5625400713425 L-431.2899041437509,1147.1823367792235 L-432.85293956027937,1145.830813036033 L-434.9573014628077,1144.099285269557 L-436.62788518781343,1142.7477615263658 L-438.09412712671286,1141.5252957533469 L-439.25923380187766,1140.3315095292546 L-442.43907878917383,1136.6103380559593 L-445.511375467993,1140.2096214463147 L-447.2321484036208,1141.9196395510949 L-448.6768806808251,1143.0990860007234 L-450.12519790164527,1144.2677776195037 L-451.44445715229324,1145.3504305915035 L-452.8497550497229,1146.5406318719797 L-454.2944873269273,1147.8312115737006 L-455.6029917467276,1149.093111726494 L-456.7537586474289,1150.3119925558976 L-457.81490195773273,1151.5559679906116 L-458.75415718509663,1152.7820187072464 L-459.80096072093676,1154.3271294056958 L-460.75814066637963,1155.969033581774 L-461.7977743149884,1158.091320202382 L-462.47891360200794,1159.7511490965396 L-463.0525045805504,1161.3715436109223 L-463.69420948779504,1163.5547742730012 L-464.124402721702,1165.3257364192514 z" stroke-width="0"/></g><g id="g184" stroke-width="0"><path id="path186" style="fill:#a01515;fill-opacity:1;fill-rule:nonzero;stroke:none" d="m-399.2387065559527,1227.312996481633 h43.37423280867272 v-35.38697843246619 v-16.659232983048355 v-9.941048646867465 l-0.7241586104101095,-2.821350625706707 l-0.8603864678139905,-2.5954991779055336 l-0.9141606220523654,-2.2011553801574566 l-1.0073691560655467,-1.9932286504357415 l-0.9500100582112821,-1.595299909071773 l-1.0037842124496559,-1.4590720516678928 l-1.1758615060124535,-1.498506431442701 L-363.5470079161355,1149.9714229123874 L-364.9236262646381,1148.5625400713425 L-366.40420797800124,1147.1823367792235 L-367.96724339453004,1145.830813036033 L-370.07160529705834,1144.099285269557 L-371.74218902206405,1142.7477615263658 L-373.2084309609638,1141.5252957533469 L-374.37353763612816,1140.3315095292546 L-377.5533826234242,1136.6103380559593 L-380.62567930224344,1140.2096214463147 L-382.34645223787146,1141.9196395510949 L-383.7911845150756,1143.0990860007234 L-385.23950173589583,1144.2677776195037 L-386.55876098654403,1145.3504305915035 L-387.9640588839733,1146.5406318719797 L-389.40879116117765,1147.8312115737006 L-390.71729558097803,1149.093111726494 L-391.86806248167943,1150.3119925558976 L-392.9292057919837,1151.5559679906116 L-393.86846101934714,1152.7820187072464 L-394.9152645551874,1154.3271294056958 L-395.8724445006304,1155.969033581774 L-396.91207814923916,1158.091320202382 L-397.59321743625844,1159.7511490965396 L-398.1668084148013,1161.3715436109223 L-398.80851332204537,1163.5547742730012 L-399.2387065559527,1165.3257364192514 z" stroke-width="0"/></g><g id="g188" stroke-width="0"><path id="path190" style="fill:#870707;fill-opacity:1;fill-rule:nonzero;stroke:none" d="m-688.0037923823635,1227.312996481633 h43.37423280867272 v-35.38697843246619 v-16.659232983048355 v-9.941048646867465 l-0.7241586104101095,-2.821350625706707 l-0.8603864678139905,-2.5954991779055336 l-0.9141606220523654,-2.2011553801574566 l-1.0073691560655467,-1.9932286504357415 l-0.9500100582112821,-1.595299909071773 l-1.0037842124496559,-1.4590720516678928 l-1.1758615060124535,-1.498506431442701 L-652.3120937425465,1149.9714229123874 L-653.6887120910488,1148.5625400713425 L-655.1692938044121,1147.1823367792235 L-656.7323292209408,1145.830813036033 L-658.8366911234691,1144.099285269557 L-660.5072748484747,1142.7477615263658 L-661.9771017309902,1141.5252957533469 L-663.1386234625393,1140.3315095292546 L-666.318468449835,1136.6103380559593 L-669.390765128654,1140.2096214463147 L-671.1115380642821,1141.9196395510949 L-672.5562703414863,1143.0990860007234 L-674.0045875623066,1144.2677776195037 L-675.3238468129547,1145.3504305915035 L-676.7291447103842,1146.5406318719797 L-678.1738769875885,1147.8312115737006 L-679.4823814073891,1149.093111726494 L-680.6331483080902,1150.3119925558976 L-681.6942916183942,1151.5559679906116 L-682.6335468457578,1152.7820187072464 L-683.680350381598,1154.3271294056958 L-684.6375303270413,1155.969033581774 L-685.6771639756498,1158.091320202382 L-686.3583032626692,1159.7511490965396 L-686.9318942412117,1161.3715436109223 L-687.5735991484563,1163.5547742730012 L-688.0037923823635,1165.3257364192514 z" stroke-width="0"/></g><g id="g192" stroke-width="0"><path id="path194" style="fill:#870707;fill-opacity:1;fill-rule:nonzero;stroke:none" d="m-623.118096216614,1227.312996481633 h43.37423280867272 v-35.38697843246619 v-16.659232983048355 v-9.941048646867465 l-0.7241586104101095,-2.821350625706707 l-0.8603864678139905,-2.5954991779055336 l-0.9141606220523654,-2.2011553801574566 l-1.0073691560655467,-1.9932286504357415 l-0.9500100582112821,-1.595299909071773 l-1.0037842124496559,-1.4590720516678928 l-1.1758615060124535,-1.498506431442701 L-587.4263975767971,1149.9714229123874 L-588.8030159252994,1148.5625400713425 L-590.2835976386627,1147.1823367792235 L-591.8466330551915,1145.830813036033 L-593.9509949577199,1144.099285269557 L-595.6215786827254,1142.7477615263658 L-597.0878206216249,1141.5252957533469 L-598.25292729679,1140.3315095292546 L-601.4327722840857,1136.6103380559593 L-604.5050689629048,1140.2096214463147 L-606.225841898533,1141.9196395510949 L-607.6705741757371,1143.0990860007234 L-609.118891396557,1144.2677776195037 L-610.4381506472054,1145.3504305915035 L-611.843448544635,1146.5406318719797 L-613.2881808218393,1147.8312115737006 L-614.5966852416396,1149.093111726494 L-615.7474521423408,1150.3119925558976 L-616.8085954526448,1151.5559679906116 L-617.7478506800084,1152.7820187072464 L-618.7946542158487,1154.3271294056958 L-619.751834161292,1155.969033581774 L-620.7914678099005,1158.091320202382 L-621.4726070969199,1159.7511490965396 L-622.0461980754625,1161.3715436109223 L-622.6879029827071,1163.5547742730012 L-623.118096216614,1165.3257364192514 z" stroke-width="0"/></g><g id="g196" stroke-width="0"><path id="path198" style="fill:#870707;fill-opacity:1;fill-rule:nonzero;stroke:none" d="m-560.166495073861,1227.312996481633 h43.37423280867272 v-35.38697843246619 v-16.659232983048355 v-9.941048646867465 l-0.7241586104101095,-2.821350625706707 l-0.8603864678139905,-2.5954991779055336 l-0.9141606220523654,-2.2011553801574566 l-1.0073691560655467,-1.9932286504357415 l-0.9500100582112821,-1.595299909071773 l-1.0037842124496559,-1.4590720516678928 l-1.1758615060124535,-1.498506431442701 L-524.4747964340438,1149.9714229123874 L-525.8514147825463,1148.5625400713425 L-527.3319964959095,1147.1823367792235 L-528.8950319124384,1145.830813036033 L-530.9993938149668,1144.099285269557 L-532.6699775399723,1142.7477615263658 L-534.1362194788719,1141.5252957533469 L-535.3013261540367,1140.3315095292546 L-538.4811711413327,1136.6103380559593 L-541.5534678201518,1140.2096214463147 L-543.2742407557794,1141.9196395510949 L-544.7189730329839,1143.0990860007234 L-546.1672902538043,1144.2677776195037 L-547.4865495044522,1145.3504305915035 L-548.8918474018818,1146.5406318719797 L-550.3365796790862,1147.8312115737006 L-551.6450840988867,1149.093111726494 L-552.7958509995879,1150.3119925558976 L-553.8569943098919,1151.5559679906116 L-554.7962495372552,1152.7820187072464 L-555.8430530730956,1154.3271294056958 L-556.8002330185388,1155.969033581774 L-557.8398666671474,1158.091320202382 L-558.5210059541666,1159.7511490965396 L-559.0945969327095,1161.3715436109223 L-559.736301839954,1163.5547742730012 L-560.166495073861,1165.3257364192514 z" stroke-width="0"/></g><g id="g200" stroke-width="0"><path id="path202" style="fill:#870707;fill-opacity:1;fill-rule:nonzero;stroke:none" d="m-300.6599230676282,1227.312996481633 h43.37423280867272 v-35.38697843246619 v-16.659232983048355 v-9.941048646867465 l-0.7241586104101095,-2.821350625706707 l-0.8603864678139905,-2.5954991779055336 l-0.9141606220523654,-2.2011553801574566 l-1.0073691560655467,-1.9932286504357415 l-0.9500100582112821,-1.595299909071773 l-1.0037842124496559,-1.4590720516678928 l-1.1758615060124535,-1.498506431442701 L-264.96822442781126,1149.9714229123874 L-266.34484277631367,1148.5625400713425 L-267.8254244896768,1147.1823367792235 L-269.3884599062058,1145.830813036033 L-271.49282180873416,1144.099285269557 L-273.1634055337395,1142.7477615263658 L-274.6296474726393,1141.5252957533469 L-275.7947541478039,1140.3315095292546 L-278.9745991350998,1136.6103380559593 L-282.0468958139192,1140.2096214463147 L-283.76766874954694,1141.9196395510949 L-285.21240102675154,1143.0990860007234 L-286.66071824757154,1144.2677776195037 L-287.9799774982195,1145.3504305915035 L-289.3852753956492,1146.5406318719797 L-290.8300076728535,1147.8312115737006 L-292.13851209265397,1149.093111726494 L-293.28927899335497,1150.3119925558976 L-294.35042230365906,1151.5559679906116 L-295.2896775310226,1152.7820187072464 L-296.3364810668631,1154.3271294056958 L-297.2936610123064,1155.969033581774 L-298.3332946609146,1158.091320202382 L-299.01443394793426,1159.7511490965396 L-299.5880249264768,1161.3715436109223 L-300.2297298337213,1163.5547742730012 L-300.6599230676282,1165.3257364192514 z" stroke-width="0"/></g><g id="g204" stroke-width="0"><path id="path206" style="fill:#870707;fill-opacity:1;fill-rule:nonzero;stroke:none" d="m-235.77460981516802,1227.312996481633 h43.37423280867272 v-35.38697843246619 v-16.659232983048355 v-9.941048646867465 l-0.7241586104101095,-2.821350625706707 l-0.8603864678139905,-2.5954991779055336 l-0.9141606220523654,-2.2011553801574566 l-1.0073691560655467,-1.9932286504357415 l-0.9500100582112821,-1.595299909071773 l-1.0037842124496559,-1.4590720516678928 l-1.1758615060124535,-1.498506431442701 L-200.08291117535106,1149.9714229123874 L-201.45952952385335,1148.5625400713425 L-202.9401112372165,1147.1823367792235 L-204.50314665374555,1145.830813036033 L-206.60750855627361,1144.099285269557 L-208.2780922812794,1142.7477615263658 L-209.74433422017898,1141.5252957533469 L-210.90944089534383,1140.3315095292546 L-214.0892858826395,1136.6103380559593 L-217.16158256145852,1140.2096214463147 L-218.88235549708628,1141.9196395510949 L-220.32708777429107,1143.0990860007234 L-221.77540499511127,1144.2677776195037 L-223.09466424575925,1145.3504305915035 L-224.49996214318887,1146.5406318719797 L-225.94469442039332,1147.8312115737006 L-227.2531988401935,1149.093111726494 L-228.40396574089473,1150.3119925558976 L-229.46510905119874,1151.5559679906116 L-230.40436427856235,1152.7820187072464 L-231.45116781440268,1154.3271294056958 L-232.40834775984555,1155.969033581774 L-233.44798140845404,1158.091320202382 L-234.1291206954735,1159.7511490965396 L-234.70271167401626,1161.3715436109223 L-235.34441658126093,1163.5547742730012 L-235.77460981516802,1165.3257364192514 z" stroke-width="0"/></g><g id="g208" stroke-width="0"><path id="path210" style="fill:#870707;fill-opacity:1;fill-rule:nonzero;stroke:none" d="m-98.84552877523727,1227.312996481633 h43.37423280867272 v-35.38697843246619 v-16.659232983048355 v-9.941048646867465 l-0.7241586104101095,-2.821350625706707 l-0.8603864678139905,-2.5954991779055336 l-0.9141606220523654,-2.2011553801574566 l-1.0073691560655467,-1.9932286504357415 l-0.9500100582112821,-1.595299909071773 l-1.0037842124496559,-1.4590720516678928 l-1.1758615060124535,-1.498506431442701 L-63.15383013542066,1149.9714229123874 L-64.5304484839229,1148.5625400713425 L-66.01103019728626,1147.1823367792235 L-67.57406561381507,1145.830813036033 L-69.67842751634349,1144.099285269557 L-71.34901124134872,1142.7477615263658 L-72.81883812386424,1141.5252957533469 L-73.98035985541316,1140.3315095292546 L-77.16020484270904,1136.6103380559593 L-80.23250152152804,1140.2096214463147 L-81.95327445715638,1141.9196395510949 L-83.39800673436034,1143.0990860007234 L-84.84632395518064,1144.2677776195037 L-86.16558320582874,1145.3504305915035 L-87.57088110325849,1146.5406318719797 L-89.01561338046268,1147.8312115737006 L-90.32411780026293,1149.093111726494 L-91.47488470096424,1150.3119925558976 L-92.53602801126789,1151.5559679906116 L-93.47528323863187,1152.7820187072464 L-94.52208677447216,1154.3271294056958 L-95.47926671991527,1155.969033581774 L-96.5189003685238,1158.091320202382 L-97.20003965554312,1159.7511490965396 L-97.7736306340859,1161.3715436109223 L-98.41533554133044,1163.5547742730012 L-98.84552877523727,1165.3257364192514 z" stroke-width="0"/></g><g id="g212" stroke-width="0"><path id="path214" style="fill:#870707;fill-opacity:1;fill-rule:nonzero;stroke:none" d="m-30.374943695494913,1227.312996481633 h43.37423280867272 v-35.38697843246619 v-16.659232983048355 v-9.941048646867465 l-0.7241586104101095,-2.821350625706707 l-0.8603864678139905,-2.5954991779055336 l-0.9141606220523654,-2.2011553801574566 l-1.0073691560655467,-1.9932286504357415 l-0.9500100582112821,-1.595299909071773 l-1.0037842124496559,-1.4590720516678928 l-1.1758615060124535,-1.498506431442701 L5.316754944322163,1149.9714229123874 L3.9401365958193555,1148.5625400713425 L2.4595548824564677,1147.1823367792235 L0.8965194659276543,1145.830813036033 L-1.207842436600178,1144.099285269557 L-2.87842616160635,1142.7477615263658 L-4.344668100505643,1141.5252957533469 L-5.509774775670662,1140.3315095292546 L-8.689619762966675,1136.6103380559593 L-11.761916441785445,1140.2096214463147 L-13.482689377413422,1141.9196395510949 L-14.927421654617978,1143.0990860007234 L-16.375738875438277,1144.2677776195037 L-17.694998126086247,1145.3504305915035 L-19.10029602351554,1146.5406318719797 L-20.545028300720325,1147.8312115737006 L-21.853532720520334,1149.093111726494 L-23.004299621221524,1150.3119925558976 L-24.065442931525173,1151.5559679906116 L-25.004698158889155,1152.7820187072464 L-26.05150169473003,1154.3271294056958 L-27.008681640172664,1155.969033581774 L-28.048315288781215,1158.091320202382 L-28.729454575800652,1159.7511490965396 L-29.303045554343537,1161.3715436109223 L-29.944750461587827,1163.5547742730012 L-30.374943695494913,1165.3257364192514 z" stroke-width="0"/></g><g id="g216" stroke-width="0"><path id="path218" style="fill:#870707;fill-opacity:1;fill-rule:nonzero;stroke:none" d="m-166.23350858303604,1227.312996481633 h43.37423280867272 v-35.38697843246619 v-16.659232983048355 v-9.941048646867465 l-0.7241586104101095,-2.821350625706707 l-0.8603864678139905,-2.5954991779055336 l-0.9141606220523654,-2.2011553801574566 l-1.0073691560655467,-1.9932286504357415 l-0.9500100582112821,-1.595299909071773 l-1.0037842124496559,-1.4590720516678928 l-1.1758615060124535,-1.498506431442701 L-130.54180994321896,1149.9714229123874 L-131.91842829172154,1148.5625400713425 L-133.39901000508453,1147.1823367792235 L-134.96204542161337,1145.830813036033 L-137.06640732414166,1144.099285269557 L-138.73699104914724,1142.7477615263658 L-140.2032329880469,1141.5252957533469 L-141.36833966321166,1140.3315095292546 L-144.54818465050735,1136.6103380559593 L-147.62048132932668,1140.2096214463147 L-149.34125426495456,1141.9196395510949 L-150.7859865421592,1143.0990860007234 L-152.2343037629794,1144.2677776195037 L-153.55356301362738,1145.3504305915035 L-154.9588609110567,1146.5406318719797 L-156.40359318826086,1147.8312115737006 L-157.71209760806147,1149.093111726494 L-158.86286450876267,1150.3119925558976 L-159.92400781906687,1151.5559679906116 L-160.86326304643052,1152.7820187072464 L-161.9100665822707,1154.3271294056958 L-162.86724652771392,1155.969033581774 L-163.9068801763222,1158.091320202382 L-164.58801946334177,1159.7511490965396 L-165.1616104418843,1161.3715436109223 L-165.80331534912884,1163.5547742730012 L-166.23350858303604,1165.3257364192514 z" stroke-width="0"/></g><path id="path220" style="fill:#c92f2f;fill-opacity:1;fill-rule:nonzero;stroke:none" d="m124.1519301843148,14.214679380454996 h107.93189744364902 V68.18242057408759 h-107.93189744364902 z" stroke-width="0"/><path id="path222" style="fill:#ffffff;fill-opacity:1;fill-rule:nonzero;stroke:none" d="m151.13221583751493,14.214679380454996 h53.96774119363243 V68.18242057408759 h-53.96774119363243 z" stroke-width="0"/><g id="g224" stroke-width="0"><path id="path226" style="fill:#c92f2f;fill-opacity:1;fill-rule:nonzero;stroke:none" d="m178.1160908104838,19.2745209636549 l-3.6817370935206934,6.86875196804834 c-0.41943840305932073,0.7456682721054584 -1.1651066751647778,0.6739693997876273 -1.9143598908861281,0.2581159403441972 l-2.6671980502233676,-1.3802032921182752 l1.9860587632039572,10.546904117953144 c0.41943840305932073,1.928699665349693 -0.9213305092841485,1.928699665349693 -1.580960134608207,1.0969927464628382 L165.60463759102183,31.456159370454632 L164.84821448806846,34.10184775898264 C164.7621758412871,34.44600234610822 164.37858687438646,34.811666594929164 163.80499589584366,34.725627948147775 l-5.882892473678154,-1.2368055474826107 l1.5451106984492904,5.617606646102172 c0.3298148126620303,1.2511453219461777 0.587930753006227,1.7673772026345704 -0.3333997562779218,2.0971920152965993 l-2.0971920152965993,0.9858594943701979 l10.127465714893827,8.22386065485538 c0.39792874136397105,0.31189009458257233 0.6022705274697935,0.8711412986616659 0.4588727828341283,1.3766183485023846 l-0.8854810731252314,2.910974216103999 c3.4845651946466534,-0.4015136849798626 6.610636027704153,-1.0073691560655467 10.098786165966697,-1.3802032921182752 c0.3083051509666803,-0.03226449254302473 0.8245370316550752,0.47679750091358664 0.8209520880391833,0.8317069188868584 l-0.46245772645002026,10.654452426429893 h1.6956783303167378 l-0.2652858275759806,-10.629357821118653 c-0.0035849436158916373,-0.3584943615891635 0.46604267006591155,-0.8890660167411243 0.7707628774167,-0.8568015241980977 c3.491735081878439,0.3728341360527293 6.614220971320039,0.9786896071384126 10.102371109582586,1.3802032921182752 L188.60922077419863,51.7899595597919 c-0.13981280101977359,-0.5054770498407197 0.06094404147015776,-1.0647282539198124 0.46245772645002026,-1.3766183485023846 l10.127465714893827,-8.22386065485538 l-2.0971920152965993,-0.9858594943701979 C196.17703674734537,40.873806249401916 196.43515268768957,40.3575743687135 196.7685524439674,39.10642904676733 L198.3136631424166,33.48882240066517 L192.43077066873877,34.725627948147775 C191.8535947465798,34.811666594929164 191.47359072329533,34.44600234610822 191.3839671328978,34.10184775898264 L190.63112897356135,31.456159370454632 L185.97787216013376,36.66508244434515 C185.31465759119385,37.496789363232 183.97388867884996,37.496789363232 184.39332708191003,35.56808969788232 L186.37938584511383,25.021185579929156 L183.71577273850602,26.401388872047438 C182.9665195227851,26.817242331490856 182.21726630706388,26.888941203808724 181.8014128476198,26.14327293170324 " stroke-width="0"/></g><path id="path228" style="fill:#a01515;fill-opacity:1;fill-rule:nonzero;stroke:none" d="m128.97367934768906,16.32621117021514 h-4.610237490036624 v131.74667788401703 h4.610237490036624 z" stroke-width="0"/></g></g></g></svg>