<svg xmlns:dc="http://purl.org/dc/elements/1.1/" xmlns:cc="http://creativecommons.org/ns#" xmlns:rdf="http://www.w3.org/1999/02/22-rdf-syntax-ns#" xmlns:svg="http://www.w3.org/2000/svg" xmlns="http://www.w3.org/2000/svg" height="11196.999223947594" width="1703.9999535083807" xml:space="preserve" version="1.1" style=""><rect id="backgroundrect" width="100%" height="100%" x="0" y="0" fill="none" stroke="none" class="" style=""/><metadata id="metadata8"><rdf:RDF><cc:Work rdf:about=""><dc:format>image/svg+xml</dc:format><dc:type rdf:resource="http://purl.org/dc/dcmitype/StillImage"/></cc:Work></rdf:RDF></metadata><defs id="defs6"><clipPath id="clipPath108" clipPathUnits="userSpaceOnUse"><path id="path106" d="M 0,485.035 H 648.988 V 0 H 0 Z"/></clipPath></defs><g class="currentLayer" style=""><title>Layer 1</title><g class="selected"><path id="path14" style="fill:#c92f2f;fill-opacity:1;fill-rule:nonzero;stroke:none" d="m160.12816531881617,11071.698809079873 h1476.8436735677446 v-5788.879853764765 h-1476.8436735677446 z" stroke-width="0" class=""/><path id="path16" style="fill:#c92f2f;fill-opacity:1;fill-rule:nonzero;stroke:none" d="m307.8125338795526,5342.044582774536 h1126.821739995369 v-1849.208212243513 h-1126.821739995369 z" stroke-width="0" class=""/><g id="g22" stroke-width="0" class=""><path id="path24" style="fill:#870707;fill-opacity:1;fill-rule:nonzero;stroke:none" d="m1054.5378172505552,1436.253518438059 h-336.29371384552616 l-262.54998641204355,2094.6604734017237 h886.1062041406467 " stroke-width="0"/></g><path id="path38" style="fill:#870707;fill-opacity:1;fill-rule:nonzero;stroke:none" d="m1489.2874715297871,3632.4550106898314 h-1181.4749388541948 v-152.33894352012544 h1181.4749388541948 z" stroke-width="0" class=""/><path id="path40" style="fill:#870707;fill-opacity:1;fill-rule:nonzero;stroke:none" d="m1636.9718388865585,5435.157898835231 h-1476.8436735677446 v-152.33894352012544 h1476.8436735677446 z" stroke-width="0" class=""/><g id="g62" stroke-width="0" class=""><path id="path64" style="fill:#870707;fill-opacity:1;fill-rule:nonzero;stroke:none" d="m1009.3399268284866,8165.780323185056 h425.4622529807163 v-262.9751012516164 v-123.77539161010183 v-73.92247234314085 l-7.1216683814267,-20.946604734017246 l-8.467237061788426,-19.308961091175906 l-8.9266995380095,-16.33835169253347 l-9.878443238753153,-14.814962257332208 l-9.353343265929064,-11.84435285868976 l-9.812805742150147,-10.854149725808952 l-11.552199402129935,-11.158827612849201 l-10.272268218371217,-8.835658724167299 l-13.48850555191876,-10.473302367008648 L1331.3903039111538,7570.287392964886 L1316.0639484543549,7560.233022692557 L1295.420955772708,7547.360381965105 L1279.0444003702532,7537.3440964286565 L1264.6369698658918,7528.241844553331 L1253.2488642052767,7519.368101093283 L1222.0710533188435,7491.718582844383 L1191.9106236297616,7518.492152168043 L1175.0417870027823,7531.174369216092 L1160.831268988236,7539.933858468499 L1146.653569721987,7548.655262985027 L1133.7229828911877,7556.691142255713 L1119.906289856257,7565.52680097988 L1105.7614093383054,7575.124154421646 L1092.9292787524155,7584.492999448137 L1081.6396293367025,7593.557166587582 L1071.2360861251182,7602.77367267055 L1062.0140178524007,7611.914009281758 L1051.7417496340295,7623.377514781651 L1042.3555876198016,7635.60271499914 L1032.1489568980314,7651.36979565347 L1025.4867509928263,7663.671165342721 L1019.8747450332703,7675.744026616692 L1013.5735453593779,7691.968124101586 L1009.3399268284866,7705.107357980199 z" stroke-width="0"/></g><path id="path66" style="fill:#870707;fill-opacity:1;fill-rule:nonzero;stroke:none" d="m1434.7755306009872,10043.410940319027 h-425.4622529807163 v-1877.6155636214255 h425.4622529807163 z" stroke-width="0" class=""/><g id="g68" stroke-width="0" class=""><path id="path70" style="fill:#870707;fill-opacity:1;fill-rule:nonzero;stroke:none" d="m363.9028743176859,8165.780323185056 h425.4622529807163 v-262.9751012516164 v-123.77539161010183 v-73.92247234314085 l-7.1216683814267,-20.946604734017246 l-8.434418313486917,-19.308961091175906 l-8.959518286310987,-16.33835169253347 l-9.878443238753153,-14.814962257332208 l-9.353343265929064,-11.84435285868976 l-9.812805742150147,-10.854149725808952 l-11.552199402129935,-11.158827612849201 l-10.272268218371217,-8.835658724167299 l-13.48850555191876,-10.473302367008648 L685.9532514003613,7570.287392964886 L670.6268959435556,7560.233022692557 L649.9839032619084,7547.360381965105 L633.6073478594581,7537.3440964286565 L619.1999173550957,7528.241844553331 L607.8118116944752,7519.368101093283 L576.6340008080451,7491.718582844383 L546.4735711189587,7518.492152168043 L529.6047344919871,7531.174369216092 L515.3942164774371,7539.933858468499 L501.21651721118633,7548.655262985027 L488.2859303803889,7556.691142255713 L474.46923734545453,7565.52680097988 L460.3243568275075,7575.124154421646 L447.4922262416221,7584.492999448137 L436.2025768259,7593.557166587582 L425.79903361433117,7602.77367267055 L416.5769653416028,7611.914009281758 L406.30469712322883,7623.377514781651 L396.91853510900273,7635.60271499914 L386.71190438723806,7651.36979565347 L380.0496984820247,7663.671165342721 L374.43769252246875,7675.744026616692 L368.13649284858093,7691.968124101586 L363.9028743176859,7705.107357980199 z" stroke-width="0"/></g><path id="path72" style="fill:#870707;fill-opacity:1;fill-rule:nonzero;stroke:none" d="m789.3620265035743,10043.410940319027 h-425.4622529807163 v-1877.6155636214255 h425.4622529807163 z" stroke-width="0" class=""/><g id="g74" stroke-width="0" class=""><path id="path76" style="fill:#870707;fill-opacity:1;fill-rule:nonzero;stroke:none" d="M386.7151494050686,6233.433256295477 H541.291453905159 V6042.362136385358 V5952.367905500843 V5898.668427909999 L538.698772789342,5883.4345335579865 L535.6466291972974,5869.419350754135 L532.3975731154496,5857.536913159565 L528.8203295505882,5846.7970176413955 L525.4071797272318,5838.151782596628 L521.8299361623649,5830.306327005343 L517.6619551280737,5822.194278262897 l-3.7413373063716295,-6.436320363725316 l-4.922812245225831,-7.616947176006295 l-5.250999728240883,-7.426523496606144 l-5.579187211255932,-7.312269288966046 L490.65212527593576,5784.033372911105 L484.71193183336436,5776.759188358019 L479.49375085342854,5770.170529050774 L475.3257698191337,5763.696123951166 L464.00330165511696,5743.625468142389 L453.0418397224166,5763.048683441206 L446.9375525383284,5772.265189524176 L441.7521903066954,5778.66342515202 L436.59964682335703,5784.985491308108 L431.9065658162417,5790.812455897751 L426.88529732610914,5797.248776261478 L421.7327538427753,5804.218282927521 L417.0724915839619,5811.035450650048 L412.9701480462727,5817.624109957293 L409.19599199159984,5824.327023472179 L405.8484796648472,5830.953767515303 L402.1399611067782,5839.29432467303 L398.69399253512347,5848.1680681330745 L395.01829272534906,5859.631573632967 L392.5897053510398,5868.5814865647735 L390.55494295634617,5877.340975817182 L388.25763057523545,5889.109159204114 L386.7151494050686,5898.668427909999 z" stroke-width="0"/></g><path id="path78" style="fill:#870707;fill-opacity:1;fill-rule:nonzero;stroke:none" d="m541.2851080924993,7301.119533277369 h-154.57630450009063 v-1067.7055703966785 h154.57630450009063 z" stroke-width="0" class=""/><g id="g80" stroke-width="0" class=""><path id="path82" style="fill:#870707;fill-opacity:1;fill-rule:nonzero;stroke:none" d="M677.7722168994369,6233.433256295477 H832.3485213995291 V6042.362136385358 V5952.367905500843 V5898.668427909999 L829.7558402837103,5883.4345335579865 L826.7036966916739,5869.419350754135 L823.4546406098243,5857.536913159565 L819.8773970449602,5846.7970176413955 L816.4642472215992,5838.151782596628 L812.8870036567387,5830.306327005343 L808.7190226224511,5822.194278262897 l-3.7413373063716295,-6.436320363725316 l-4.922812245225831,-7.616947176006295 l-5.250999728240883,-7.426523496606144 l-5.579187211255932,-7.312269288966046 L781.7091927703059,5784.033372911105 L775.7689993277327,5776.759188358019 L770.5508183477941,5770.170529050774 L766.3828373135029,5763.696123951166 L755.0603691494862,5743.625468142389 L744.0989072167831,5763.048683441206 L737.9946200327049,5772.265189524176 L732.8092578010674,5778.66342515202 L727.6567143177308,5784.985491308108 L722.9636333106118,5790.812455897751 L717.9423648204802,5797.248776261478 L712.7898213371473,5804.218282927521 L708.1295590783338,5811.035450650048 L704.027215540641,5817.624109957293 L700.2530594859727,5824.327023472179 L696.905547159221,5830.953767515303 L693.1970286011519,5839.29432467303 L689.7510600294881,5848.1680681330745 L686.075360219721,5859.631573632967 L683.6467728454118,5868.5814865647735 L681.6120104507154,5877.340975817182 L679.314698069611,5889.109159204114 L677.7722168994369,5898.668427909999 z" stroke-width="0"/></g><path id="path84" style="fill:#870707;fill-opacity:1;fill-rule:nonzero;stroke:none" d="m832.3545867785488,7278.382945956994 h-154.57630450009063 v-1044.9689830763 h154.57630450009063 z" stroke-width="0" class=""/><g id="g86" stroke-width="0" class=""><path id="path88" style="fill:#870707;fill-opacity:1;fill-rule:nonzero;stroke:none" d="M968.8312874912453,6233.433256295477 H1123.4075919913307 V6042.362136385358 V5952.367905500843 V5898.668427909999 L1120.8149108755115,5883.4345335579865 L1117.762767283476,5869.419350754135 L1114.5137112016237,5857.536913159565 L1110.9364676367659,5846.7970176413955 L1107.5233178134113,5838.151782596628 L1103.9460742485426,5830.306327005343 L1099.7780932142487,5822.194278262897 l-3.7413373063716295,-6.436320363725316 l-4.922812245225831,-7.616947176006295 l-5.250999728240883,-7.426523496606144 l-5.579187211255932,-7.312269288966046 L1072.7682633621125,5784.033372911105 L1066.8280699195393,5776.759188358019 L1061.609888939598,5770.170529050774 L1057.441907905305,5763.696123951166 L1046.1194397412892,5743.625468142389 L1035.1579778085852,5763.048683441206 L1029.0536906245097,5772.265189524176 L1023.8683283928676,5778.66342515202 L1018.7157849095329,5784.985491308108 L1014.0227039024157,5790.812455897751 L1009.0014354122859,5797.248776261478 L1003.8488919289493,5804.218282927521 L999.1886296701396,5811.035450650048 L995.0862861324476,5817.624109957293 L991.3121300777775,5824.327023472179 L987.9646177510194,5830.953767515303 L984.2560991929504,5839.29432467303 L980.8101306212939,5848.1680681330745 L977.1344308115231,5859.631573632967 L974.7058434372148,5868.5814865647735 L972.6710810425193,5877.340975817182 L970.3737686614104,5889.109159204114 L968.8312874912453,5898.668427909999 z" stroke-width="0"/></g><path id="path90" style="fill:#870707;fill-opacity:1;fill-rule:nonzero;stroke:none" d="m1123.4240654646019,7280.401436958633 h-154.57630450009063 v-1046.9493893420613 h154.57630450009063 z" stroke-width="0" class=""/><g id="g92" stroke-width="0" class=""><path id="path94" style="fill:#870707;fill-opacity:1;fill-rule:nonzero;stroke:none" d="M1269.4671668983246,6233.433256295477 H1424.043471398411 V6042.362136385358 V5952.367905500843 V5898.668427909999 L1421.4507902825944,5883.4345335579865 L1418.3986466905558,5869.419350754135 L1415.1495906087052,5857.536913159565 L1411.5723470438406,5846.7970176413955 L1408.1591972204856,5838.151782596628 L1404.5819536556223,5830.306327005343 L1400.4139726213302,5822.194278262897 L1396.672635314961,5815.757957899172 L1391.7826418180348,5808.141010723162 L1386.498823341492,5800.71448722656 L1380.9196361302347,5793.4022179375925 L1373.404142769195,5784.033372911105 L1367.463949326619,5776.759188358019 L1362.2457683466778,5770.170529050774 L1358.0777873123911,5763.696123951166 L1346.7553191483707,5743.625468142389 L1335.7938572156618,5763.048683441206 L1329.6895700315886,5772.265189524176 L1324.504207799947,5778.66342515202 L1319.3516643166122,5784.985491308108 L1314.658583309495,5790.812455897751 L1309.6373148193675,5797.248776261478 L1304.4847713360305,5804.218282927521 L1299.8245090772193,5811.035450650048 L1295.7221655395279,5817.624109957293 L1291.9480094848523,5824.327023472179 L1288.6004971581028,5830.953767515303 L1284.891978600031,5839.29432467303 L1281.446010028376,5848.1680681330745 L1277.7703102186051,5859.631573632967 L1275.3417228442927,5868.5814865647735 L1273.3069604496013,5877.340975817182 L1271.009648068496,5889.109159204114 L1269.4671668983246,5898.668427909999 z" stroke-width="0"/></g><path id="path96" style="fill:#870707;fill-opacity:1;fill-rule:nonzero;stroke:none" d="m1424.043799906391,7305.918209998252 h-154.57630450009063 v-1072.4661623816826 h154.57630450009063 z" stroke-width="0" class=""/><g id="g102" stroke-width="0" class=""><g clip-path="url(#clipPath108)" id="g104" stroke-width="0"><g id="g110" stroke-width="0"><path id="path112" style="fill:#ffffff;fill-opacity:1;fill-rule:nonzero;stroke:none" d="m1294.9580286888095,4479.654737612433 c0,282.5412117451487 -197.36558436027607,511.5754236265436 -440.8397400502526,511.5754236265436 c-243.4741556899765,0 -440.8397400502526,-229.03421188139473 -440.8397400502526,-511.5754236265436 c0,-282.5412117451487 197.36558436027607,-511.5754236265436 440.8397400502526,-511.5754236265436 C1097.592444328533,3968.0793139858897 1294.9580286888095,4197.113525867285 1294.9580286888095,4479.654737612433 " stroke-width="0"/></g><path id="path114" style="fill:#000000;fill-opacity:1;fill-rule:nonzero;stroke:none" d="m837.5949620855617,4479.661815071905 h32.65479555927799 v-322.1030445056015 h-32.65479555927799 z" stroke-width="0"/><g id="g116" stroke-width="0"><path id="path118" style="fill:#000000;fill-opacity:1;fill-rule:nonzero;stroke:none" d="M827.5045505341195,4495.3847382276845 L855.0978527817142,4475.1111936617435 L663.0223453020371,4122.882040875913 L635.4290430544479,4143.155585441853 z" stroke-width="0"/></g><g id="g120" stroke-width="0"><path id="path122" style="fill:#000000;fill-opacity:1;fill-rule:nonzero;stroke:none" d="m879.9706661531673,4485.971254548215 c0,16.559885935170357 -11.559797627984423,30.012424852757228 -25.86259808294816,30.012424852757228 c-14.27014565940449,0 -25.82994328738888,-13.452538917586903 -25.82994328738888,-30.012424852757228 c0,-16.559885935170357 11.559797627984423,-30.012424852757228 25.82994328738888,-30.012424852757228 C868.4108685251804,4455.958829695455 879.9706661531673,4469.411368613045 879.9706661531673,4485.971254548215 " stroke-width="0"/></g><g id="g124" stroke-width="0"><path id="path126" style="fill:#a01515;fill-opacity:1;fill-rule:nonzero;stroke:none" d="m5399.388192976537,12837.21268764817 h395.0903714717043 v-374.05637086056396 v-176.0956291550035 v-105.08138146047449 l-6.596268702974174,-29.822952473636295 l-7.837150934226733,-27.435600496712418 l-8.326972867615904,-23.267208156051712 l-9.17599755215713,-21.06932855824876 l-8.653520823208696,-16.863041741763865 l-9.143342756597864,-15.42305166044472 l-10.710772943443196,-15.839890894510795 L5724.499337564705,12019.677266217132 L5711.959896069942,12004.78473721823 L5698.473465503963,11990.195364025905 L5684.235974640115,11975.909146640199 L5665.067609646818,11957.60611481711 L5649.850474916198,11943.319897431393 L5636.494663532449,11930.397881175344 L5625.881854975689,11917.779020725884 L5596.917051314607,11878.44455482038 L5568.931891520311,11916.490608547869 L5553.2575896518465,11934.566273516004 L5540.097707041461,11947.033556062164 L5526.90516963551,11959.387155180844 L5514.888204869704,11970.831286879758 L5502.087525010462,11983.412252853392 L5488.927642400076,11997.054264150098 L5477.008642020939,12010.393119640205 L5466.526452646412,12023.277241420434 L5456.860633160864,12036.426624531425 L5448.305076724333,12049.386535263297 L5438.769876421027,12065.71905434352 L5430.051046006698,12083.074724270999 L5420.58115529451,12105.508253958913 L5414.376744138242,12123.053396265514 L5409.151976848762,12140.181699338045 L5403.3067684436555,12163.25943511499 L5399.388192976537,12181.979306172136 z" stroke-width="0"/></g><g id="g128" stroke-width="0"><path id="path130" style="fill:#a01515;fill-opacity:1;fill-rule:nonzero;stroke:none" d="m5990.420261003033,12837.21268764817 h395.0903714717043 v-374.05637086056396 v-176.0956291550035 v-105.08138146047449 l-6.596268702974174,-29.822952473636295 l-7.837150934226733,-27.435600496712418 l-8.326972867615904,-23.267208156051712 l-9.17599755215713,-21.06932855824876 l-8.653520823208696,-16.863041741763865 l-9.143342756597864,-15.42305166044472 l-10.710772943443196,-15.839890894510795 L6315.531405591206,12019.677266217132 L6302.991964096432,12004.78473721823 L6289.505533530459,11990.195364025905 L6275.268042666612,11975.909146640199 L6256.099677673313,11957.60611481711 L6240.8825429426915,11943.319897431393 L6227.526731558951,11930.397881175344 L6216.913923002179,11917.779020725884 L6187.949119341098,11878.44455482038 L6159.963959546795,11916.490608547869 L6144.289657678344,11934.566273516004 L6131.129775067959,11947.033556062164 L6117.93723766201,11959.387155180844 L6105.9202728961955,11970.831286879758 L6093.119593036962,11983.412252853392 L6079.9597104265695,11997.054264150098 L6068.040710047437,12010.393119640205 L6057.558520672907,12023.277241420434 L6047.892701187367,12036.426624531425 L6039.337144750831,12049.386535263297 L6029.801944447525,12065.71905434352 L6021.083114033193,12083.074724270999 L6011.613223321004,12105.508253958913 L6005.408812164743,12123.053396265514 L6000.1840448752555,12140.181699338045 L5994.338836470143,12163.25943511499 L5990.420261003033,12181.979306172136 z" stroke-width="0"/></g><g id="g132" stroke-width="0"><path id="path134" style="fill:#a01515;fill-opacity:1;fill-rule:nonzero;stroke:none" d="m9121.495755740654,12837.21268764817 h395.0903714717043 v-374.05637086056396 v-176.0956291550035 v-105.08138146047449 l-6.596268702974174,-29.822952473636295 l-7.869805729786015,-27.435600496712418 l-8.294318072056614,-23.267208156051712 l-9.17599755215713,-21.06932855824876 l-8.653520823208696,-16.863041741763865 l-9.143342756597864,-15.42305166044472 l-10.710772943443196,-15.839890894510795 L9446.606900328808,12019.677266217132 L9434.067458834048,12004.78473721823 L9420.581028268072,11990.195364025905 L9406.34353740423,11975.909146640199 L9387.175172410938,11957.60611481711 L9371.958037680304,11943.319897431393 L9358.569571501008,11930.397881175344 L9347.989417739798,11917.779020725884 L9319.02461407872,11878.44455482038 L9291.039454284411,11916.490608547869 L9275.36515241596,11934.566273516004 L9262.20526980557,11947.033556062164 L9249.012732399635,11959.387155180844 L9236.995767633813,11970.831286879758 L9224.195087774573,11983.412252853392 L9211.035205164186,11997.054264150098 L9199.116204785047,12010.393119640205 L9188.634015410524,12023.277241420434 L9178.968195924974,12036.426624531425 L9170.412639488448,12049.386535263297 L9160.877439185133,12065.71905434352 L9152.158608770802,12083.074724270999 L9142.688718058627,12105.508253958913 L9136.484306902355,12123.053396265514 L9131.259539612869,12140.181699338045 L9125.414331207761,12163.25943511499 L9121.495755740654,12181.979306172136 z" stroke-width="0"/></g><g id="g136" stroke-width="0"><path id="path138" style="fill:#a01515;fill-opacity:1;fill-rule:nonzero;stroke:none" d="m9712.528820312411,12837.21268764817 h395.0903714717043 v-374.05637086056396 v-176.0956291550035 v-105.08138146047449 l-6.596268702974174,-29.822952473636295 l-7.837150934226733,-27.435600496712418 l-8.326972867615904,-23.267208156051712 l-9.17599755215713,-21.06932855824876 l-8.653520823208696,-16.863041741763865 l-9.143342756597864,-15.42305166044472 l-10.710772943443196,-15.839890894510795 L10037.639964900587,12019.677266217132 L10025.100523405823,12004.78473721823 L10011.614092839849,11990.195364025905 L9997.376601976008,11975.909146640199 L9978.208236982697,11957.60611481711 L9962.991102252077,11943.319897431393 L9949.602636072774,11930.397881175344 L9939.02248231156,11917.779020725884 L9910.057678650484,11878.44455482038 L9882.072518856188,11916.490608547869 L9866.398216987734,11934.566273516004 L9853.23833437734,11947.033556062164 L9840.045796971397,11959.387155180844 L9828.028832205579,11970.831286879758 L9815.22815234635,11983.412252853392 L9802.068269735959,11997.054264150098 L9790.149269356814,12010.393119640205 L9779.667079982293,12023.277241420434 L9770.001260496741,12036.426624531425 L9761.44570406022,12049.386535263297 L9751.910503756902,12065.71905434352 L9743.191673342571,12083.074724270999 L9733.721782630386,12105.508253958913 L9727.517371474116,12123.053396265514 L9722.29260418464,12140.181699338045 L9716.44739577952,12163.25943511499 L9712.528820312411,12181.979306172136 z" stroke-width="0"/></g><g id="g140" stroke-width="0"><path id="path142" style="fill:#870707;fill-opacity:1;fill-rule:nonzero;stroke:none" d="m1944.8052022790466,12837.21268764817 h395.0903714717043 v-374.05637086056396 v-176.0956291550035 v-105.08138146047449 l-6.596268702974174,-29.822952473636295 l-7.837150934226733,-27.435600496712418 l-8.326972867615904,-23.267208156051712 l-9.17599755215713,-21.06932855824876 l-8.653520823208696,-16.863041741763865 l-9.143342756597864,-15.42305166044472 l-10.710772943443196,-15.839890894510795 L2269.916346867225,12019.677266217132 L2257.3769053724595,12004.78473721823 L2243.890474806478,11990.195364025905 L2229.652983942636,11975.909146640199 L2210.4846189493364,11957.60611481711 L2195.2674842187184,11943.319897431393 L2181.8790180394085,11930.397881175344 L2171.298864278203,11917.779020725884 L2142.3340606171273,11878.44455482038 L2114.3489008228235,11916.490608547869 L2098.67459895437,11934.566273516004 L2085.5147163439847,11947.033556062164 L2072.3221789380345,11959.387155180844 L2060.3052141722196,11970.831286879758 L2047.5045343129818,11983.412252853392 L2034.344651702594,11997.054264150098 L2022.4256513234573,12010.393119640205 L2011.9434619489293,12023.277241420434 L2002.277642463379,12036.426624531425 L1993.722086026844,12049.386535263297 L1984.1868857235404,12065.71905434352 L1975.468055309213,12083.074724270999 L1965.9981645970265,12105.508253958913 L1959.7937534407588,12123.053396265514 L1954.5689861512783,12140.181699338045 L1948.723777746167,12163.25943511499 L1944.8052022790466,12181.979306172136 z" stroke-width="0"/></g><g id="g144" stroke-width="0"><path id="path146" style="fill:#870707;fill-opacity:1;fill-rule:nonzero;stroke:none" d="m2535.8402599413694,12837.21268764817 h395.0903714717043 v-374.05637086056396 v-176.0956291550035 v-105.08138146047449 l-6.596268702974174,-29.822952473636295 l-7.837150934226733,-27.435600496712418 l-8.326972867615904,-23.267208156051712 l-9.17599755215713,-21.06932855824876 l-8.653520823208696,-16.863041741763865 l-9.143342756597864,-15.42305166044472 l-10.710772943443196,-15.839890894510795 L2860.9514045295427,12019.677266217132 L2848.411963034781,12004.78473721823 L2834.9255324687974,11990.195364025905 L2820.6880416049457,11975.909146640199 L2801.51967661166,11957.60611481711 L2786.3025418810316,11943.319897431393 L2772.9140757017285,11930.397881175344 L2762.3339219405248,11917.779020725884 L2733.3691182794423,11878.44455482038 L2705.383958485142,11916.490608547869 L2689.7096566166933,11934.566273516004 L2676.5497740062992,11947.033556062164 L2663.3572366003473,11959.387155180844 L2651.340271834535,11970.831286879758 L2638.539591975302,11983.412252853392 L2625.379709364907,11997.054264150098 L2613.460708985778,12010.393119640205 L2602.978519611246,12023.277241420434 L2593.312700125703,12036.426624531425 L2584.757143689169,12049.386535263297 L2575.2219433858604,12065.71905434352 L2566.503112971531,12083.074724270999 L2557.0332222593424,12105.508253958913 L2550.8288111030793,12123.053396265514 L2545.6040438135915,12140.181699338045 L2539.7588354084837,12163.25943511499 L2535.8402599413694,12181.979306172136 z" stroke-width="0"/></g><g id="g148" stroke-width="0"><path id="path150" style="fill:#870707;fill-opacity:1;fill-rule:nonzero;stroke:none" d="m3783.1093498590776,12837.21268764817 h395.0903714717043 v-374.05637086056396 v-176.0956291550035 v-105.08138146047449 l-6.596268702974174,-29.822952473636295 l-7.837150934226733,-27.435600496712418 l-8.326972867615904,-23.267208156051712 l-9.17599755215713,-21.06932855824876 l-8.653520823208696,-16.863041741763865 l-9.143342756597864,-15.42305166044472 l-10.710772943443196,-15.839890894510795 L4108.220494447247,12019.677266217132 L4095.681052952493,12004.78473721823 L4082.194622386506,11990.195364025905 L4067.957131522656,11975.909146640199 L4048.7887665293583,11957.60611481711 L4033.571631798739,11943.319897431393 L4020.183165619437,11930.397881175344 L4009.6030118582307,11917.779020725884 L3980.6382081971497,11878.44455482038 L3952.653048402844,11916.490608547869 L3936.9787465343898,11934.566273516004 L3923.818863924007,11947.033556062164 L3910.626326518056,11959.387155180844 L3898.6093617522415,11970.831286879758 L3885.8086818930037,11983.412252853392 L3872.648799282618,11997.054264150098 L3860.7297989034823,12010.393119640205 L3850.247609528953,12023.277241420434 L3840.5817900434113,12036.426624531425 L3832.0262336068777,12049.386535263297 L3822.491033303565,12065.71905434352 L3813.7722028892385,12083.074724270999 L3804.3023121770466,12105.508253958913 L3798.097901020785,12123.053396265514 L3792.873133731299,12140.181699338045 L3787.0279253261915,12163.25943511499 L3783.1093498590776,12181.979306172136 z" stroke-width="0"/></g><g id="g152" stroke-width="0"><path id="path154" style="fill:#870707;fill-opacity:1;fill-rule:nonzero;stroke:none" d="m4406.797209990123,12837.21268764817 h395.0903714717043 v-374.05637086056396 v-176.0956291550035 v-105.08138146047449 l-6.596268702974174,-29.822952473636295 l-7.837150934226733,-27.435600496712418 l-8.326972867615904,-23.267208156051712 l-9.17599755215713,-21.06932855824876 l-8.653520823208696,-16.863041741763865 l-9.143342756597864,-15.42305166044472 l-10.710772943443196,-15.839890894510795 L4731.908354578291,12019.677266217132 L4719.368913083534,12004.78473721823 L4705.882482517548,11990.195364025905 L4691.644991653706,11975.909146640199 L4672.476626660411,11957.60611481711 L4657.259491929786,11943.319897431393 L4643.903680546045,11930.397881175344 L4633.29087198928,11917.779020725884 L4604.326068328195,11878.44455482038 L4576.340908533892,11916.490608547869 L4560.6666066654425,11934.566273516004 L4547.506724055049,11947.033556062164 L4534.314186649106,11959.387155180844 L4522.297221883288,11970.831286879758 L4509.4965420240505,11983.412252853392 L4496.336659413668,11997.054264150098 L4484.4176590345305,12010.393119640205 L4473.935469660001,12023.277241420434 L4464.2696501744485,12036.426624531425 L4455.7140937379245,12049.386535263297 L4446.178893434619,12065.71905434352 L4437.460063020282,12083.074724270999 L4427.990172308099,12105.508253958913 L4421.785761151828,12123.053396265514 L4416.560993862346,12140.181699338045 L4410.715785457234,12163.25943511499 L4406.797209990123,12181.979306172136 z" stroke-width="0"/></g><g id="g156" stroke-width="0"><path id="path158" style="fill:#870707;fill-opacity:1;fill-rule:nonzero;stroke:none" d="m3169.281308675283,12837.21268764817 h395.0903714717043 v-374.05637086056396 v-176.0956291550035 v-105.08138146047449 l-6.596268702974174,-29.822952473636295 l-7.837150934226733,-27.435600496712418 l-8.326972867615904,-23.267208156051712 l-9.17599755215713,-21.06932855824876 l-8.653520823208696,-16.863041741763865 l-9.143342756597864,-15.42305166044472 l-10.710772943443196,-15.839890894510795 L3494.392453263448,12019.677266217132 L3481.853011768685,12004.78473721823 L3468.3665812027057,11990.195364025905 L3454.1290903388617,11975.909146640199 L3434.9607253455624,11957.60611481711 L3419.7435906149412,11943.319897431393 L3406.3551244356386,11930.397881175344 L3395.774970674436,11917.779020725884 L3366.8101670133537,11878.44455482038 L3338.8250072190513,11916.490608547869 L3323.1507053505957,11934.566273516004 L3309.990822740213,11947.033556062164 L3296.798285334262,11959.387155180844 L3284.7813205684442,11970.831286879758 L3271.9806407092065,11983.412252853392 L3258.820758098819,11997.054264150098 L3246.901757719682,12010.393119640205 L3236.419568345157,12023.277241420434 L3226.753748859609,12036.426624531425 L3218.1981924230818,12049.386535263297 L3208.6629921197655,12065.71905434352 L3199.9441617054454,12083.074724270999 L3190.4742709932525,12105.508253958913 L3184.2698598369884,12123.053396265514 L3179.045092547503,12140.181699338045 L3173.1998841423974,12163.25943511499 L3169.281308675283,12181.979306172136 z" stroke-width="0"/></g><g id="g160" stroke-width="0"><path id="path162" style="fill:#870707;fill-opacity:1;fill-rule:nonzero;stroke:none" d="m6973.731414392032,12837.21268764817 h395.0903714717043 v-374.05637086056396 v-176.0956291550035 v-105.08138146047449 l-6.596268702974174,-29.822952473636295 l-7.837150934226733,-27.435600496712418 l-8.326972867615904,-23.267208156051712 l-9.17599755215713,-21.06932855824876 l-8.653520823208696,-16.863041741763865 l-9.143342756597864,-15.42305166044472 l-10.710772943443196,-15.839890894510795 L7298.842558980197,12019.677266217132 L7286.303117485437,12004.78473721823 L7272.81668691945,11990.195364025905 L7258.579196055611,11975.909146640199 L7239.410831062314,11957.60611481711 L7224.193696331691,11943.319897431393 L7210.83788494794,11930.397881175344 L7200.225076391179,11917.779020725884 L7171.260272730095,11878.44455482038 L7143.275112935797,11916.490608547869 L7127.600811067352,11934.566273516004 L7114.440928456963,11947.033556062164 L7101.248391051011,11959.387155180844 L7089.231426285196,11970.831286879758 L7076.430746425958,11983.412252853392 L7063.270863815576,11997.054264150098 L7051.351863436428,12010.393119640205 L7040.869674061902,12023.277241420434 L7031.203854576356,12036.426624531425 L7022.648298139829,12049.386535263297 L7013.113097836521,12065.71905434352 L7004.394267422189,12083.074724270999 L6994.92437671,12105.508253958913 L6988.719965553737,12123.053396265514 L6983.4951982642515,12140.181699338045 L6977.649989859146,12163.25943511499 L6973.731414392032,12181.979306172136 z" stroke-width="0"/></g><g id="g164" stroke-width="0"><path id="path166" style="fill:#870707;fill-opacity:1;fill-rule:nonzero;stroke:none" d="m7564.766472054347,12837.21268764817 h395.0903714717043 v-374.05637086056396 v-176.0956291550035 v-105.08138146047449 l-6.596268702974174,-29.822952473636295 l-7.869805729786015,-27.435600496712418 l-8.294318072056614,-23.267208156051712 l-9.17599755215713,-21.06932855824876 l-8.653520823208696,-16.863041741763865 l-9.143342756597864,-15.42305166044472 l-10.710772943443196,-15.839890894510795 L7889.8776166425205,12019.677266217132 L7877.3381751477555,12004.78473721823 L7863.8517445817615,11990.195364025905 L7849.614253717925,11975.909146640199 L7830.445888724631,11957.60611481711 L7815.228753994012,11943.319897431393 L7801.840287814702,11930.397881175344 L7791.260134053498,11917.779020725884 L7762.295330392408,11878.44455482038 L7734.3101705981135,11916.490608547869 L7718.635868729659,11934.566273516004 L7705.47598611928,11947.033556062164 L7692.283448713331,11959.387155180844 L7680.266483947515,11970.831286879758 L7667.465804088273,11983.412252853392 L7654.305921477882,11997.054264150098 L7642.386921098743,12010.393119640205 L7631.904731724224,12023.277241420434 L7622.238912238678,12036.426624531425 L7613.683355802143,12049.386535263297 L7604.148155498833,12065.71905434352 L7595.429325084512,12083.074724270999 L7585.95943437232,12105.508253958913 L7579.755023216063,12123.053396265514 L7574.530255926575,12140.181699338045 L7568.685047521453,12163.25943511499 L7564.766472054347,12181.979306172136 z" stroke-width="0"/></g><g id="g168" stroke-width="0"><path id="path170" style="fill:#870707;fill-opacity:1;fill-rule:nonzero;stroke:none" d="m8138.184602351641,12837.21268764817 h395.0903714717043 v-374.05637086056396 v-176.0956291550035 v-105.08138146047449 l-6.596268702974174,-29.822952473636295 l-7.837150934226733,-27.435600496712418 l-8.326972867615904,-23.267208156051712 l-9.17599755215713,-21.06932855824876 l-8.653520823208696,-16.863041741763865 l-9.143342756597864,-15.42305166044472 l-10.710772943443196,-15.839890894510795 L8463.295746939813,12019.677266217132 L8450.756305445051,12004.78473721823 L8437.269874879068,11990.195364025905 L8423.032384015227,11975.909146640199 L8403.86401902193,11957.60611481711 L8388.646884291311,11943.319897431393 L8375.258418112004,11930.397881175344 L8364.678264350798,11917.779020725884 L8335.713460689718,11878.44455482038 L8307.728300895416,11916.490608547869 L8292.05399902696,11934.566273516004 L8278.894116416577,11947.033556062164 L8265.701579010627,11959.387155180844 L8253.684614244805,11970.831286879758 L8240.883934385573,11983.412252853392 L8227.724051775187,11997.054264150098 L8215.80505139605,12010.393119640205 L8205.322862021521,12023.277241420434 L8195.65704253598,12036.426624531425 L8187.101486099451,12049.386535263297 L8177.566285796134,12065.71905434352 L8168.847455381801,12083.074724270999 L8159.3775646696195,12105.508253958913 L8153.173153513353,12123.053396265514 L8147.948386223875,12140.181699338045 L8142.103177818757,12163.25943511499 L8138.184602351641,12181.979306172136 z" stroke-width="0"/></g><g id="g172" stroke-width="0"><path id="path174" style="fill:#a01515;fill-opacity:1;fill-rule:nonzero;stroke:none" d="m-8034.654237053965,12837.21268764817 h395.0903714717043 v-374.05637086056396 v-176.0956291550035 v-105.08138146047449 l-6.596268702974174,-29.822952473636295 l-7.837150934226733,-27.435600496712418 l-8.326972867615904,-23.267208156051712 l-9.17599755215713,-21.06932855824876 l-8.653520823208696,-16.863041741763865 l-9.143342756597864,-15.42305166044472 l-10.710772943443196,-15.839890894510795 L-7709.54309246579,12019.677266217132 L-7722.082533960554,12004.78473721823 L-7735.5689645265375,11990.195364025905 L-7749.806455390382,11975.909146640199 L-7768.974820383675,11957.60611481711 L-7784.1919551143,11943.319897431393 L-7797.547766498044,11930.397881175344 L-7808.1605750548115,11917.779020725884 L-7837.125378715891,11878.44455482038 L-7865.110538510193,11916.490608547869 L-7880.784840378643,11934.566273516004 L-7893.944722989036,11947.033556062164 L-7907.137260394982,11959.387155180844 L-7919.154225160797,11970.831286879758 L-7931.954905020035,11983.412252853392 L-7945.114787630424,11997.054264150098 L-7957.033788009559,12010.393119640205 L-7967.515977384084,12023.277241420434 L-7977.181796869634,12036.426624531425 L-7985.737353306164,12049.386535263297 L-7995.272553609473,12065.71905434352 L-8003.991384023802,12083.074724270999 L-8013.4612747359915,12105.508253958913 L-8019.665685892256,12123.053396265514 L-8024.890453181739,12140.181699338045 L-8030.735661586852,12163.25943511499 L-8034.654237053965,12181.979306172136 z" stroke-width="0"/></g><g id="g176" stroke-width="0"><path id="path178" style="fill:#a01515;fill-opacity:1;fill-rule:nonzero;stroke:none" d="m-7443.621919891153,12837.21268764817 h395.0903714717043 v-374.05637086056396 v-176.0956291550035 v-105.08138146047449 l-6.596268702974174,-29.822952473636295 l-7.837150934226733,-27.435600496712418 l-8.326972867615904,-23.267208156051712 l-9.17599755215713,-21.06932855824876 l-8.653520823208696,-16.863041741763865 l-9.143342756597864,-15.42305166044472 l-10.710772943443196,-15.839890894510795 L-7118.510775302979,12019.677266217132 L-7131.050216797741,12004.78473721823 L-7144.536647363724,11990.195364025905 L-7158.774138227567,11975.909146640199 L-7177.942503220864,11957.60611481711 L-7193.15963795149,11943.319897431393 L-7206.515449335233,11930.397881175344 L-7217.128257891998,11917.779020725884 L-7246.093061553078,11878.44455482038 L-7274.078221347378,11916.490608547869 L-7289.752523215833,11934.566273516004 L-7302.912405826222,11947.033556062164 L-7316.104943232169,11959.387155180844 L-7328.121907997984,11970.831286879758 L-7340.92258785722,11983.412252853392 L-7354.082470467611,11997.054264150098 L-7366.001470846748,12010.393119640205 L-7376.4836602212745,12023.277241420434 L-7386.149479706823,12036.426624531425 L-7394.70503614335,12049.386535263297 L-7404.240236446662,12065.71905434352 L-7412.959066860989,12083.074724270999 L-7422.42895757318,12105.508253958913 L-7428.633368729443,12123.053396265514 L-7433.858136018927,12140.181699338045 L-7439.703344424035,12163.25943511499 L-7443.621919891153,12181.979306172136 z" stroke-width="0"/></g><g id="g180" stroke-width="0"><path id="path182" style="fill:#a01515;fill-opacity:1;fill-rule:nonzero;stroke:none" d="m-4543.863019484168,12837.21268764817 h395.0903714717043 v-374.05637086056396 v-176.0956291550035 v-105.08138146047449 l-6.596268702974174,-29.822952473636295 l-7.837150934226733,-27.435600496712418 l-8.326972867615904,-23.267208156051712 l-9.17599755215713,-21.06932855824876 l-8.653520823208696,-16.863041741763865 l-9.143342756597864,-15.42305166044472 l-10.710772943443196,-15.839890894510795 L-4218.751874895997,12019.677266217132 L-4231.291316390758,12004.78473721823 L-4244.7777469567445,11990.195364025905 L-4259.015237820588,11975.909146640199 L-4278.183602813882,11957.60611481711 L-4293.400737544509,11943.319897431393 L-4306.7565489282515,11930.397881175344 L-4317.369357485017,11917.779020725884 L-4346.334161146098,11878.44455482038 L-4374.319320940402,11916.490608547869 L-4389.993622808852,11934.566273516004 L-4403.153505419241,11947.033556062164 L-4416.346042825189,11959.387155180844 L-4428.363007591002,11970.831286879758 L-4441.16368745024,11983.412252853392 L-4454.323570060629,11997.054264150098 L-4466.242570439765,12010.393119640205 L-4476.724759814295,12023.277241420434 L-4486.390579299839,12036.426624531425 L-4494.9461357363725,12049.386535263297 L-4504.48133603968,12065.71905434352 L-4513.200166454006,12083.074724270999 L-4522.670057166199,12105.508253958913 L-4528.874468322461,12123.053396265514 L-4534.099235611944,12140.181699338045 L-4539.9444440170555,12163.25943511499 L-4543.863019484168,12181.979306172136 z" stroke-width="0"/></g><g id="g184" stroke-width="0"><path id="path186" style="fill:#a01515;fill-opacity:1;fill-rule:nonzero;stroke:none" d="m-3952.8274635492144,12837.21268764817 h395.0903714717043 v-374.05637086056396 v-176.0956291550035 v-105.08138146047449 l-6.596268702974174,-29.822952473636295 l-7.837150934226733,-27.435600496712418 l-8.326972867615904,-23.267208156051712 l-9.17599755215713,-21.06932855824876 l-8.653520823208696,-16.863041741763865 l-9.143342756597864,-15.42305166044472 l-10.710772943443196,-15.839890894510795 L-3627.716318961042,12019.677266217132 L-3640.255760455806,12004.78473721823 L-3653.742191021787,11990.195364025905 L-3667.979681885632,11975.909146640199 L-3687.148046878927,11957.60611481711 L-3702.3651816095535,11943.319897431393 L-3715.7209929932997,11930.397881175344 L-3726.3338015500594,11917.779020725884 L-3755.298605211141,11878.44455482038 L-3783.2837650054425,11916.490608547869 L-3798.958066873898,11934.566273516004 L-3812.1179494842836,11947.033556062164 L-3825.3104868902337,11959.387155180844 L-3837.3274516560487,11970.831286879758 L-3850.128131515283,11983.412252853392 L-3863.2880141256737,11997.054264150098 L-3875.207014504809,12010.393119640205 L-3885.6892038793376,12023.277241420434 L-3895.3550233648875,12036.426624531425 L-3903.910579801417,12049.386535263297 L-3913.4457801047247,12065.71905434352 L-3922.1646105190503,12083.074724270999 L-3931.634501231245,12105.508253958913 L-3937.838912387506,12123.053396265514 L-3943.0636796769923,12140.181699338045 L-3948.908888082098,12163.25943511499 L-3952.8274635492144,12181.979306172136 z" stroke-width="0"/></g><g id="g188" stroke-width="0"><path id="path190" style="fill:#870707;fill-opacity:1;fill-rule:nonzero;stroke:none" d="m-6583.151912870728,12837.21268764817 h395.0903714717043 v-374.05637086056396 v-176.0956291550035 v-105.08138146047449 l-6.596268702974174,-29.822952473636295 l-7.837150934226733,-27.435600496712418 l-8.326972867615904,-23.267208156051712 l-9.17599755215713,-21.06932855824876 l-8.653520823208696,-16.863041741763865 l-9.143342756597864,-15.42305166044472 l-10.710772943443196,-15.839890894510795 L-6258.040768282557,12019.677266217132 L-6270.580209777319,12004.78473721823 L-6284.066640343301,11990.195364025905 L-6298.304131207147,11975.909146640199 L-6317.472496200442,11957.60611481711 L-6332.689630931067,11943.319897431393 L-6346.078097110369,11930.397881175344 L-6356.6582508715765,11917.779020725884 L-6385.623054532654,11878.44455482038 L-6413.608214326954,11916.490608547869 L-6429.28251619541,11934.566273516004 L-6442.442398805797,11947.033556062164 L-6455.634936211747,11959.387155180844 L-6467.651900977562,11970.831286879758 L-6480.452580836798,11983.412252853392 L-6493.612463447187,11997.054264150098 L-6505.531463826323,12010.393119640205 L-6516.013653200853,12023.277241420434 L-6525.679472686399,12036.426624531425 L-6534.23502912293,12049.386535263297 L-6543.770229426236,12065.71905434352 L-6552.489059840567,12083.074724270999 L-6561.9589505527565,12105.508253958913 L-6568.163361709019,12123.053396265514 L-6573.388128998502,12140.181699338045 L-6579.233337403613,12163.25943511499 L-6583.151912870728,12181.979306172136 z" stroke-width="0"/></g><g id="g192" stroke-width="0"><path id="path194" style="fill:#870707;fill-opacity:1;fill-rule:nonzero;stroke:none" d="m-5992.116356935772,12837.21268764817 h395.0903714717043 v-374.05637086056396 v-176.0956291550035 v-105.08138146047449 l-6.596268702974174,-29.822952473636295 l-7.837150934226733,-27.435600496712418 l-8.326972867615904,-23.267208156051712 l-9.17599755215713,-21.06932855824876 l-8.653520823208696,-16.863041741763865 l-9.143342756597864,-15.42305166044472 l-10.710772943443196,-15.839890894510795 L-5667.005212347602,12019.677266217132 L-5679.544653842362,12004.78473721823 L-5693.031084408345,11990.195364025905 L-5707.268575272192,11975.909146640199 L-5726.436940265488,11957.60611481711 L-5741.65407499611,11943.319897431393 L-5755.009886379854,11930.397881175344 L-5765.622694936621,11917.779020725884 L-5794.587498597701,11878.44455482038 L-5822.572658392002,11916.490608547869 L-5838.246960260456,11934.566273516004 L-5851.406842870845,11947.033556062164 L-5864.59938027679,11959.387155180844 L-5876.616345042607,11970.831286879758 L-5889.417024901844,11983.412252853392 L-5902.576907512232,11997.054264150098 L-5914.495907891369,12010.393119640205 L-5924.9780972658955,12023.277241420434 L-5934.643916751444,12036.426624531425 L-5943.199473187975,12049.386535263297 L-5952.734673491283,12065.71905434352 L-5961.453503905612,12083.074724270999 L-5970.923394617803,12105.508253958913 L-5977.127805774064,12123.053396265514 L-5982.352573063548,12140.181699338045 L-5988.197781468658,12163.25943511499 L-5992.116356935772,12181.979306172136 z" stroke-width="0"/></g><g id="g196" stroke-width="0"><path id="path198" style="fill:#870707;fill-opacity:1;fill-rule:nonzero;stroke:none" d="m-5418.698226638473,12837.21268764817 h395.0903714717043 v-374.05637086056396 v-176.0956291550035 v-105.08138146047449 l-6.596268702974174,-29.822952473636295 l-7.837150934226733,-27.435600496712418 l-8.326972867615904,-23.267208156051712 l-9.17599755215713,-21.06932855824876 l-8.653520823208696,-16.863041741763865 l-9.143342756597864,-15.42305166044472 l-10.710772943443196,-15.839890894510795 L-5093.5870820503005,12019.677266217132 L-5106.126523545063,12004.78473721823 L-5119.612954111044,11990.195364025905 L-5133.850444974891,11975.909146640199 L-5153.018809968187,11957.60611481711 L-5168.23594469881,11943.319897431393 L-5181.5917560825565,11930.397881175344 L-5192.204564639322,11917.779020725884 L-5221.169368300401,11878.44455482038 L-5249.154528094703,11916.490608547869 L-5264.828829963151,11934.566273516004 L-5277.988712573544,11947.033556062164 L-5291.181249979492,11959.387155180844 L-5303.198214745305,11970.831286879758 L-5315.998894604545,11983.412252853392 L-5329.158777214932,11997.054264150098 L-5341.07777759407,12010.393119640205 L-5351.559966968598,12023.277241420434 L-5361.225786454146,12036.426624531425 L-5369.781342890674,12049.386535263297 L-5379.316543193983,12065.71905434352 L-5388.0353736083125,12083.074724270999 L-5397.505264320502,12105.508253958913 L-5403.709675476763,12123.053396265514 L-5408.934442766249,12140.181699338045 L-5414.779651171359,12163.25943511499 L-5418.698226638473,12181.979306172136 z" stroke-width="0"/></g><g id="g200" stroke-width="0"><path id="path202" style="fill:#870707;fill-opacity:1;fill-rule:nonzero;stroke:none" d="m-3054.885859384558,12837.21268764817 h395.0903714717043 v-374.05637086056396 v-176.0956291550035 v-105.08138146047449 l-6.596268702974174,-29.822952473636295 l-7.837150934226733,-27.435600496712418 l-8.326972867615904,-23.267208156051712 l-9.17599755215713,-21.06932855824876 l-8.653520823208696,-16.863041741763865 l-9.143342756597864,-15.42305166044472 l-10.710772943443196,-15.839890894510795 L-2729.7747147963873,12019.677266217132 L-2742.3141562911487,12004.78473721823 L-2755.800586857131,11990.195364025905 L-2770.0380777209784,11975.909146640199 L-2789.206442714274,11957.60611481711 L-2804.423577444897,11943.319897431393 L-2817.7793888286424,11930.397881175344 L-2828.3921973854067,11917.779020725884 L-2857.3570010464864,11878.44455482038 L-2885.3421608407907,11916.490608547869 L-2901.0164627092418,11934.566273516004 L-2914.1763453196336,11947.033556062164 L-2927.368882725579,11959.387155180844 L-2939.3858474913914,11970.831286879758 L-2952.186527350631,11983.412252853392 L-2965.346409961019,11997.054264150098 L-2977.2654103401564,12010.393119640205 L-2987.747599714683,12023.277241420434 L-2997.413419200231,12036.426624531425 L-3005.968975636759,12049.386535263297 L-3015.504175940072,12065.71905434352 L-3024.223006354401,12083.074724270999 L-3033.6928970665867,12105.508253958913 L-3039.897308222853,12123.053396265514 L-3045.122075512336,12140.181699338045 L-3050.9672839174455,12163.25943511499 L-3054.885859384558,12181.979306172136 z" stroke-width="0"/></g><g id="g204" stroke-width="0"><path id="path206" style="fill:#870707;fill-opacity:1;fill-rule:nonzero;stroke:none" d="m-2463.8537913580667,12837.21268764817 h395.0903714717043 v-374.05637086056396 v-176.0956291550035 v-105.08138146047449 l-6.596268702974174,-29.822952473636295 l-7.837150934226733,-27.435600496712418 l-8.326972867615904,-23.267208156051712 l-9.17599755215713,-21.06932855824876 l-8.653520823208696,-16.863041741763865 l-9.143342756597864,-15.42305166044472 l-10.710772943443196,-15.839890894510795 L-2138.7426467698942,12019.677266217132 L-2151.2820882646556,12004.78473721823 L-2164.768518830636,11990.195364025905 L-2179.0060096944853,11975.909146640199 L-2198.1743746877783,11957.60611481711 L-2213.391509418404,11943.319897431393 L-2226.7473208021474,11930.397881175344 L-2237.3601293589154,11917.779020725884 L-2266.3249330199915,11878.44455482038 L-2294.310092814293,11916.490608547869 L-2309.984394682744,11934.566273516004 L-2323.144277293137,11947.033556062164 L-2336.336814699085,11959.387155180844 L-2348.3537794648983,11970.831286879758 L-2361.154459324136,11983.412252853392 L-2374.314341934526,11997.054264150098 L-2386.2333423136606,12010.393119640205 L-2396.715531688189,12023.277241420434 L-2406.381351173736,12036.426624531425 L-2414.9369076102666,12049.386535263297 L-2424.472107913575,12065.71905434352 L-2433.1909383279008,12083.074724270999 L-2442.660829040092,12105.508253958913 L-2448.8652401963536,12123.053396265514 L-2454.090007485841,12140.181699338045 L-2459.9352158909505,12163.25943511499 L-2463.8537913580667,12181.979306172136 z" stroke-width="0"/></g><g id="g208" stroke-width="0"><path id="path210" style="fill:#870707;fill-opacity:1;fill-rule:nonzero;stroke:none" d="m-1216.5842031677203,12837.21268764817 h395.0903714717043 v-374.05637086056396 v-176.0956291550035 v-105.08138146047449 l-6.596268702974174,-29.822952473636295 l-7.837150934226733,-27.435600496712418 l-8.326972867615904,-23.267208156051712 l-9.17599755215713,-21.06932855824876 l-8.653520823208696,-16.863041741763865 l-9.143342756597864,-15.42305166044472 l-10.710772943443196,-15.839890894510795 L-891.4730585795533,12019.677266217132 L-904.0125000743137,12004.78473721823 L-917.4989306402977,11990.195364025905 L-931.7364215041434,11975.909146640199 L-950.90478649744,11957.60611481711 L-966.1219212280603,11943.319897431393 L-979.5103874073639,11930.397881175344 L-990.0905411685717,11917.779020725884 L-1019.0553448296514,11878.44455482038 L-1047.0405046239512,11916.490608547869 L-1062.7148064924077,11934.566273516004 L-1075.8746891027922,11947.033556062164 L-1089.0672265087424,11959.387155180844 L-1101.0841912745564,11970.831286879758 L-1113.884871133795,11983.412252853392 L-1127.0447537441823,11997.054264150098 L-1138.963754123317,12010.393119640205 L-1149.445943497847,12023.277241420434 L-1159.1117629833916,12036.426624531425 L-1167.6673194199257,12049.386535263297 L-1177.2025197232342,12065.71905434352 L-1185.9213501375607,12083.074724270999 L-1195.3912408497526,12105.508253958913 L-1201.5956520060136,12123.053396265514 L-1206.8204192955,12140.181699338045 L-1212.6656277006086,12163.25943511499 L-1216.5842031677203,12181.979306172136 z" stroke-width="0"/></g><g id="g212" stroke-width="0"><path id="path214" style="fill:#870707;fill-opacity:1;fill-rule:nonzero;stroke:none" d="m-592.8943499461275,12837.21268764817 h395.0903714717043 v-374.05637086056396 v-176.0956291550035 v-105.08138146047449 l-6.596268702974174,-29.822952473636295 l-7.837150934226733,-27.435600496712418 l-8.326972867615904,-23.267208156051712 l-9.17599755215713,-21.06932855824876 l-8.653520823208696,-16.863041741763865 l-9.143342756597864,-15.42305166044472 l-10.710772943443196,-15.839890894510795 L-267.783205357955,12019.677266217132 L-280.32264685272094,12004.78473721823 L-293.8090774187003,11990.195364025905 L-308.0465682825461,11975.909146640199 L-327.2149332758372,11957.60611481711 L-342.4320680064675,11943.319897431393 L-355.7878793902073,11930.397881175344 L-366.4006879469762,11917.779020725884 L-395.365491608055,11878.44455482038 L-423.35065140235474,11916.490608547869 L-439.0249532708094,11934.566273516004 L-452.18483588119943,11947.033556062164 L-465.37737328714775,11959.387155180844 L-477.39433805296176,11970.831286879758 L-490.1950179121959,11983.412252853392 L-503.35490052258956,11997.054264150098 L-515.2739009017214,12010.393119640205 L-525.7560902762489,12023.277241420434 L-535.4219097617934,12036.426624531425 L-543.9774661983274,12049.386535263297 L-553.5126665016423,12065.71905434352 L-562.2314969159652,12083.074724270999 L-571.7013876281553,12105.508253958913 L-577.905798784419,12123.053396265514 L-583.1305660739044,12140.181699338045 L-588.9757744790122,12163.25943511499 L-592.8943499461275,12181.979306172136 z" stroke-width="0"/></g><g id="g216" stroke-width="0"><path id="path218" style="fill:#870707;fill-opacity:1;fill-rule:nonzero;stroke:none" d="m-1830.4127426241557,12837.21268764817 h395.0903714717043 v-374.05637086056396 v-176.0956291550035 v-105.08138146047449 l-6.596268702974174,-29.822952473636295 l-7.837150934226733,-27.435600496712418 l-8.326972867615904,-23.267208156051712 l-9.17599755215713,-21.06932855824876 l-8.653520823208696,-16.863041741763865 l-9.143342756597864,-15.42305166044472 l-10.710772943443196,-15.839890894510795 L-1505.3015980359833,12019.677266217132 L-1517.8410395307483,12004.78473721823 L-1531.3274700967268,11990.195364025905 L-1545.5649609605725,11975.909146640199 L-1564.7333259538682,11957.60611481711 L-1579.950460684493,11943.319897431393 L-1593.3062720682383,11930.397881175344 L-1603.9190806250026,11917.779020725884 L-1632.8838842860805,11878.44455482038 L-1660.869044080383,11916.490608547869 L-1676.5433459488358,11934.566273516004 L-1689.7032285592277,11947.033556062164 L-1702.895765965177,11959.387155180844 L-1714.91273073099,11970.831286879758 L-1727.713410590225,11983.412252853392 L-1740.8732932006133,11997.054264150098 L-1752.7922935797505,12010.393119640205 L-1763.274482954278,12023.277241420434 L-1772.9403024398262,12036.426624531425 L-1781.4958588763584,12049.386535263297 L-1791.0310591796651,12065.71905434352 L-1799.7498895939943,12083.074724270999 L-1809.2197803061827,12105.508253958913 L-1815.4241914624472,12123.053396265514 L-1820.6489587519309,12140.181699338045 L-1826.4941671570396,12163.25943511499 L-1830.4127426241557,12181.979306172136 z" stroke-width="0"/></g><path id="path220" style="fill:#c92f2f;fill-opacity:1;fill-rule:nonzero;stroke:none" d="m814.671295602946,14.214678425368106 h983.1379299031821 V584.678117482702 h-983.1379299031821 z" stroke-width="0"/><path id="path222" style="fill:#ffffff;fill-opacity:1;fill-rule:nonzero;stroke:none" d="m1060.4312869820706,14.214678425368106 h491.5852923493704 V584.678117482702 h-491.5852923493704 z" stroke-width="0"/><g id="g224" stroke-width="0"><path id="path226" style="fill:#c92f2f;fill-opacity:1;fill-rule:nonzero;stroke:none" d="m1306.2239730185738,67.69949299785726 l-33.53647503937847,72.60581567914495 c-3.8206110804355387,7.882050971431206 -10.612808556765359,7.12416145494745 -17.437660828654465,2.7284022593415758 l-24.295167896102832,-14.589373192312555 l18.090756739839996,111.48554787476228 c3.8206110804355387,20.387227993413376 -8.392282458734462,20.387227993413376 -14.400764841641607,11.595709602201685 L1192.2587365166914,196.46492184844956 L1185.3685746536803,224.4310450067006 C1184.5848595602597,228.0689146858225 1181.0907964354155,231.93415121988963 1175.8660291459282,231.02468380010924 l-53.586519512775205,-13.073594159345026 l14.074216886048827,59.38064361650329 c3.004241191453584,13.225172062641777 5.355386471721601,18.681976581324907 -3.0368959870128656,22.168268357150232 l-19.10305540217763,10.420980851651844 l92.24979745496026,86.92992754068824 c3.6246823070798753,3.2968193967044077 5.486005653958713,9.20835762527781 4.17981383158759,14.551478716488381 l-8.065734503141675,30.77031436924103 c31.740461283618185,-4.244181292309121 60.21544301130864,-10.64834770659696 91.98855909048608,-14.589373192312555 c2.8083124180979167,-0.34105028241769747 7.510602978633957,5.039965284617071 7.4779481830746795,8.791518391211742 l-4.212468627146872,112.62238214948793 h15.445718299538498 l-2.41645487138658,-112.35712081871863 c-0.0326547955592782,-3.789447582418856 4.245123422706149,-9.397830004398754 7.02078104524478,-9.056779721981034 c31.80577087473675,3.941025485715609 60.248097806867854,10.345191900003444 92.02121388604533,14.589373192312555 L1401.8045596205807,411.40238872324625 c-1.273537026811846,-5.343121091210578 0.5551315245077286,-11.254659319783975 4.212468627146872,-14.551478716488381 l92.24979745496026,-86.92992754068824 l-19.10305540217763,-10.420980851651844 C1470.7388330462118,296.0137098385925 1473.0899783264817,290.55690531990916 1476.1268743134924,277.33173325726744 L1490.2010911995403,217.95108964076422 L1436.6145716867677,231.02468380010924 C1431.3571496017216,231.93415121988963 1427.8957412724362,228.0689146858225 1427.0793713834532,224.4310450067006 L1420.2218643160104,196.46492184844956 L1377.8359396800665,251.52559522099523 C1371.7948025016003,260.31711361220687 1359.581908962426,260.31711361220687 1363.4025200428696,239.9298856187937 L1381.493276782708,128.44433774403117 L1357.2307636821615,143.03371093634374 C1350.4059114102756,147.42947013194953 1343.5810591383884,148.18735964843367 1339.7931028535054,140.3053086770022 " stroke-width="0"/></g><path id="path228" style="fill:#a01515;fill-opacity:1;fill-rule:nonzero;stroke:none" d="m858.5919956301759,36.53452468581485 h-41.99406708923148 v1392.6219865389241 h41.99406708923148 z" stroke-width="0"/></g></g></g></g></svg>