<?xml version="1.0" encoding="utf-8"?>
<!-- Generator: Adobe Illustrator 17.0.0, SVG Export Plug-In . SVG Version: 6.00 Build 0)  -->
<!DOCTYPE svg PUBLIC "-//W3C//DTD SVG 1.1//EN" "http://www.w3.org/Graphics/SVG/1.1/DTD/svg11.dtd">
<svg version="1.1" xmlns="http://www.w3.org/2000/svg" xmlns:xlink="http://www.w3.org/1999/xlink" x="0px" y="0px"
	 width="648.988px" height="485.035px" viewBox="0 0 648.988 485.035" enable-background="new 0 0 648.988 485.035"
	 xml:space="preserve">
<g id="Vector_Background">
</g>
<g id="Vector_Graphics">
</g>
<g id="Canadian_Parliament">
	<rect x="0" y="0" fill="#B9E5FB" width="648.988" height="369.398"/>
	<rect x="0" y="350.667" fill="#8ECE9C" width="648.988" height="134.369"/>
	<rect x="153.504" y="319.344" fill="#C92F2F" width="346.077" height="86.084"/>
	<rect x="301.994" y="235.667" fill="#C92F2F" width="45" height="98.333"/>
	<polyline fill="#870707" points="491.267,279.5 467.709,279.5 458,319.687 499.581,319.687 	"/>
	<polyline fill="#870707" points="186.771,279.5 163.213,279.5 153.504,319.687 195.085,319.687 	"/>
	<rect x="301.994" y="231.667" fill="#870707" width="45" height="4"/>
	<rect x="195.085" y="319.687" fill="#A01515" width="106.909" height="70.979"/>
	<rect x="345.872" y="319" fill="#A01515" width="112.128" height="71.667"/>
	<rect x="195.085" y="319.687" fill="#870707" width="106.909" height="23.313"/>
	<rect x="346.994" y="319" fill="#870707" width="111.006" height="24"/>
	<polygon fill="#870707" points="311.536,404.795 337.464,404.795 337.464,390.986 337.464,384.484 337.464,380.604 337.03,379.503 
		336.515,378.49 335.97,377.631 335.369,376.854 334.799,376.231 334.201,375.661 333.497,375.076 332.871,374.612 332.049,374.062 
		331.163,373.524 330.228,372.996 328.971,372.32 327.973,371.793 327.095,371.316 326.4,370.849 324.5,369.398 322.662,370.803 
		321.634,371.469 320.769,371.93 319.904,372.387 319.116,372.809 318.275,373.273 317.412,373.777 316.631,374.27 315.943,374.745 
		315.308,375.23 314.746,375.708 314.121,376.312 313.548,376.953 312.927,377.781 312.52,378.428 312.178,379.062 311.794,379.913 
		311.536,380.604 	"/>
	<g>
		<g>
			<polygon fill="#870707" points="327.87,280.968 340.833,280.968 340.833,275.921 340.833,273.545 340.833,272.127 
				340.617,271.725 340.359,271.355 340.086,271.041 339.786,270.757 339.501,270.529 339.202,270.321 338.85,270.107 
				338.537,269.938 338.126,269.737 337.683,269.54 337.216,269.347 336.587,269.1 336.088,268.908 335.649,268.733 
				335.301,268.563 334.352,268.032 333.433,268.546 332.919,268.789 332.486,268.958 332.054,269.125 331.66,269.279 
				331.239,269.448 330.808,269.632 330.417,269.813 330.073,269.986 329.756,270.164 329.475,270.338 329.162,270.559 
				328.875,270.793 328.565,271.096 328.361,271.332 328.191,271.564 327.999,271.875 327.87,272.127 			"/>
			<rect x="327.87" y="280.968" fill="#870707" width="12.964" height="36.032"/>
		</g>
		<g>
			<polygon fill="#870707" points="308.203,280.968 321.167,280.968 321.167,275.921 321.167,273.545 321.167,272.127 
				320.95,271.725 320.693,271.355 320.42,271.041 320.119,270.757 319.835,270.529 319.535,270.321 319.184,270.107 
				318.87,269.938 318.459,269.737 318.016,269.54 317.549,269.347 316.92,269.1 316.421,268.908 315.982,268.733 315.635,268.563 
				314.685,268.032 313.766,268.546 313.252,268.789 312.82,268.958 312.387,269.125 311.993,269.279 311.572,269.448 
				311.141,269.632 310.75,269.813 310.406,269.986 310.089,270.164 309.808,270.338 309.495,270.559 309.209,270.793 
				308.898,271.096 308.695,271.332 308.524,271.564 308.332,271.875 308.203,272.127 			"/>
			<rect x="308.203" y="280.968" fill="#870707" width="12.964" height="36.032"/>
		</g>
	</g>
	<g>
		<g>
			<polygon fill="#870707" points="308.69,248.185 313.4,248.185 313.4,245.343 313.4,244.005 313.4,243.207 313.322,242.98 
				313.228,242.772 313.129,242.595 313.02,242.435 312.916,242.307 312.807,242.19 312.68,242.069 312.566,241.974 
				312.417,241.861 312.256,241.75 312.086,241.641 311.857,241.502 311.676,241.394 311.517,241.295 311.39,241.199 
				311.045,240.901 310.711,241.19 310.525,241.327 310.367,241.422 310.21,241.516 310.067,241.603 309.914,241.698 
				309.758,241.802 309.616,241.903 309.491,242.001 309.375,242.101 309.273,242.199 309.16,242.323 309.056,242.455 
				308.943,242.626 308.869,242.759 308.807,242.889 308.737,243.065 308.69,243.207 			"/>
			<rect x="308.69" y="248.185" fill="#870707" width="4.71" height="15.878"/>
		</g>
		<g>
			<polygon fill="#870707" points="317.559,248.185 322.269,248.185 322.269,245.343 322.269,244.005 322.269,243.207 
				322.19,242.98 322.097,242.772 321.997,242.595 321.888,242.435 321.785,242.307 321.676,242.19 321.548,242.069 
				321.435,241.974 321.285,241.861 321.124,241.75 320.954,241.641 320.726,241.502 320.545,241.394 320.385,241.295 
				320.259,241.199 319.914,240.901 319.58,241.19 319.393,241.327 319.236,241.422 319.079,241.516 318.936,241.603 
				318.783,241.698 318.626,241.802 318.484,241.903 318.359,242.001 318.244,242.101 318.142,242.199 318.028,242.323 
				317.924,242.455 317.811,242.626 317.737,242.759 317.675,242.889 317.606,243.065 317.559,243.207 			"/>
			<rect x="317.559" y="248.185" fill="#870707" width="4.71" height="15.54"/>
		</g>
		<g>
			<polygon fill="#870707" points="326.427,248.185 331.138,248.185 331.138,245.343 331.138,244.005 331.138,243.207 
				331.059,242.98 330.965,242.772 330.866,242.595 330.757,242.435 330.654,242.307 330.545,242.19 330.417,242.069 
				330.303,241.974 330.154,241.861 329.993,241.75 329.823,241.641 329.595,241.502 329.413,241.394 329.254,241.295 
				329.128,241.199 328.782,240.901 328.449,241.19 328.262,241.327 328.105,241.422 327.948,241.516 327.804,241.603 
				327.652,241.698 327.495,241.802 327.353,241.903 327.228,242.001 327.113,242.101 327.01,242.199 326.897,242.323 
				326.793,242.455 326.68,242.626 326.606,242.759 326.544,242.889 326.474,243.065 326.427,243.207 			"/>
			<rect x="326.427" y="248.185" fill="#870707" width="4.71" height="15.57"/>
		</g>
		<g>
			<polygon fill="#870707" points="335.588,248.185 340.298,248.185 340.298,245.343 340.298,244.005 340.298,243.207 
				340.219,242.98 340.126,242.772 340.027,242.595 339.918,242.435 339.814,242.307 339.705,242.19 339.578,242.069 
				339.464,241.974 339.314,241.861 339.153,241.75 338.984,241.641 338.755,241.502 338.574,241.394 338.414,241.295 
				338.288,241.199 337.943,240.901 337.609,241.19 337.422,241.327 337.265,241.422 337.108,241.516 336.965,241.603 
				336.812,241.698 336.655,241.802 336.513,241.903 336.388,242.001 336.273,242.101 336.171,242.199 336.057,242.323 
				335.953,242.455 335.84,242.626 335.767,242.759 335.704,242.889 335.635,243.065 335.588,243.207 			"/>
			<rect x="335.588" y="248.185" fill="#870707" width="4.71" height="15.95"/>
		</g>
	</g>
	<polygon fill="#A01515" points="314.836,356.38 334.438,356.38 334.438,345.94 334.438,341.025 334.438,338.092 334.11,337.259 
		333.721,336.493 333.308,335.844 332.854,335.256 332.423,334.785 331.971,334.355 331.439,333.912 330.965,333.561 
		330.344,333.146 329.674,332.739 328.968,332.34 328.017,331.829 327.262,331.431 326.599,331.07 326.073,330.717 324.637,329.62 
		323.248,330.682 322.471,331.186 321.817,331.534 321.163,331.879 320.567,332.198 319.931,332.549 319.278,332.93 
		318.688,333.303 318.168,333.662 317.688,334.029 317.263,334.39 316.79,334.847 316.357,335.331 315.887,335.957 315.58,336.447 
		315.322,336.926 315.031,337.569 314.836,338.092 	"/>
	<g>
		<g>
			<rect x="306.494" y="184" fill="#C92F2F" width="36" height="48"/>
			<g>
				<circle fill="#FFFFFF" cx="324.5" cy="210.5" r="13.5"/>
				<rect x="323.994" y="202" width="1" height="8.5"/>
				<rect x="320.667" y="200.5" transform="matrix(-0.845 0.5347 -0.5347 -0.845 702.7141 208.3499)" width="1" height="11"/>
			</g>
		</g>
		<circle cx="324.5" cy="210.667" r="0.792"/>
	</g>
	<polygon fill="#A01515" points="463.691,382.048 475.79,382.048 475.79,372.178 475.79,367.531 475.79,364.757 475.588,363.97 
		475.348,363.246 475.093,362.632 474.813,362.076 474.547,361.631 474.268,361.224 473.94,360.806 473.647,360.474 
		473.264,360.081 472.85,359.696 472.414,359.319 471.827,358.836 471.362,358.459 470.952,358.118 470.627,357.785 
		469.741,356.747 468.883,357.751 468.404,358.228 468,358.557 467.596,358.884 467.228,359.185 466.836,359.517 466.433,359.877 
		466.069,360.229 465.748,360.569 465.451,360.916 465.189,361.258 464.898,361.689 464.63,362.147 464.34,362.739 464.15,363.202 
		463.991,363.655 463.812,364.263 463.691,364.757 	"/>
	<polygon fill="#A01515" points="481.791,382.048 493.89,382.048 493.89,372.178 493.89,367.531 493.89,364.757 493.688,363.97 
		493.447,363.246 493.193,362.632 492.912,362.076 492.647,361.631 492.367,361.224 492.039,360.806 491.747,360.474 
		491.363,360.081 490.95,359.696 490.514,359.319 489.927,358.836 489.461,358.459 489.051,358.118 488.727,357.785 487.84,356.747 
		486.983,357.751 486.503,358.228 486.099,358.557 485.696,358.884 485.328,359.185 484.936,359.517 484.533,359.877 
		484.168,360.229 483.847,360.569 483.551,360.916 483.289,361.258 482.997,361.689 482.73,362.147 482.44,362.739 482.25,363.202 
		482.09,363.655 481.911,364.263 481.791,364.757 	"/>
	<polygon fill="#870707" points="357.901,382.048 369.999,382.048 369.999,372.178 369.999,367.531 369.999,364.757 369.797,363.97 
		369.557,363.246 369.302,362.632 369.022,362.076 368.756,361.631 368.477,361.224 368.149,360.806 367.856,360.474 
		367.473,360.081 367.059,359.696 366.623,359.319 366.036,358.836 365.571,358.459 365.161,358.118 364.837,357.785 
		363.95,356.747 363.092,357.751 362.613,358.228 362.209,358.557 361.805,358.884 361.438,359.185 361.045,359.517 
		360.642,359.877 360.278,360.229 359.957,360.569 359.661,360.916 359.398,361.258 359.107,361.689 358.839,362.147 
		358.549,362.739 358.359,363.202 358.2,363.655 358.021,364.263 357.901,364.757 	"/>
	<polygon fill="#870707" points="376,382.048 388.099,382.048 388.099,372.178 388.099,367.531 388.099,364.757 387.897,363.97 
		387.657,363.246 387.402,362.632 387.121,362.076 386.856,361.631 386.576,361.224 386.248,360.806 385.956,360.474 
		385.572,360.081 385.159,359.696 384.723,359.319 384.136,358.836 383.67,358.459 383.26,358.118 382.936,357.785 382.049,356.747 
		381.192,357.751 380.712,358.228 380.309,358.557 379.905,358.884 379.537,359.185 379.145,359.517 378.742,359.877 
		378.377,360.229 378.056,360.569 377.76,360.916 377.498,361.258 377.206,361.689 376.939,362.147 376.649,362.739 
		376.459,363.202 376.299,363.655 376.12,364.263 376,364.757 	"/>
	<polygon fill="#870707" points="414.196,382.048 426.295,382.048 426.295,372.178 426.295,367.531 426.295,364.757 426.092,363.97 
		425.852,363.246 425.597,362.632 425.317,362.076 425.051,361.631 424.772,361.224 424.444,360.806 424.151,360.474 
		423.768,360.081 423.354,359.696 422.918,359.319 422.332,358.836 421.866,358.459 421.456,358.118 421.132,357.785 
		420.245,356.747 419.387,357.751 418.908,358.228 418.504,358.557 418.101,358.884 417.733,359.185 417.34,359.517 
		416.937,359.877 416.573,360.229 416.252,360.569 415.956,360.916 415.693,361.258 415.402,361.689 415.134,362.147 
		414.844,362.739 414.654,363.202 414.495,363.655 414.316,364.263 414.196,364.757 	"/>
	<polygon fill="#870707" points="433.295,382.048 445.394,382.048 445.394,372.178 445.394,367.531 445.394,364.757 445.192,363.97 
		444.952,363.246 444.697,362.632 444.416,362.076 444.151,361.631 443.871,361.224 443.543,360.806 443.251,360.474 
		442.867,360.081 442.454,359.696 442.018,359.319 441.431,358.836 440.965,358.459 440.556,358.118 440.231,357.785 
		439.345,356.747 438.487,357.751 438.007,358.228 437.604,358.557 437.2,358.884 436.832,359.185 436.44,359.517 436.037,359.877 
		435.672,360.229 435.351,360.569 435.055,360.916 434.793,361.258 434.501,361.689 434.234,362.147 433.944,362.739 
		433.754,363.202 433.594,363.655 433.415,364.263 433.295,364.757 	"/>
	<polygon fill="#870707" points="395.398,382.048 407.497,382.048 407.497,372.178 407.497,367.531 407.497,364.757 407.295,363.97 
		407.055,363.246 406.8,362.632 406.519,362.076 406.254,361.631 405.974,361.224 405.646,360.806 405.354,360.474 404.97,360.081 
		404.557,359.696 404.121,359.319 403.534,358.836 403.068,358.459 402.659,358.118 402.334,357.785 401.448,356.747 
		400.59,357.751 400.11,358.228 399.707,358.557 399.303,358.884 398.935,359.185 398.543,359.517 398.14,359.877 397.775,360.229 
		397.454,360.569 397.158,360.916 396.896,361.258 396.604,361.689 396.337,362.147 396.047,362.739 395.857,363.202 
		395.698,363.655 395.518,364.263 395.398,364.757 	"/>
	<g>
		<polygon fill="#A01515" points="159.196,382.048 171.295,382.048 171.295,372.178 171.295,367.531 171.295,364.757 
			171.092,363.97 170.852,363.246 170.597,362.632 170.317,362.076 170.051,361.631 169.772,361.224 169.444,360.806 
			169.151,360.474 168.768,360.081 168.354,359.696 167.918,359.319 167.332,358.836 166.866,358.459 166.456,358.118 
			166.132,357.785 165.245,356.747 164.387,357.751 163.908,358.228 163.504,358.557 163.101,358.884 162.733,359.185 
			162.34,359.517 161.937,359.877 161.573,360.229 161.252,360.569 160.956,360.916 160.693,361.258 160.402,361.689 
			160.134,362.147 159.844,362.739 159.654,363.202 159.495,363.655 159.316,364.263 159.196,364.757 		"/>
		<polygon fill="#A01515" points="177.295,382.048 189.394,382.048 189.394,372.178 189.394,367.531 189.394,364.757 
			189.192,363.97 188.952,363.246 188.697,362.632 188.416,362.076 188.151,361.631 187.871,361.224 187.543,360.806 
			187.251,360.474 186.867,360.081 186.454,359.696 186.018,359.319 185.431,358.836 184.965,358.459 184.556,358.118 
			184.231,357.785 183.345,356.747 182.487,357.751 182.007,358.228 181.604,358.557 181.2,358.884 180.832,359.185 180.44,359.517 
			180.037,359.877 179.672,360.229 179.351,360.569 179.055,360.916 178.793,361.258 178.501,361.689 178.234,362.147 
			177.944,362.739 177.754,363.202 177.594,363.655 177.415,364.263 177.295,364.757 		"/>
	</g>
	<g>
		<polygon fill="#870707" points="204.793,382.048 216.892,382.048 216.892,372.178 216.892,367.531 216.892,364.757 216.69,363.97 
			216.45,363.246 216.195,362.632 215.914,362.076 215.649,361.631 215.369,361.224 215.041,360.806 214.749,360.474 
			214.365,360.081 213.952,359.696 213.516,359.319 212.929,358.836 212.463,358.459 212.054,358.118 211.729,357.785 
			210.843,356.747 209.985,357.751 209.505,358.228 209.102,358.557 208.698,358.884 208.33,359.185 207.938,359.517 
			207.535,359.877 207.17,360.229 206.849,360.569 206.553,360.916 206.291,361.258 205.999,361.689 205.732,362.147 
			205.442,362.739 205.252,363.202 205.092,363.655 204.913,364.263 204.793,364.757 		"/>
		<polygon fill="#870707" points="222.893,382.048 234.991,382.048 234.991,372.178 234.991,367.531 234.991,364.757 
			234.789,363.97 234.549,363.246 234.294,362.632 234.014,362.076 233.748,361.631 233.469,361.224 233.141,360.806 
			232.848,360.474 232.465,360.081 232.051,359.696 231.615,359.319 231.028,358.836 230.563,358.459 230.153,358.118 
			229.829,357.785 228.942,356.747 228.084,357.751 227.605,358.228 227.201,358.557 226.797,358.884 226.429,359.185 
			226.037,359.517 225.634,359.877 225.27,360.229 224.949,360.569 224.653,360.916 224.39,361.258 224.099,361.689 
			223.831,362.147 223.541,362.739 223.351,363.202 223.192,363.655 223.013,364.263 222.893,364.757 		"/>
		<polygon fill="#870707" points="261.088,382.048 273.187,382.048 273.187,372.178 273.187,367.531 273.187,364.757 
			272.985,363.97 272.745,363.246 272.49,362.632 272.209,362.076 271.944,361.631 271.664,361.224 271.336,360.806 
			271.044,360.474 270.66,360.081 270.247,359.696 269.811,359.319 269.224,358.836 268.758,358.459 268.349,358.118 
			268.024,357.785 267.138,356.747 266.28,357.751 265.8,358.228 265.397,358.557 264.993,358.884 264.625,359.185 264.233,359.517 
			263.83,359.877 263.465,360.229 263.144,360.569 262.848,360.916 262.586,361.258 262.294,361.689 262.027,362.147 
			261.737,362.739 261.547,363.202 261.388,363.655 261.208,364.263 261.088,364.757 		"/>
		<polygon fill="#870707" points="280.188,382.048 292.287,382.048 292.287,372.178 292.287,367.531 292.287,364.757 
			292.084,363.97 291.844,363.246 291.589,362.632 291.309,362.076 291.043,361.631 290.764,361.224 290.436,360.806 
			290.143,360.474 289.76,360.081 289.346,359.696 288.91,359.319 288.324,358.836 287.858,358.459 287.448,358.118 
			287.124,357.785 286.237,356.747 285.379,357.751 284.9,358.228 284.496,358.557 284.093,358.884 283.725,359.185 
			283.332,359.517 282.929,359.877 282.565,360.229 282.244,360.569 281.948,360.916 281.685,361.258 281.394,361.689 
			281.126,362.147 280.836,362.739 280.646,363.202 280.487,363.655 280.308,364.263 280.188,364.757 		"/>
		<polygon fill="#870707" points="242.291,382.048 254.39,382.048 254.39,372.178 254.39,367.531 254.39,364.757 254.187,363.97 
			253.947,363.246 253.692,362.632 253.412,362.076 253.146,361.631 252.867,361.224 252.539,360.806 252.246,360.474 
			251.863,360.081 251.449,359.696 251.013,359.319 250.427,358.836 249.961,358.459 249.551,358.118 249.227,357.785 
			248.34,356.747 247.482,357.751 247.003,358.228 246.599,358.557 246.196,358.884 245.828,359.185 245.435,359.517 
			245.032,359.877 244.668,360.229 244.347,360.569 244.051,360.916 243.788,361.258 243.497,361.689 243.229,362.147 
			242.939,362.739 242.749,363.202 242.59,363.655 242.411,364.263 242.291,364.757 		"/>
	</g>
	<g>
		<polyline fill="#870707" points="329.247,127 319,127 311,182 338,182 		"/>
		<rect x="306.494" y="180.667" fill="#870707" width="36" height="4"/>
		<rect x="323.292" y="89.661" fill="#C92F2F" width="30.107" height="15.054"/>
		<rect x="330.818" y="89.661" fill="#FFFFFF" width="15.054" height="15.054"/>
		<path fill="#C92F2F" d="M338.345,91.073l-1.027,1.916c-0.117,0.208-0.325,0.189-0.534,0.073l-0.744-0.385l0.554,2.942
			c0.117,0.538-0.257,0.538-0.442,0.305l-1.298-1.453l-0.211,0.738c-0.024,0.097-0.131,0.199-0.291,0.174l-1.641-0.345l0.431,1.567
			c0.092,0.349,0.164,0.493-0.093,0.585l-0.585,0.275l2.825,2.294c0.112,0.087,0.168,0.243,0.129,0.384l-0.247,0.811
			c0.973-0.112,1.844-0.281,2.817-0.385c0.086-0.009,0.23,0.133,0.229,0.232l-0.129,2.972h0.473l-0.074-2.966
			c-0.001-0.1,0.13-0.248,0.216-0.239c0.973,0.104,1.845,0.273,2.817,0.385l-0.247-0.811c-0.04-0.141,0.017-0.297,0.128-0.384
			l2.825-2.294l-0.585-0.275c-0.257-0.092-0.185-0.236-0.093-0.585l0.431-1.567l-1.641,0.345c-0.16,0.024-0.267-0.078-0.291-0.174
			l-0.211-0.738l-1.298,1.453c-0.185,0.232-0.558,0.232-0.442-0.305l0.554-2.942l-0.744,0.385c-0.209,0.116-0.418,0.136-0.534-0.073
			"/>
		<rect x="323.351" y="90.25" fill="#A01515" width="1.286" height="36.75"/>
	</g>
	<line fill="none" x1="355.333" y1="81" x2="390.667" y2="81"/>
	<line fill="#861719" x1="340.506" y1="81" x2="434.333" y2="81"/>
</g>
</svg>
