<?xml version="1.0" encoding="UTF-8" standalone="no"?>
<svg
   xmlns:dc="http://purl.org/dc/elements/1.1/"
   xmlns:cc="http://creativecommons.org/ns#"
   xmlns:rdf="http://www.w3.org/1999/02/22-rdf-syntax-ns#"
   xmlns:svg="http://www.w3.org/2000/svg"
   xmlns="http://www.w3.org/2000/svg"
   viewBox="0 0 865.31732 646.71332"
   height="646.71332"
   width="865.31732"
   xml:space="preserve"
   id="svg2"
   version="1.1"><metadata
     id="metadata8"><rdf:RDF><cc:Work
         rdf:about=""><dc:format>image/svg+xml</dc:format><dc:type
           rdf:resource="http://purl.org/dc/dcmitype/StillImage" /></cc:Work></rdf:RDF></metadata><defs
     id="defs6"><clipPath
       id="clipPath108"
       clipPathUnits="userSpaceOnUse"><path
         id="path106"
         d="M 0,485.035 H 648.988 V 0 H 0 Z" /></clipPath></defs><g
     transform="matrix(1.3333333,0,0,-1.3333333,0,646.71333)"
     id="g10"><path
       id="path12"
       style="fill:#c92f2f;fill-opacity:1;fill-rule:nonzero;stroke:none"
       d="M 613.576,112.951 H 46.604 v 86.084 h 566.972 z" /><path
       id="path14"
       style="fill:#c92f2f;fill-opacity:1;fill-rule:nonzero;stroke:none"
       d="m 301.994,184.035 h 45 v 152 h -45 z" /><path
       id="path16"
       style="fill:#c92f2f;fill-opacity:1;fill-rule:nonzero;stroke:none"
       d="m 306.494,335.035 h 36 v 48 h -36 z" /><g
       transform="translate(491.2667,238.5352)"
       id="g18"><path
         id="path20"
         style="fill:#870707;fill-opacity:1;fill-rule:nonzero;stroke:none"
         d="m 0,0 h -23.558 l -9.709,-40.187 H 8.315" /></g><g
       transform="translate(329.247,437.0352)"
       id="g22"><path
         id="path24"
         style="fill:#870707;fill-opacity:1;fill-rule:nonzero;stroke:none"
         d="m 0,0 h -10.247 l -8,-55 h 27" /></g><g
       transform="translate(605.2502,238.5352)"
       id="g26"><path
         id="path28"
         style="fill:#870707;fill-opacity:1;fill-rule:nonzero;stroke:none"
         d="m 0,0 h -23.558 l -9.709,-40.187 H 8.315" /></g><g
       transform="translate(186.7708,238.5352)"
       id="g30"><path
         id="path32"
         style="fill:#870707;fill-opacity:1;fill-rule:nonzero;stroke:none"
         d="m 0,0 h -23.558 l -9.709,-40.187 H 8.315" /></g><g
       transform="translate(79.871,238.616)"
       id="g34"><path
         id="path36"
         style="fill:#870707;fill-opacity:1;fill-rule:nonzero;stroke:none"
         d="m 0,0 h -23.558 l -9.709,-40.187 H 8.315" /></g><path
       id="path38"
       style="fill:#870707;fill-opacity:1;fill-rule:nonzero;stroke:none"
       d="m 342.494,379.369 h -36 v 4 h 36 z" /><path
       id="path40"
       style="fill:#870707;fill-opacity:1;fill-rule:nonzero;stroke:none"
       d="m 346.994,332.035 h -45 v 4 h 45 z" /><path
       id="path42"
       style="fill:#a01515;fill-opacity:1;fill-rule:nonzero;stroke:none"
       d="M 153.504,112.951 H 88.186 v 85.477 h 65.318 z" /><path
       id="path44"
       style="fill:#a01515;fill-opacity:1;fill-rule:nonzero;stroke:none"
       d="M 301.994,112.951 H 195.085 v 85.397 h 106.909 z" /><path
       id="path46"
       style="fill:#a01515;fill-opacity:1;fill-rule:nonzero;stroke:none"
       d="M 458,112.951 H 346.994 v 86.084 H 458 Z" /><path
       id="path48"
       style="fill:#a01515;fill-opacity:1;fill-rule:nonzero;stroke:none"
       d="m 571.983,112.951 h -72.402 v 85.397 h 72.402 z" /><path
       id="path50"
       style="fill:#870707;fill-opacity:1;fill-rule:nonzero;stroke:none"
       d="M 153.504,175.035 H 88.186 v 23.393 h 65.318 z" /><path
       id="path52"
       style="fill:#870707;fill-opacity:1;fill-rule:nonzero;stroke:none"
       d="M 301.994,175.035 H 195.085 v 23.313 h 106.909 z" /><path
       id="path54"
       style="fill:#870707;fill-opacity:1;fill-rule:nonzero;stroke:none"
       d="M 458,175.035 H 346.994 v 24 H 458 Z" /><path
       id="path56"
       style="fill:#870707;fill-opacity:1;fill-rule:nonzero;stroke:none"
       d="m 571.983,175.035 h -72.402 v 23.313 h 72.402 z" /><g
       transform="translate(311.5365,113.2399)"
       id="g58"><path
         id="path60"
         style="fill:#870707;fill-opacity:1;fill-rule:nonzero;stroke:none"
         d="m 0,0 h 25.927 v 13.809 6.502 3.88 l -0.433,1.102 -0.515,1.013 -0.546,0.858 -0.601,0.778 -0.569,0.623 -0.599,0.569 -0.703,0.585 -0.627,0.465 -0.822,0.549 -0.886,0.539 -0.934,0.528 -1.257,0.675 -0.999,0.527 -0.877,0.477 -0.696,0.467 -1.899,1.452 L 11.126,33.993 10.098,33.326 9.233,32.865 8.368,32.408 7.579,31.987 6.739,31.523 5.876,31.019 5.094,30.526 4.406,30.05 3.772,29.565 3.21,29.087 2.584,28.484 2.011,27.843 1.39,27.015 0.983,26.367 0.642,25.734 0.258,24.882 0,24.191 Z" /></g><g
       transform="translate(327.8698,260.3364)"
       id="g62"><path
         id="path64"
         style="fill:#870707;fill-opacity:1;fill-rule:nonzero;stroke:none"
         d="m 0,0 h 12.964 v 6.905 3.25 1.941 l -0.217,0.55 -0.258,0.507 -0.272,0.429 -0.301,0.389 -0.285,0.311 -0.299,0.285 -0.352,0.293 -0.313,0.232 -0.411,0.275 L 9.813,15.636 9.346,15.9 8.717,16.238 8.218,16.501 7.779,16.74 7.432,16.973 6.482,17.699 5.563,16.996 5.049,16.663 4.616,16.433 4.184,16.204 3.79,15.993 3.369,15.761 2.938,15.509 2.547,15.263 2.203,15.025 1.886,14.783 1.605,14.543 1.292,14.242 1.006,13.921 0.695,13.507 0.492,13.184 0.321,12.867 0.129,12.441 0,12.096 Z" /></g><path
       id="path66"
       style="fill:#870707;fill-opacity:1;fill-rule:nonzero;stroke:none"
       d="m 340.833,211.035 h -12.964 v 49.301 h 12.964 z" /><g
       transform="translate(308.2031,260.3364)"
       id="g68"><path
         id="path70"
         style="fill:#870707;fill-opacity:1;fill-rule:nonzero;stroke:none"
         d="m 0,0 h 12.964 v 6.905 3.25 1.941 l -0.217,0.55 -0.257,0.507 -0.273,0.429 -0.301,0.389 -0.285,0.311 -0.299,0.285 -0.352,0.293 -0.313,0.232 -0.411,0.275 L 9.813,15.636 9.346,15.9 8.717,16.238 8.218,16.501 7.779,16.74 7.432,16.973 6.482,17.699 5.563,16.996 5.049,16.663 4.616,16.433 4.184,16.204 3.79,15.993 3.369,15.761 2.938,15.509 2.547,15.263 2.203,15.025 1.886,14.783 1.605,14.543 1.292,14.242 1.006,13.921 0.695,13.507 0.492,13.184 0.321,12.867 0.129,12.441 0,12.096 Z" /></g><path
       id="path72"
       style="fill:#870707;fill-opacity:1;fill-rule:nonzero;stroke:none"
       d="m 321.167,211.035 h -12.964 v 49.301 h 12.964 z" /><g
       transform="translate(308.8982,311.0745)"
       id="g74"><path
         id="path76"
         style="fill:#870707;fill-opacity:1;fill-rule:nonzero;stroke:none"
         d="M 0,0 H 4.71 V 5.017 7.38 8.79 L 4.631,9.19 4.538,9.558 4.439,9.87 4.33,10.152 4.226,10.379 4.117,10.585 3.99,10.798 l -0.114,0.169 -0.15,0.2 -0.16,0.195 -0.17,0.192 L 3.167,11.8 2.986,11.991 2.827,12.164 2.7,12.334 2.355,12.861 2.021,12.351 1.835,12.109 1.677,11.941 1.52,11.775 1.377,11.622 1.224,11.453 1.067,11.27 0.925,11.091 0.8,10.918 0.685,10.742 0.583,10.568 0.47,10.349 0.365,10.116 0.253,9.815 0.179,9.58 0.117,9.35 0.047,9.041 0,8.79 Z" /></g><path
       id="path78"
       style="fill:#870707;fill-opacity:1;fill-rule:nonzero;stroke:none"
       d="m 313.608,283.04 h -4.71 v 28.035 h 4.71 z" /><g
       transform="translate(317.7668,311.0745)"
       id="g80"><path
         id="path82"
         style="fill:#870707;fill-opacity:1;fill-rule:nonzero;stroke:none"
         d="M 0,0 H 4.71 V 5.017 7.38 8.79 L 4.631,9.19 4.538,9.558 4.439,9.87 4.33,10.152 4.226,10.379 4.117,10.585 3.99,10.798 l -0.114,0.169 -0.15,0.2 -0.16,0.195 -0.17,0.192 L 3.167,11.8 2.986,11.991 2.827,12.164 2.7,12.334 2.355,12.861 2.021,12.351 1.835,12.109 1.677,11.941 1.52,11.775 1.377,11.622 1.224,11.453 1.067,11.27 0.925,11.091 0.8,10.918 0.685,10.742 0.583,10.568 0.47,10.349 0.365,10.116 0.253,9.815 0.179,9.58 0.117,9.35 0.047,9.041 0,8.79 Z" /></g><path
       id="path84"
       style="fill:#870707;fill-opacity:1;fill-rule:nonzero;stroke:none"
       d="m 322.477,283.637 h -4.71 v 27.438 h 4.71 z" /><g
       transform="translate(326.6355,311.0745)"
       id="g86"><path
         id="path88"
         style="fill:#870707;fill-opacity:1;fill-rule:nonzero;stroke:none"
         d="M 0,0 H 4.71 V 5.017 7.38 8.79 L 4.631,9.19 4.538,9.558 4.439,9.87 4.33,10.152 4.226,10.379 4.117,10.585 3.99,10.798 l -0.114,0.169 -0.15,0.2 -0.16,0.195 -0.17,0.192 L 3.167,11.8 2.986,11.991 2.827,12.164 2.7,12.334 2.355,12.861 2.021,12.351 1.835,12.109 1.677,11.941 1.52,11.775 1.377,11.622 1.224,11.453 1.067,11.27 0.925,11.091 0.8,10.918 0.685,10.742 0.583,10.568 0.47,10.349 0.365,10.116 0.253,9.815 0.179,9.58 0.117,9.35 0.047,9.041 0,8.79 Z" /></g><path
       id="path90"
       style="fill:#870707;fill-opacity:1;fill-rule:nonzero;stroke:none"
       d="m 331.346,283.584 h -4.71 v 27.49 h 4.71 z" /><g
       transform="translate(335.796,311.0745)"
       id="g92"><path
         id="path94"
         style="fill:#870707;fill-opacity:1;fill-rule:nonzero;stroke:none"
         d="M 0,0 H 4.71 V 5.017 7.38 8.79 L 4.631,9.19 4.538,9.558 4.439,9.87 4.33,10.152 4.226,10.379 4.117,10.585 3.99,10.798 3.876,10.967 3.727,11.167 3.566,11.362 3.396,11.554 3.167,11.8 2.986,11.991 2.827,12.164 2.7,12.334 2.355,12.861 2.021,12.351 1.835,12.109 1.677,11.941 1.52,11.775 1.377,11.622 1.224,11.453 1.067,11.27 0.925,11.091 0.8,10.918 0.685,10.742 0.583,10.568 0.47,10.349 0.365,10.116 0.253,9.815 0.179,9.58 0.117,9.35 0.047,9.041 0,8.79 Z" /></g><path
       id="path96"
       style="fill:#870707;fill-opacity:1;fill-rule:nonzero;stroke:none"
       d="m 340.506,282.914 h -4.71 v 28.16 h 4.71 z" /><g
       transform="translate(311.5365,169.3364)"
       id="g98"><path
         id="path100"
         style="fill:#a01515;fill-opacity:1;fill-rule:nonzero;stroke:none"
         d="m 0,0 h 25.927 v 13.809 6.502 3.88 l -0.433,1.102 -0.515,1.013 -0.546,0.858 -0.601,0.778 -0.569,0.623 -0.599,0.569 -0.703,0.585 -0.627,0.465 -0.822,0.549 -0.886,0.539 -0.934,0.528 -1.257,0.675 -0.999,0.527 -0.877,0.477 -0.696,0.467 -1.899,1.452 L 11.126,33.993 10.098,33.326 9.233,32.865 8.368,32.408 7.579,31.987 6.739,31.523 5.876,31.019 5.094,30.526 4.406,30.05 3.772,29.565 3.21,29.087 2.584,28.484 2.011,27.843 1.39,27.015 0.983,26.367 0.642,25.734 0.258,24.882 0,24.191 Z" /></g><g
       id="g102"><g
         clip-path="url(#clipPath108)"
         id="g104"><g
           transform="translate(338,356.5352)"
           id="g110"><path
             id="path112"
             style="fill:#ffffff;fill-opacity:1;fill-rule:nonzero;stroke:none"
             d="m 0,0 c 0,-7.456 -6.044,-13.5 -13.5,-13.5 -7.456,0 -13.5,6.044 -13.5,13.5 0,7.456 6.044,13.5 13.5,13.5 C -6.044,13.5 0,7.456 0,0" /></g><path
           id="path114"
           style="fill:#000000;fill-opacity:1;fill-rule:nonzero;stroke:none"
           d="m 323.994,356.535 h 1 v 8.5 h -1 z" /><g
           transform="translate(323.685,356.1201)"
           id="g116"><path
             id="path118"
             style="fill:#000000;fill-opacity:1;fill-rule:nonzero;stroke:none"
             d="M 0,0 0.845,0.535 -5.037,9.83 -5.882,9.295 Z" /></g><g
           transform="translate(325.2917,356.3685)"
           id="g120"><path
             id="path122"
             style="fill:#000000;fill-opacity:1;fill-rule:nonzero;stroke:none"
             d="m 0,0 c 0,-0.437 -0.354,-0.792 -0.792,-0.792 -0.437,0 -0.791,0.355 -0.791,0.792 0,0.437 0.354,0.792 0.791,0.792 C -0.354,0.792 0,0.437 0,0" /></g><g
           transform="translate(463.6915,135.987)"
           id="g124"><path
             id="path126"
             style="fill:#a01515;fill-opacity:1;fill-rule:nonzero;stroke:none"
             d="m 0,0 h 12.099 v 9.871 4.647 2.773 l -0.202,0.787 -0.24,0.724 -0.255,0.614 -0.281,0.556 -0.265,0.445 -0.28,0.407 -0.328,0.418 L 9.956,21.574 9.572,21.967 9.159,22.352 8.723,22.729 8.136,23.212 7.67,23.589 7.261,23.93 6.936,24.263 6.049,25.301 5.192,24.297 4.712,23.82 4.309,23.491 3.905,23.165 3.537,22.863 3.145,22.531 2.742,22.171 2.377,21.819 2.056,21.479 1.76,21.132 1.498,20.79 1.206,20.359 0.939,19.901 0.649,19.309 0.459,18.846 0.299,18.394 0.12,17.785 0,17.291 Z" /></g><g
           transform="translate(481.7909,135.987)"
           id="g128"><path
             id="path130"
             style="fill:#a01515;fill-opacity:1;fill-rule:nonzero;stroke:none"
             d="m 0,0 h 12.099 v 9.871 4.647 2.773 l -0.202,0.787 -0.24,0.724 -0.255,0.614 -0.281,0.556 -0.265,0.445 -0.28,0.407 -0.328,0.418 L 9.956,21.574 9.572,21.967 9.159,22.352 8.723,22.729 8.136,23.212 7.67,23.589 7.261,23.93 6.936,24.263 6.049,25.301 5.192,24.297 4.712,23.82 4.309,23.491 3.905,23.165 3.537,22.863 3.145,22.531 2.742,22.171 2.377,21.819 2.056,21.479 1.76,21.132 1.498,20.79 1.206,20.359 0.939,19.901 0.649,19.309 0.459,18.846 0.299,18.394 0.12,17.785 0,17.291 Z" /></g><g
           transform="translate(577.675,135.987)"
           id="g132"><path
             id="path134"
             style="fill:#a01515;fill-opacity:1;fill-rule:nonzero;stroke:none"
             d="m 0,0 h 12.099 v 9.871 4.647 2.773 l -0.202,0.787 -0.241,0.724 -0.254,0.614 -0.281,0.556 -0.265,0.445 -0.28,0.407 -0.328,0.418 L 9.956,21.574 9.572,21.967 9.159,22.352 8.723,22.729 8.136,23.212 7.67,23.589 7.26,23.93 6.936,24.263 6.049,25.301 5.192,24.297 4.712,23.82 4.309,23.491 3.905,23.165 3.537,22.863 3.145,22.531 2.742,22.171 2.377,21.819 2.056,21.479 1.76,21.132 1.498,20.79 1.206,20.359 0.939,19.901 0.649,19.309 0.459,18.846 0.299,18.394 0.12,17.785 0,17.291 Z" /></g><g
           transform="translate(595.7744,135.987)"
           id="g136"><path
             id="path138"
             style="fill:#a01515;fill-opacity:1;fill-rule:nonzero;stroke:none"
             d="m 0,0 h 12.099 v 9.871 4.647 2.773 l -0.202,0.787 -0.24,0.724 -0.255,0.614 -0.281,0.556 -0.265,0.445 -0.28,0.407 -0.328,0.418 L 9.956,21.574 9.572,21.967 9.159,22.352 8.723,22.729 8.136,23.212 7.67,23.589 7.26,23.93 6.936,24.263 6.049,25.301 5.192,24.297 4.712,23.82 4.309,23.491 3.905,23.165 3.537,22.863 3.145,22.531 2.742,22.171 2.377,21.819 2.056,21.479 1.76,21.132 1.498,20.79 1.206,20.359 0.939,19.901 0.649,19.309 0.459,18.846 0.299,18.394 0.12,17.785 0,17.291 Z" /></g><g
           transform="translate(357.9005,135.987)"
           id="g140"><path
             id="path142"
             style="fill:#870707;fill-opacity:1;fill-rule:nonzero;stroke:none"
             d="m 0,0 h 12.099 v 9.871 4.647 2.773 l -0.202,0.787 -0.24,0.724 -0.255,0.614 -0.281,0.556 -0.265,0.445 -0.28,0.407 -0.328,0.418 L 9.956,21.574 9.572,21.967 9.159,22.352 8.723,22.729 8.136,23.212 7.67,23.589 7.26,23.93 6.936,24.263 6.049,25.301 5.192,24.297 4.712,23.82 4.309,23.491 3.905,23.165 3.537,22.863 3.145,22.531 2.742,22.171 2.377,21.819 2.056,21.479 1.76,21.132 1.498,20.79 1.206,20.359 0.939,19.901 0.649,19.309 0.459,18.846 0.299,18.394 0.12,17.785 0,17.291 Z" /></g><g
           transform="translate(376,135.987)"
           id="g144"><path
             id="path146"
             style="fill:#870707;fill-opacity:1;fill-rule:nonzero;stroke:none"
             d="m 0,0 h 12.099 v 9.871 4.647 2.773 l -0.202,0.787 -0.24,0.724 -0.255,0.614 -0.281,0.556 -0.265,0.445 -0.28,0.407 -0.328,0.418 L 9.956,21.574 9.572,21.967 9.159,22.352 8.723,22.729 8.136,23.212 7.67,23.589 7.26,23.93 6.936,24.263 6.049,25.301 5.192,24.297 4.712,23.82 4.309,23.491 3.905,23.165 3.537,22.863 3.145,22.531 2.742,22.171 2.377,21.819 2.056,21.479 1.76,21.132 1.498,20.79 1.206,20.359 0.939,19.901 0.649,19.309 0.459,18.846 0.299,18.394 0.12,17.785 0,17.291 Z" /></g><g
           transform="translate(414.1956,135.987)"
           id="g148"><path
             id="path150"
             style="fill:#870707;fill-opacity:1;fill-rule:nonzero;stroke:none"
             d="m 0,0 h 12.099 v 9.871 4.647 2.773 l -0.202,0.787 -0.24,0.724 -0.255,0.614 -0.281,0.556 -0.265,0.445 -0.28,0.407 -0.328,0.418 L 9.956,21.574 9.572,21.967 9.159,22.352 8.723,22.729 8.136,23.212 7.67,23.589 7.26,23.93 6.936,24.263 6.049,25.301 5.192,24.297 4.712,23.82 4.309,23.491 3.905,23.165 3.537,22.863 3.145,22.531 2.742,22.171 2.377,21.819 2.056,21.479 1.76,21.132 1.498,20.79 1.206,20.359 0.939,19.901 0.649,19.309 0.459,18.846 0.299,18.394 0.12,17.785 0,17.291 Z" /></g><g
           transform="translate(433.295,135.987)"
           id="g152"><path
             id="path154"
             style="fill:#870707;fill-opacity:1;fill-rule:nonzero;stroke:none"
             d="m 0,0 h 12.099 v 9.871 4.647 2.773 l -0.202,0.787 -0.24,0.724 -0.255,0.614 -0.281,0.556 -0.265,0.445 -0.28,0.407 -0.328,0.418 L 9.956,21.574 9.572,21.967 9.159,22.352 8.723,22.729 8.136,23.212 7.67,23.589 7.261,23.93 6.936,24.263 6.049,25.301 5.192,24.297 4.712,23.82 4.309,23.491 3.905,23.165 3.537,22.863 3.145,22.531 2.742,22.171 2.377,21.819 2.056,21.479 1.76,21.132 1.498,20.79 1.206,20.359 0.939,19.901 0.649,19.309 0.459,18.846 0.299,18.394 0.12,17.785 0,17.291 Z" /></g><g
           transform="translate(395.3981,135.987)"
           id="g156"><path
             id="path158"
             style="fill:#870707;fill-opacity:1;fill-rule:nonzero;stroke:none"
             d="m 0,0 h 12.099 v 9.871 4.647 2.773 l -0.202,0.787 -0.24,0.724 -0.255,0.614 -0.281,0.556 -0.265,0.445 -0.28,0.407 -0.328,0.418 L 9.956,21.574 9.572,21.967 9.159,22.352 8.723,22.729 8.136,23.212 7.67,23.589 7.26,23.93 6.936,24.263 6.049,25.301 5.192,24.297 4.712,23.82 4.309,23.491 3.905,23.165 3.537,22.863 3.145,22.531 2.742,22.171 2.377,21.819 2.056,21.479 1.76,21.132 1.498,20.79 1.206,20.359 0.939,19.901 0.649,19.309 0.459,18.846 0.299,18.394 0.12,17.785 0,17.291 Z" /></g><g
           transform="translate(511.9032,135.987)"
           id="g160"><path
             id="path162"
             style="fill:#870707;fill-opacity:1;fill-rule:nonzero;stroke:none"
             d="m 0,0 h 12.099 v 9.871 4.647 2.773 l -0.202,0.787 -0.24,0.724 -0.255,0.614 -0.281,0.556 -0.265,0.445 -0.28,0.407 -0.328,0.418 L 9.956,21.574 9.572,21.967 9.159,22.352 8.723,22.729 8.136,23.212 7.67,23.589 7.261,23.93 6.936,24.263 6.049,25.301 5.192,24.297 4.712,23.82 4.309,23.491 3.905,23.165 3.537,22.863 3.145,22.531 2.742,22.171 2.377,21.819 2.056,21.479 1.76,21.132 1.498,20.79 1.206,20.359 0.939,19.901 0.649,19.309 0.459,18.846 0.299,18.394 0.12,17.785 0,17.291 Z" /></g><g
           transform="translate(530.0027,135.987)"
           id="g164"><path
             id="path166"
             style="fill:#870707;fill-opacity:1;fill-rule:nonzero;stroke:none"
             d="m 0,0 h 12.099 v 9.871 4.647 2.773 l -0.202,0.787 -0.241,0.724 -0.254,0.614 -0.281,0.556 -0.265,0.445 -0.28,0.407 -0.328,0.418 L 9.956,21.574 9.572,21.967 9.159,22.352 8.723,22.729 8.136,23.212 7.67,23.589 7.26,23.93 6.936,24.263 6.049,25.301 5.192,24.297 4.712,23.82 4.309,23.491 3.905,23.165 3.537,22.863 3.145,22.531 2.742,22.171 2.377,21.819 2.056,21.479 1.76,21.132 1.498,20.79 1.206,20.359 0.939,19.901 0.649,19.309 0.459,18.846 0.299,18.394 0.12,17.785 0,17.291 Z" /></g><g
           transform="translate(547.5627,135.987)"
           id="g168"><path
             id="path170"
             style="fill:#870707;fill-opacity:1;fill-rule:nonzero;stroke:none"
             d="m 0,0 h 12.099 v 9.871 4.647 2.773 l -0.202,0.787 -0.24,0.724 -0.255,0.614 -0.281,0.556 -0.265,0.445 -0.28,0.407 -0.328,0.418 L 9.956,21.574 9.572,21.967 9.159,22.352 8.723,22.729 8.136,23.212 7.67,23.589 7.26,23.93 6.936,24.263 6.049,25.301 5.192,24.297 4.712,23.82 4.309,23.491 3.905,23.165 3.537,22.863 3.145,22.531 2.742,22.171 2.377,21.819 2.056,21.479 1.76,21.132 1.498,20.79 1.206,20.359 0.939,19.901 0.649,19.309 0.459,18.846 0.299,18.394 0.12,17.785 0,17.291 Z" /></g><g
           transform="translate(52.2958,135.987)"
           id="g172"><path
             id="path174"
             style="fill:#a01515;fill-opacity:1;fill-rule:nonzero;stroke:none"
             d="m 0,0 h 12.099 v 9.871 4.647 2.773 l -0.202,0.787 -0.24,0.724 -0.255,0.614 -0.281,0.556 -0.265,0.445 -0.28,0.407 -0.328,0.418 L 9.956,21.574 9.572,21.967 9.159,22.352 8.723,22.729 8.136,23.212 7.67,23.589 7.261,23.93 6.936,24.263 6.049,25.301 5.192,24.297 4.712,23.82 4.309,23.491 3.905,23.165 3.537,22.863 3.145,22.531 2.742,22.171 2.377,21.819 2.056,21.479 1.76,21.132 1.498,20.79 1.206,20.359 0.939,19.901 0.649,19.309 0.459,18.846 0.299,18.394 0.12,17.785 0,17.291 Z" /></g><g
           transform="translate(70.3952,135.987)"
           id="g176"><path
             id="path178"
             style="fill:#a01515;fill-opacity:1;fill-rule:nonzero;stroke:none"
             d="m 0,0 h 12.099 v 9.871 4.647 2.773 l -0.202,0.787 -0.24,0.724 -0.255,0.614 -0.281,0.556 -0.265,0.445 -0.28,0.407 -0.328,0.418 L 9.956,21.574 9.572,21.967 9.159,22.352 8.723,22.729 8.136,23.212 7.67,23.589 7.261,23.93 6.936,24.263 6.049,25.301 5.192,24.297 4.712,23.82 4.309,23.491 3.905,23.165 3.537,22.863 3.145,22.531 2.742,22.171 2.377,21.819 2.056,21.479 1.76,21.132 1.498,20.79 1.206,20.359 0.939,19.901 0.649,19.309 0.459,18.846 0.299,18.394 0.12,17.785 0,17.291 Z" /></g><g
           transform="translate(159.1956,135.987)"
           id="g180"><path
             id="path182"
             style="fill:#a01515;fill-opacity:1;fill-rule:nonzero;stroke:none"
             d="m 0,0 h 12.099 v 9.871 4.647 2.773 l -0.202,0.787 -0.24,0.724 -0.255,0.614 -0.281,0.556 -0.265,0.445 -0.28,0.407 -0.328,0.418 L 9.956,21.574 9.572,21.967 9.159,22.352 8.723,22.729 8.136,23.212 7.67,23.589 7.261,23.93 6.936,24.263 6.049,25.301 5.192,24.297 4.712,23.82 4.309,23.491 3.905,23.165 3.537,22.863 3.145,22.531 2.742,22.171 2.377,21.819 2.056,21.479 1.76,21.132 1.498,20.79 1.206,20.359 0.939,19.901 0.649,19.309 0.459,18.846 0.299,18.394 0.12,17.785 0,17.291 Z" /></g><g
           transform="translate(177.2951,135.987)"
           id="g184"><path
             id="path186"
             style="fill:#a01515;fill-opacity:1;fill-rule:nonzero;stroke:none"
             d="m 0,0 h 12.099 v 9.871 4.647 2.773 l -0.202,0.787 -0.24,0.724 -0.255,0.614 -0.281,0.556 -0.265,0.445 -0.28,0.407 -0.328,0.418 L 9.956,21.574 9.572,21.967 9.159,22.352 8.723,22.729 8.136,23.212 7.67,23.589 7.261,23.93 6.936,24.263 6.049,25.301 5.192,24.297 4.712,23.82 4.309,23.491 3.905,23.165 3.537,22.863 3.145,22.531 2.742,22.171 2.377,21.819 2.056,21.479 1.76,21.132 1.498,20.79 1.206,20.359 0.939,19.901 0.649,19.309 0.459,18.846 0.299,18.394 0.12,17.785 0,17.291 Z" /></g><g
           transform="translate(96.7457,135.987)"
           id="g188"><path
             id="path190"
             style="fill:#870707;fill-opacity:1;fill-rule:nonzero;stroke:none"
             d="m 0,0 h 12.099 v 9.871 4.647 2.773 l -0.202,0.787 -0.24,0.724 -0.255,0.614 -0.281,0.556 -0.265,0.445 -0.28,0.407 -0.328,0.418 L 9.956,21.574 9.572,21.967 9.159,22.352 8.723,22.729 8.136,23.212 7.67,23.589 7.26,23.93 6.936,24.263 6.049,25.301 5.192,24.297 4.712,23.82 4.309,23.491 3.905,23.165 3.537,22.863 3.145,22.531 2.742,22.171 2.377,21.819 2.056,21.479 1.76,21.132 1.498,20.79 1.206,20.359 0.939,19.901 0.649,19.309 0.459,18.846 0.299,18.394 0.12,17.785 0,17.291 Z" /></g><g
           transform="translate(114.8452,135.987)"
           id="g192"><path
             id="path194"
             style="fill:#870707;fill-opacity:1;fill-rule:nonzero;stroke:none"
             d="m 0,0 h 12.099 v 9.871 4.647 2.773 l -0.202,0.787 -0.24,0.724 -0.255,0.614 -0.281,0.556 -0.265,0.445 -0.28,0.407 -0.328,0.418 L 9.956,21.574 9.572,21.967 9.159,22.352 8.723,22.729 8.136,23.212 7.67,23.589 7.261,23.93 6.936,24.263 6.049,25.301 5.192,24.297 4.712,23.82 4.309,23.491 3.905,23.165 3.537,22.863 3.145,22.531 2.742,22.171 2.377,21.819 2.056,21.479 1.76,21.132 1.498,20.79 1.206,20.359 0.939,19.901 0.649,19.309 0.459,18.846 0.299,18.394 0.12,17.785 0,17.291 Z" /></g><g
           transform="translate(132.4052,135.987)"
           id="g196"><path
             id="path198"
             style="fill:#870707;fill-opacity:1;fill-rule:nonzero;stroke:none"
             d="m 0,0 h 12.099 v 9.871 4.647 2.773 l -0.202,0.787 -0.24,0.724 -0.255,0.614 -0.281,0.556 -0.265,0.445 -0.28,0.407 -0.328,0.418 L 9.956,21.574 9.572,21.967 9.159,22.352 8.723,22.729 8.136,23.212 7.67,23.589 7.261,23.93 6.936,24.263 6.049,25.301 5.192,24.297 4.712,23.82 4.309,23.491 3.905,23.165 3.537,22.863 3.145,22.531 2.742,22.171 2.377,21.819 2.056,21.479 1.76,21.132 1.498,20.79 1.206,20.359 0.939,19.901 0.649,19.309 0.459,18.846 0.299,18.394 0.12,17.785 0,17.291 Z" /></g><g
           transform="translate(204.7931,135.987)"
           id="g200"><path
             id="path202"
             style="fill:#870707;fill-opacity:1;fill-rule:nonzero;stroke:none"
             d="m 0,0 h 12.099 v 9.871 4.647 2.773 l -0.202,0.787 -0.24,0.724 -0.255,0.614 -0.281,0.556 -0.265,0.445 -0.28,0.407 -0.328,0.418 L 9.956,21.574 9.572,21.967 9.159,22.352 8.723,22.729 8.136,23.212 7.67,23.589 7.261,23.93 6.936,24.263 6.049,25.301 5.192,24.297 4.712,23.82 4.309,23.491 3.905,23.165 3.537,22.863 3.145,22.531 2.742,22.171 2.377,21.819 2.056,21.479 1.76,21.132 1.498,20.79 1.206,20.359 0.939,19.901 0.649,19.309 0.459,18.846 0.299,18.394 0.12,17.785 0,17.291 Z" /></g><g
           transform="translate(222.8925,135.987)"
           id="g204"><path
             id="path206"
             style="fill:#870707;fill-opacity:1;fill-rule:nonzero;stroke:none"
             d="m 0,0 h 12.099 v 9.871 4.647 2.773 l -0.202,0.787 -0.24,0.724 -0.255,0.614 -0.281,0.556 -0.265,0.445 -0.28,0.407 -0.328,0.418 L 9.956,21.574 9.572,21.967 9.159,22.352 8.723,22.729 8.136,23.212 7.67,23.589 7.261,23.93 6.936,24.263 6.049,25.301 5.192,24.297 4.712,23.82 4.309,23.491 3.905,23.165 3.537,22.863 3.145,22.531 2.742,22.171 2.377,21.819 2.056,21.479 1.76,21.132 1.498,20.79 1.206,20.359 0.939,19.901 0.649,19.309 0.459,18.846 0.299,18.394 0.12,17.785 0,17.291 Z" /></g><g
           transform="translate(261.0881,135.987)"
           id="g208"><path
             id="path210"
             style="fill:#870707;fill-opacity:1;fill-rule:nonzero;stroke:none"
             d="m 0,0 h 12.099 v 9.871 4.647 2.773 l -0.202,0.787 -0.24,0.724 -0.255,0.614 -0.281,0.556 -0.265,0.445 -0.28,0.407 -0.328,0.418 L 9.956,21.574 9.572,21.967 9.159,22.352 8.723,22.729 8.136,23.212 7.67,23.589 7.26,23.93 6.936,24.263 6.049,25.301 5.192,24.297 4.712,23.82 4.309,23.491 3.905,23.165 3.537,22.863 3.145,22.531 2.742,22.171 2.377,21.819 2.056,21.479 1.76,21.132 1.498,20.79 1.206,20.359 0.939,19.901 0.649,19.309 0.459,18.846 0.299,18.394 0.12,17.785 0,17.291 Z" /></g><g
           transform="translate(280.1876,135.987)"
           id="g212"><path
             id="path214"
             style="fill:#870707;fill-opacity:1;fill-rule:nonzero;stroke:none"
             d="m 0,0 h 12.099 v 9.871 4.647 2.773 l -0.202,0.787 -0.24,0.724 -0.255,0.614 -0.281,0.556 -0.265,0.445 -0.28,0.407 -0.328,0.418 L 9.956,21.574 9.572,21.967 9.159,22.352 8.723,22.729 8.136,23.212 7.67,23.589 7.261,23.93 6.936,24.263 6.049,25.301 5.192,24.297 4.712,23.82 4.309,23.491 3.905,23.165 3.537,22.863 3.145,22.531 2.742,22.171 2.377,21.819 2.056,21.479 1.76,21.132 1.498,20.79 1.206,20.359 0.939,19.901 0.649,19.309 0.459,18.846 0.299,18.394 0.12,17.785 0,17.291 Z" /></g><g
           transform="translate(242.2906,135.987)"
           id="g216"><path
             id="path218"
             style="fill:#870707;fill-opacity:1;fill-rule:nonzero;stroke:none"
             d="m 0,0 h 12.099 v 9.871 4.647 2.773 l -0.202,0.787 -0.24,0.724 -0.255,0.614 -0.281,0.556 -0.265,0.445 -0.28,0.407 -0.328,0.418 L 9.956,21.574 9.572,21.967 9.159,22.352 8.723,22.729 8.136,23.212 7.67,23.589 7.261,23.93 6.936,24.263 6.049,25.301 5.192,24.297 4.712,23.82 4.309,23.491 3.905,23.165 3.537,22.863 3.145,22.531 2.742,22.171 2.377,21.819 2.056,21.479 1.76,21.132 1.498,20.79 1.206,20.359 0.939,19.901 0.649,19.309 0.459,18.846 0.299,18.394 0.12,17.785 0,17.291 Z" /></g><path
           id="path220"
           style="fill:#c92f2f;fill-opacity:1;fill-rule:nonzero;stroke:none"
           d="m 323.292,474.374 h 30.107 V 459.32 h -30.107 z" /><path
           id="path222"
           style="fill:#ffffff;fill-opacity:1;fill-rule:nonzero;stroke:none"
           d="m 330.818,474.374 h 15.054 V 459.32 h -15.054 z" /><g
           transform="translate(338.345,472.9626)"
           id="g224"><path
             id="path226"
             style="fill:#c92f2f;fill-opacity:1;fill-rule:nonzero;stroke:none"
             d="m 0,0 -1.027,-1.916 c -0.117,-0.208 -0.325,-0.188 -0.534,-0.072 l -0.744,0.385 0.554,-2.942 c 0.117,-0.538 -0.257,-0.538 -0.441,-0.306 L -3.49,-3.398 -3.701,-4.136 C -3.725,-4.232 -3.832,-4.334 -3.992,-4.31 l -1.641,0.345 0.431,-1.567 c 0.092,-0.349 0.164,-0.493 -0.093,-0.585 l -0.585,-0.275 2.825,-2.294 c 0.111,-0.087 0.168,-0.243 0.128,-0.384 l -0.247,-0.812 c 0.972,0.112 1.844,0.281 2.817,0.385 0.086,0.009 0.23,-0.133 0.229,-0.232 l -0.129,-2.972 h 0.473 l -0.074,2.965 c -0.001,0.1 0.13,0.248 0.215,0.239 0.974,-0.104 1.845,-0.273 2.818,-0.385 L 2.927,-9.07 c -0.039,0.141 0.017,0.297 0.129,0.384 l 2.825,2.294 -0.585,0.275 C 5.038,-6.025 5.11,-5.881 5.203,-5.532 L 5.634,-3.965 3.993,-4.31 C 3.832,-4.334 3.726,-4.232 3.701,-4.136 L 3.491,-3.398 2.193,-4.851 C 2.008,-5.083 1.634,-5.083 1.751,-4.545 L 2.305,-1.603 1.562,-1.988 C 1.353,-2.104 1.144,-2.124 1.028,-1.916" /></g><path
           id="path228"
           style="fill:#a01515;fill-opacity:1;fill-rule:nonzero;stroke:none"
           d="m 324.637,473.785 h -1.286 v -36.75 h 1.286 z" /></g></g></g></svg>