<?xml version="1.0" encoding="utf-8"?>
<!-- Generator: Adobe Illustrator 17.0.0, SVG Export Plug-In . SVG Version: 6.00 Build 0)  -->
<!DOCTYPE svg PUBLIC "-//W3C//DTD SVG 1.1//EN" "http://www.w3.org/Graphics/SVG/1.1/DTD/svg11.dtd">
<svg version="1.1" xmlns="http://www.w3.org/2000/svg" xmlns:xlink="http://www.w3.org/1999/xlink" x="0px" y="0px" width="200px"
	 height="200px" viewBox="0 0 200 200" enable-background="new 0 0 200 200" xml:space="preserve">
<g id="Background">
	<rect fill="#E5CEB7" width="200" height="200"/>
</g>
<g id="Layer_1">
	<text transform="matrix(1 0 0 1 50.4991 127.1048)" fill="#42210B" font-family="'Cambria-Italic'" font-size="200">p</text>
	<path fill="#C92F2F" d="M106.582,64.148l-3.117,5.814c-0.354,0.632-0.988,0.573-1.621,0.22l-2.257-1.169l1.682,8.931
		c0.354,1.632-0.781,1.632-1.341,0.926l-3.939-4.409l-0.639,2.239c-0.074,0.294-0.398,0.603-0.884,0.529l-4.98-1.047l1.308,4.756
		c0.28,1.058,0.498,1.496-0.283,1.776l-1.775,0.834l8.574,6.964c0.339,0.263,0.511,0.737,0.39,1.166l-0.75,2.462
		c2.952-0.34,5.597-0.852,8.551-1.168c0.261-0.028,0.697,0.402,0.695,0.705l-0.391,9.022h1.435l-0.226-9.002
		c-0.002-0.302,0.394-0.752,0.655-0.724c2.954,0.315,5.599,0.827,8.551,1.168l-0.75-2.462c-0.121-0.429,0.051-0.903,0.39-1.166
		l8.574-6.964l-1.775-0.834c-0.781-0.279-0.563-0.717-0.283-1.776l1.308-4.756l-4.98,1.047c-0.486,0.074-0.811-0.235-0.884-0.529
		l-0.639-2.239l-3.939,4.409c-0.56,0.705-1.695,0.705-1.341-0.926l1.682-8.931l-2.257,1.169c-0.634,0.353-1.268,0.412-1.621-0.22"/>
</g>
</svg>
